<?xml version="1.0" encoding="UTF-8"?>
<svg xmlns="http://www.w3.org/2000/svg" xmlns:xlink="http://www.w3.org/1999/xlink" version="1.2" >
<font id="CocoGothicBoldItalic">
<font-face  font-family="CocoGothic" units-per-em="1000" ascent="743" descent="-199" font-style="italic" font-weight="700" font-stretch="normal" slope="-12" cap-height="743" x-height="491" underline-position="-75" underline-thickness="50" />
<missing-glyph  horiz-adv-x="313" d="M167 125 C198 93 242 72 296 72 C350 72 403 93 448 125 L167 125 Z M485 415 L207 415 C169 378 142 333 131 282 C120 228 129 179 153 141 L485 415 Z M513 438 C484 471 439 492 385 492 C331 492 278 472 233 438 L513 438 Z M549 282 C560 333 553 379 526 423 L195 148 L474 148 C512 185 539 231 549 282 L549 282 Z M357 38 C466 69 568 160 593 282 C622 415 540 536 394 536 C258 536 118 426 87 282 C59 146 143 29 287 29 C311 29 333 32 357 38 L357 38 Z M449 506 C538 480 598 396 573 282 C546 152 419 48 291 48 C160 48 82 157 108 282 C135 406 256 515 390 515 C412 515 432 512 449 506 L449 506 Z " />
<glyph glyph-name="NULL" d="" />
<glyph glyph-name="CR" unicode="&#xd;" horiz-adv-x="250" d="" />
<glyph glyph-name="space" unicode="&#x20;" horiz-adv-x="313" d="" />
<glyph glyph-name="exclam" unicode="&#x21;" horiz-adv-x="307" d="M379 716 C383 733 375 743 358 743 L267 743 C249 743 236 733 233 716 L133 245 C129 228 140 218 155 218 L246 218 C263 218 276 229 279 245 L379 716 Z M87 68 C78 24 107 -13 151 -13 C197 -13 240 24 249 68 C259 113 231 149 185 149 C141 149 97 113 87 68 L87 68 Z " />
<glyph glyph-name="quotedbl" unicode="&#x22;" horiz-adv-x="405" d="M166 552 C163 537 170 530 184 530 L253 530 C267 530 277 535 280 552 L316 720 C319 735 313 742 299 742 L229 742 C215 742 205 735 202 720 L166 552 Z M351 552 C348 537 355 530 369 530 L438 530 C452 530 462 535 465 552 L501 720 C504 735 498 742 484 742 L414 742 C400 742 390 735 387 720 L351 552 Z " />
<glyph glyph-name="numbersign" unicode="&#x23;" horiz-adv-x="579" d="M568 554 L615 720 C617 733 609 742 597 742 L531 742 C516 742 506 732 503 720 L457 554 L369 554 L415 720 C418 733 409 742 397 742 L332 742 C317 742 307 732 304 720 L257 554 L199 554 C185 554 175 546 171 532 L154 466 C154 465 154 464 153 463 C150 449 157 442 170 442 L229 442 L187 298 L129 298 C115 298 104 291 100 276 C94 254 88 230 83 208 C80 193 86 187 100 187 L158 187 L112 22 C112 21 112 20 112 19 C109 6 115 0 128 0 L194 0 C210 0 220 7 224 22 L270 187 L358 187 L312 22 C311 21 311 20 311 19 C308 6 315 0 328 0 L394 0 C410 0 419 7 423 22 L469 187 L535 187 C547 187 561 200 563 211 C569 233 575 256 580 277 C583 291 575 298 563 298 L498 298 L540 442 L605 442 C618 442 630 455 633 466 L650 532 C653 546 646 554 634 554 L568 554 Z M340 442 L428 442 L386 298 L298 298 L340 442 Z " />
<glyph glyph-name="dollar" unicode="&#x24;" horiz-adv-x="641" d="M619 544 C631 544 662 570 686 592 L686 591 L705 607 C713 614 718 623 720 631 C724 649 691 682 664 702 C635 722 601 738 564 747 L580 820 C583 833 571 842 561 842 L471 842 C456 842 446 832 444 820 L429 750 C303 730 210 653 188 547 C164 436 232 373 384 324 C451 304 522 282 510 223 C497 164 433 125 359 125 C306 125 241 165 204 209 L204 209 L203 211 C199 216 192 224 183 224 C171 224 136 197 113 179 L93 163 C83 155 77 148 76 141 C74 134 76 127 82 118 L83 116 L83 117 C123 55 190 10 269 -4 L255 -71 C252 -85 257 -93 272 -93 L362 -93 C378 -93 388 -85 391 -71 L405 -2 C532 22 638 107 664 229 C693 363 574 413 457 452 C388 474 327 496 338 544 C347 588 395 623 470 623 C529 623 576 582 596 557 L597 556 C605 549 611 544 619 544 L619 544 Z " />
<glyph glyph-name="percent" unicode="&#x25;" horiz-adv-x="968" d="M167 564 C144 456 212 369 321 369 C429 369 533 456 556 564 C579 672 512 759 403 759 C294 759 190 672 167 564 L167 564 Z M562 184 C539 76 608 -11 716 -11 C824 -11 929 76 952 184 C975 292 895 379 787 379 C678 379 585 292 562 184 L562 184 Z M678 184 C687 228 730 263 775 263 C815 263 848 234 838 184 C828 139 785 104 741 104 C696 104 668 139 678 184 L678 184 Z M281 564 C291 609 334 644 379 644 C423 644 452 609 442 564 C433 519 389 483 345 483 C300 483 271 519 281 564 L281 564 Z M251 28 C250 27 249 25 249 24 L249 25 L246 17 C243 5 251 0 266 0 L351 0 C365 0 374 7 385 22 C425 80 465 140 507 200 L604 343 C687 466 771 589 855 712 C855 712 856 714 856 714 C857 717 859 721 859 723 C862 735 852 742 835 742 L759 742 C741 742 729 732 719 717 L251 28 Z " />
<glyph glyph-name="ampersand" unicode="&#x26;" horiz-adv-x="868" d="M919 334 C920 336 920 338 921 341 C924 354 917 368 904 369 L864 379 C854 379 842 385 830 385 C817 385 804 376 800 363 C786 338 758 317 731 317 C728 317 724 318 720 319 L507 368 L508 368 C506 368 502 369 500 369 C487 369 476 359 470 346 L457 317 C452 301 440 283 437 268 C435 256 441 246 453 243 L505 229 C485 158 419 122 357 122 C277 122 244 180 257 240 C270 300 309 346 383 346 C396 346 407 352 412 368 L439 432 C439 434 440 436 440 436 L441 438 C444 452 438 460 422 462 C370 471 360 523 365 544 C372 580 402 622 460 622 C512 622 530 592 520 547 C517 531 525 522 542 522 L560 522 C566 522 572 522 578 522 L613 522 C629 522 641 531 645 550 C675 688 591 748 482 748 C371 748 256 664 232 552 C220 496 232 452 260 420 C188 379 133 320 112 225 C83 88 183 -10 324 -10 C449 -10 583 38 634 199 L673 190 C683 188 695 186 706 186 C792 186 881 246 919 334 L919 334 Z " />
<glyph glyph-name="quotesingle" unicode="&#x27;" horiz-adv-x="264" d="M197 552 C194 537 201 530 215 530 L284 530 C298 530 308 535 311 552 L347 720 C350 735 344 742 330 742 L260 742 C246 742 236 735 233 720 L197 552 Z " />
<glyph glyph-name="parenleft" unicode="&#x28;" horiz-adv-x="321" d="M179 -153 C183 -164 195 -166 207 -158 L300 -105 C314 -96 317 -83 312 -73 C284 -6 267 65 262 138 C257 212 264 289 281 369 C314 528 388 678 500 812 C510 821 511 835 501 843 L432 897 C423 905 410 903 400 891 C273 740 181 560 140 369 C99 178 116 -1 179 -153 L179 -153 Z " />
<glyph glyph-name="parenright" unicode="&#x29;" horiz-adv-x="329" d="M90 -153 C217 -1 310 178 351 369 C391 560 375 740 312 891 C307 903 295 905 283 897 L191 843 C177 835 173 821 179 812 C234 678 244 528 210 369 C193 289 167 212 130 138 C94 65 47 -6 -9 -73 C-19 -83 -20 -96 -10 -105 L59 -158 C68 -166 81 -164 90 -153 L90 -153 Z " />
<glyph glyph-name="asterisk" unicode="&#x2a;" horiz-adv-x="491" d="M479 421 L484 432 C488 453 447 478 426 490 L418 494 L412 494 C400 494 390 488 383 478 C369 456 356 435 342 413 C340 417 341 414 340 418 L340 417 C340 425 340 423 339 424 C334 458 326 494 302 494 L296 492 L282 486 L227 458 C217 452 210 445 207 435 C206 429 206 422 210 416 L243 358 C212 362 196 365 169 369 C145 369 138 353 133 331 L121 276 C117 255 126 248 147 248 C160 250 174 251 187 253 C198 254 211 256 221 257 C198 233 182 218 161 196 C156 192 154 187 153 183 C149 161 194 137 211 127 L211 127 C216 123 221 122 227 122 C237 122 247 126 253 136 L296 203 L302 178 C305 164 308 150 312 136 C314 126 323 122 333 122 C344 121 361 131 378 141 L377 141 C383 143 388 147 393 149 L411 158 C423 164 429 174 431 182 C432 187 432 191 431 194 L395 257 L470 248 C497 248 503 272 507 288 L514 322 C519 348 523 369 496 369 L452 363 L417 359 L479 421 Z " />
<glyph glyph-name="plus" unicode="&#x2b;" horiz-adv-x="450" d="M349 243 L446 243 C462 243 476 258 479 271 L494 341 C498 358 488 368 473 368 L375 368 L397 469 C400 486 393 495 375 495 L300 495 C280 495 269 486 265 469 L244 368 L147 368 C129 368 118 358 114 341 L99 271 C95 253 103 243 120 243 L217 243 L196 142 C192 126 206 115 219 115 L294 115 C312 115 324 127 327 142 L349 243 Z " />
<glyph glyph-name="comma" unicode="&#x2c;" horiz-adv-x="264" d="M74 66 C66 28 88 -8 122 -15 C119 -29 110 -41 105 -46 L96 -56 C91 -60 89 -65 88 -69 C87 -75 88 -80 91 -83 L112 -101 C115 -104 119 -107 127 -107 C148 -107 214 -52 238 60 C249 113 221 149 174 149 C129 149 84 113 74 66 L74 66 Z " />
<glyph glyph-name="hyphen" unicode="&#x2d;" horiz-adv-x="517" d="M180 347 C163 347 151 337 148 321 L133 250 C129 231 137 222 153 222 L479 222 C495 222 509 237 512 250 L527 321 C531 337 521 347 506 347 L180 347 Z " />
<glyph glyph-name="period" unicode="&#x2e;" horiz-adv-x="264" d="M74 68 C65 24 93 -13 137 -13 C183 -13 226 24 235 68 C245 113 218 149 172 149 C128 149 84 113 74 68 L74 68 Z " />
<glyph glyph-name="slash" unicode="&#x2f;" horiz-adv-x="512" d="M41 21 C39 16 37 13 37 12 C35 4 40 0 53 0 L154 0 C167 0 174 5 184 19 C240 107 579 630 635 718 C637 722 638 725 639 728 C641 738 632 742 618 742 L527 742 C510 742 500 735 491 720 L41 21 Z " />
<glyph glyph-name="zero" unicode="0" horiz-adv-x="871" d="M131 370 C86 159 221 -11 432 -11 C643 -11 850 159 895 370 C940 581 805 752 594 752 C383 752 176 581 131 370 L131 370 Z M266 370 C296 509 429 621 567 621 C705 621 791 509 761 370 C732 232 598 120 461 120 C322 120 237 232 266 370 L266 370 Z " />
<glyph glyph-name="one" unicode="1" horiz-adv-x="358" d="M179 589 C176 578 179 571 190 571 C203 571 245 589 269 598 L147 21 C144 9 149 0 164 0 L256 0 C271 0 281 7 284 22 L432 720 C435 734 427 742 413 742 L347 742 C338 742 329 740 325 739 L298 730 L221 700 C207 693 199 685 197 673 L179 589 Z " />
<glyph glyph-name="two" unicode="2" horiz-adv-x="630" d="M435 625 C506 625 548 572 534 505 C528 477 513 454 480 427 L87 92 C83 87 81 83 80 79 L68 22 C65 9 75 -3 87 -3 C239 -2 390 -1 542 0 C556 0 568 12 571 24 L587 102 C591 118 582 125 569 125 C474 124 380 123 286 122 C378 199 529 323 582 372 C627 414 655 459 668 518 C694 656 596 750 467 750 C382 750 297 707 237 643 C225 629 204 602 201 589 C201 583 201 578 208 573 L258 545 C265 541 272 538 279 538 C286 538 294 541 301 549 C338 594 382 622 435 625 L435 625 Z " />
<glyph glyph-name="three" unicode="3" horiz-adv-x="566" d="M290 110 C243 110 206 134 185 189 C180 201 178 210 162 210 C156 210 147 206 139 203 C118 195 97 186 75 178 C66 174 62 168 61 162 C60 159 61 156 62 154 C61 134 67 119 76 99 C106 38 163 -11 275 -11 C413 -11 546 93 575 228 C595 320 557 378 501 420 C543 452 578 498 590 553 C613 662 540 749 432 749 C346 749 276 701 216 633 C212 628 208 622 207 616 C204 601 256 574 262 570 C269 565 276 561 283 561 C289 561 293 564 301 572 C315 589 333 608 357 619 C370 625 386 629 402 629 C454 629 477 589 467 545 C459 506 418 464 368 464 C353 464 343 457 340 443 L324 368 C321 353 328 347 342 347 C414 347 457 295 443 230 C427 155 359 110 290 110 L290 110 Z " />
<glyph glyph-name="four" unicode="4" horiz-adv-x="629" d="M406 119 L386 24 C383 8 390 0 405 0 L485 0 C502 0 512 8 515 24 L536 120 L594 120 C610 120 622 130 625 144 L642 223 C645 240 637 248 621 248 L563 248 L662 715 C666 733 656 742 642 742 L587 742 C557 742 551 741 530 716 C387 548 247 378 106 209 C86 184 68 165 63 145 C61 132 66 119 84 119 L406 119 Z M272 248 C347 336 419 424 494 512 L438 248 L272 248 Z " />
<glyph glyph-name="five" unicode="5" horiz-adv-x="588" d="M100 186 C88 180 84 174 83 171 C78 149 86 127 96 106 C124 43 178 -11 284 -11 C421 -11 565 102 595 245 C623 378 542 496 395 496 C365 496 329 488 297 475 C311 522 325 568 339 615 L601 615 C617 615 627 624 630 637 L647 719 C650 735 644 743 629 743 L609 743 C608 743 608 743 607 743 L272 743 C257 743 247 736 244 720 C208 601 171 481 134 362 C131 345 138 338 152 338 L196 338 C214 338 229 342 243 346 C289 360 318 375 358 375 C431 375 481 315 466 243 C449 164 377 113 308 113 C259 113 218 151 205 195 C202 204 200 215 189 215 C186 215 181 215 177 213 L100 186 Z " />
<glyph glyph-name="six" unicode="6" horiz-adv-x="609" d="M94 229 C72 92 163 -10 300 -10 C443 -10 582 103 612 244 C641 378 556 493 421 493 C413 493 405 493 397 492 C454 565 467 582 574 718 C577 722 580 730 581 732 C582 740 576 742 564 742 L467 742 C449 742 441 735 429 720 C339 604 248 489 158 373 C128 334 106 289 97 244 C96 239 95 234 94 229 L94 229 Z M227 243 C243 316 309 376 382 376 C454 376 494 316 478 243 C463 170 398 112 325 112 C252 112 212 170 227 243 L227 243 Z " />
<glyph glyph-name="seven" unicode="7" horiz-adv-x="594" d="M227 742 C212 742 200 733 197 718 L180 635 C176 618 184 610 199 610 L501 610 L75 28 C70 21 68 14 67 11 C65 4 70 0 83 0 L189 0 C204 0 214 9 221 19 C304 131 631 577 715 689 C721 697 726 705 729 716 C732 730 725 742 707 742 L227 742 Z " />
<glyph glyph-name="eight" unicode="8" horiz-adv-x="587" d="M332 549 C341 592 382 628 426 628 C469 628 497 592 488 549 C478 505 436 471 393 471 C349 471 322 505 332 549 L332 549 Z M224 236 C238 301 301 357 368 357 C434 357 474 301 460 236 C446 170 382 116 317 116 C251 116 210 170 224 236 L224 236 Z M90 234 C61 96 146 -10 290 -10 C434 -10 563 98 592 233 C609 312 585 380 533 424 C571 457 601 505 611 553 C634 661 561 751 452 751 C342 751 232 661 209 553 C199 505 208 458 230 424 C162 381 107 315 90 234 L90 234 Z " />
<glyph glyph-name="nine" unicode="9" horiz-adv-x="601" d="M661 512 C683 649 592 751 455 751 C312 751 172 638 142 497 C114 362 198 248 333 248 C342 248 350 248 359 249 C301 176 279 147 182 24 C178 19 176 12 175 9 C173 2 179 0 192 0 L289 0 C306 0 315 6 327 21 L598 368 C627 406 649 452 658 498 C659 502 660 507 661 512 L661 512 Z M527 498 C511 425 446 365 372 365 C300 365 260 425 275 498 C291 572 356 630 428 630 C502 630 543 572 527 498 L527 498 Z " />
<glyph glyph-name="colon" unicode="&#x3a;" horiz-adv-x="275" d="M149 420 C140 376 168 340 212 340 C258 340 301 376 310 420 C320 466 293 501 247 501 C203 501 159 466 149 420 L149 420 Z M74 68 C65 24 93 -13 137 -13 C183 -13 226 24 235 68 C245 113 218 149 172 149 C128 149 84 113 74 68 L74 68 Z " />
<glyph glyph-name="semicolon" unicode="&#x3b;" horiz-adv-x="292" d="M72 66 C64 28 86 -8 120 -15 L120 -16 C116 -40 92 -46 88 -66 C85 -81 109 -107 125 -107 C146 -107 212 -52 236 59 C247 113 219 148 172 148 C126 148 82 113 72 66 L72 66 Z M149 420 C140 376 169 340 213 340 C259 340 302 376 311 420 C321 466 293 501 247 501 C203 501 159 466 149 420 L149 420 Z " />
<glyph glyph-name="less" unicode="&#x3c;" horiz-adv-x="480" d="M114 295 C107 290 104 285 103 280 C102 275 103 271 107 265 L314 3 C317 -2 322 -4 328 -4 C333 -4 338 -2 343 3 L422 66 C428 72 432 77 433 84 C434 88 433 94 431 99 L288 280 L508 461 C512 467 516 472 517 477 C518 482 517 488 513 492 L463 556 C459 560 454 562 448 562 C442 562 436 560 431 557 L114 295 Z " />
<glyph glyph-name="equal" unicode="&#x3d;" horiz-adv-x="517" d="M112 162 C109 146 115 139 130 139 L461 139 C474 139 485 151 488 162 L503 234 C506 248 497 256 485 256 L155 256 C140 256 130 248 127 234 L112 162 Z M150 339 C146 323 153 316 168 316 L498 316 C512 316 523 328 525 339 L540 411 C543 425 535 433 523 433 L193 433 C178 433 168 425 165 411 L150 339 Z " />
<glyph glyph-name="greater" unicode="&#x3e;" horiz-adv-x="485" d="M183 472 C177 468 174 462 173 457 C172 452 173 447 175 441 L318 260 L98 79 C93 75 89 69 88 64 C87 58 89 52 93 46 L145 -17 C147 -22 151 -24 157 -24 C163 -24 169 -22 174 -17 L492 245 C499 251 502 255 503 260 C504 265 503 270 499 275 L292 537 C287 540 282 542 278 542 C271 542 265 540 260 536 L183 472 Z " />
<glyph glyph-name="question" unicode="&#x3f;" horiz-adv-x="568" d="M415 284 C434 372 615 359 656 551 C685 691 590 790 452 790 C319 790 183 692 153 552 L149 535 C147 526 150 515 167 515 L258 515 C271 515 283 523 286 537 L289 552 C302 609 366 663 426 663 C486 663 526 611 515 555 C489 434 311 434 283 303 L265 219 C262 207 268 194 283 194 L373 194 C385 194 398 204 401 219 L415 284 Z M217 66 C207 22 236 -14 280 -14 C327 -14 369 22 378 66 C388 111 361 147 314 147 C270 147 226 111 217 66 L217 66 Z " />
<glyph glyph-name="at" unicode="&#x40;" horiz-adv-x="971" d="M691 -58 C688 -54 685 -53 680 -53 L675 -54 C667 -57 659 -59 664 -60 C596 -95 544 -109 480 -109 C289 -109 153 54 195 251 C238 450 433 616 644 616 C814 616 923 489 888 324 C867 226 826 136 758 136 C741 136 730 138 736 169 L798 462 C801 476 794 485 777 485 L734 485 C714 485 710 481 702 462 L694 446 C694 445 692 443 692 442 C689 435 686 428 683 422 L682 421 C667 463 633 492 570 492 C437 490 315 386 287 254 C259 121 334 14 471 14 C548 14 593 34 625 63 C640 36 666 17 720 19 C866 19 952 145 991 329 C1042 567 871 720 660 721 C402 721 148 507 94 252 C40 -5 203 -212 459 -213 C543 -213 630 -188 709 -147 C716 -143 723 -137 725 -128 C727 -120 714 -98 710 -93 L710 -93 L691 -59 C691 -59 691 -58 691 -58 L691 -58 Z M413 253 C426 314 487 365 548 365 C610 365 647 314 634 253 C620 189 562 141 500 141 C439 141 399 189 413 253 L413 253 Z " />
<glyph glyph-name="A" unicode="A" horiz-adv-x="728" d="M450 726 C157 255 5 20 5 18 C2 6 7 0 23 0 L154 0 C163 0 171 5 176 15 L251 137 L548 137 L572 15 C573 3 578 0 591 0 L697 0 C720 0 726 10 728 20 L729 23 L581 726 C578 735 572 742 558 742 L483 742 C465 742 457 735 450 726 L450 726 Z M484 532 L529 268 L327 268 L484 532 Z " />
<glyph glyph-name="B" unicode="B" horiz-adv-x="678" d="M728 535 C731 551 733 565 733 580 C733 674 664 742 563 742 L266 742 C248 742 236 731 232 714 L86 26 C86 24 85 22 85 20 C85 7 94 0 108 0 L437 0 C568 0 703 128 703 263 C703 317 681 366 647 398 C687 433 717 481 728 535 L728 535 Z M476 324 C521 324 550 286 550 244 C550 185 492 129 435 129 L256 129 L297 324 L476 324 Z M580 533 C569 482 524 442 471 442 L323 442 L359 613 L508 613 C554 613 582 590 582 552 C582 546 581 539 580 533 L580 533 Z " />
<glyph glyph-name="C" unicode="C" horiz-adv-x="705" d="M785 688 C732 730 665 753 586 753 C350 753 114 536 114 290 C114 118 239 -11 423 -11 C503 -11 581 13 653 55 C663 61 671 67 671 79 C671 81 671 83 670 86 L639 169 C634 177 630 180 624 180 C619 180 613 179 607 175 C559 145 506 127 452 127 C336 127 265 206 265 314 C265 474 403 615 555 615 C609 615 655 597 689 567 C694 564 698 562 703 562 C709 562 716 566 724 574 L790 656 C794 661 795 667 795 671 C795 679 791 684 785 688 L785 688 Z " />
<glyph glyph-name="D" unicode="D" horiz-adv-x="745" d="M795 370 C800 397 803 423 803 448 C803 619 675 742 493 743 L263 743 C246 743 237 735 233 718 L85 20 C84 17 84 15 84 14 C84 0 96 0 105 0 L335 0 C546 0 750 159 795 370 L795 370 Z M453 608 C569 607 651 532 651 422 C651 258 500 136 353 136 L257 136 L357 608 L453 608 Z " />
<glyph glyph-name="E" unicode="E" horiz-adv-x="642" d="M85 21 C84 19 84 17 84 15 C84 5 92 0 103 0 L598 0 C612 0 621 6 624 21 L643 112 C644 116 645 119 645 122 C645 132 640 136 626 136 L257 136 L296 318 L571 318 C585 318 594 329 597 341 L616 432 C616 434 617 437 617 439 C617 449 611 454 601 454 C600 454 600 454 599 454 L325 454 L357 606 L712 606 C729 606 740 617 742 629 L761 717 C761 720 762 722 762 725 C762 735 756 742 742 742 L260 742 C246 742 237 735 233 718 L85 21 Z " />
<glyph glyph-name="F" unicode="F" horiz-adv-x="627" d="M85 21 C84 19 84 17 84 15 C84 5 92 0 103 0 L206 0 C221 0 229 6 232 21 L286 274 L554 274 C569 274 578 285 580 297 L599 387 C600 389 600 391 600 393 C600 405 592 409 581 409 L315 409 L357 606 L705 606 C722 606 733 617 735 629 L754 717 C754 720 755 722 755 725 C755 735 749 742 735 742 L260 742 C246 742 237 735 233 718 L85 21 Z " />
<glyph glyph-name="G" unicode="G" horiz-adv-x="726" d="M575 154 C551 141 500 125 450 125 C335 125 255 207 255 318 C255 470 397 617 556 617 C610 617 662 598 697 569 C702 565 708 563 712 563 C731 563 805 655 805 665 C805 687 749 715 719 728 C679 744 633 753 586 753 C349 753 114 535 114 290 C114 118 239 -11 423 -11 C506 -11 596 14 667 58 C686 72 686 77 687 80 C687 80 687 81 687 81 L735 310 C736 312 736 313 736 315 C736 326 726 332 717 332 L635 332 C621 332 611 323 608 310 L575 154 Z " />
<glyph glyph-name="H" unicode="H" horiz-adv-x="773" d="M85 22 C85 19 84 17 84 14 C84 5 90 0 102 0 L203 0 C217 0 230 9 233 22 L297 325 L628 325 L564 22 C563 20 563 18 563 17 C563 5 572 0 582 0 L681 0 C698 0 708 7 711 22 L860 720 C860 721 860 723 860 724 C860 735 850 742 839 742 L740 742 C727 742 715 732 712 720 L657 462 L326 462 L381 720 C381 721 382 723 382 724 C382 734 372 742 363 742 L259 742 C247 742 236 730 234 720 L85 22 Z " />
<glyph glyph-name="I" unicode="I" horiz-adv-x="309" d="M85 22 C85 19 84 17 84 15 C84 5 91 0 103 0 L204 0 C220 0 230 7 233 22 L381 720 C381 721 382 722 382 724 C382 735 370 742 361 742 L260 742 C246 742 236 732 234 720 L85 22 Z " />
<glyph glyph-name="J" unicode="J" horiz-adv-x="455" d="M169 -11 C275 -11 381 70 418 173 C423 187 427 203 430 219 L535 713 C536 716 536 719 536 721 C536 735 527 742 513 742 L419 742 C402 742 391 732 388 716 L277 197 C269 160 232 129 194 129 C137 129 130 168 113 168 C108 168 100 165 91 157 L29 101 C20 93 14 84 14 73 C14 70 15 69 16 67 C47 15 103 -11 169 -11 L169 -11 Z " />
<glyph glyph-name="K" unicode="K" horiz-adv-x="734" d="M85 22 C85 19 84 17 84 15 C84 5 91 0 103 0 L204 0 C221 0 230 7 233 22 L276 227 L380 315 L551 15 C556 5 563 0 570 0 L706 0 C713 0 717 2 717 7 C717 10 716 14 713 20 L492 414 L835 726 C840 730 843 733 844 736 C844 740 840 742 831 742 L688 742 C681 742 672 737 663 727 L318 423 L381 720 C381 721 382 722 382 724 C382 735 370 742 362 742 L260 742 C246 742 236 732 234 720 L85 22 Z " />
<glyph glyph-name="L" unicode="L" horiz-adv-x="574" d="M85 22 C85 19 84 17 84 15 C84 5 91 0 103 0 L520 0 C535 1 544 9 547 22 L566 113 C567 115 567 117 567 119 C567 130 559 136 549 136 L257 136 L381 721 C381 723 381 725 381 726 C381 737 375 743 364 743 L262 743 C248 743 236 733 234 721 L85 22 Z " />
<glyph glyph-name="M" unicode="M" horiz-adv-x="926" d="M516 16 C526 16 540 30 548 40 L800 474 L752 26 C751 24 751 22 751 20 C751 7 759 0 774 0 L865 0 C881 0 893 9 897 26 L972 716 C972 730 966 742 950 742 L834 742 C821 742 808 735 800 719 L800 719 L509 235 C475 563 458 644 447 720 C445 733 438 742 425 742 L308 742 C292 742 279 730 275 716 L57 28 C57 24 56 21 56 19 C56 6 63 0 78 0 L169 0 C187 0 198 10 203 26 L344 474 C366 329 390 183 412 37 C415 29 423 16 432 16 L516 16 Z " />
<glyph glyph-name="N" unicode="N" horiz-adv-x="791" d="M85 22 C82 7 88 0 103 0 L204 0 C220 0 228 7 230 22 L335 536 L577 16 C583 7 587 0 594 0 L701 0 C717 0 727 7 730 22 L878 720 C881 733 868 742 858 742 L757 742 C750 742 739 739 732 727 L634 243 L404 727 C400 737 388 742 378 742 L260 742 C246 742 236 732 234 720 L85 22 Z " />
<glyph glyph-name="O" unicode="O" horiz-adv-x="853" d="M271 370 C300 506 420 615 555 615 C671 615 742 535 742 427 C742 267 604 127 452 127 C336 127 265 206 265 314 C265 332 267 351 271 370 L271 370 Z M122 370 C116 343 114 316 114 290 C114 118 239 -11 423 -11 C659 -11 895 204 895 450 C895 623 769 753 586 753 C374 753 167 582 122 370 L122 370 Z " />
<glyph glyph-name="P" unicode="P" horiz-adv-x="648" d="M86 26 C82 9 91 0 108 0 L202 0 C219 0 230 9 234 26 L285 266 L448 266 C582 266 702 380 728 503 C755 629 681 742 546 742 L266 742 C248 742 236 731 232 714 L86 26 Z M579 504 C567 448 512 396 451 396 L313 396 L359 612 L497 612 C558 612 590 558 579 504 L579 504 Z " />
<glyph glyph-name="Q" unicode="Q" horiz-adv-x="853" d="M124 370 C118 342 115 314 115 287 C115 138 206 22 351 -5 L324 -133 C323 -136 323 -138 323 -140 C323 -150 329 -155 341 -155 L443 -155 C459 -155 468 -148 471 -133 L499 -5 C708 30 897 229 897 450 C897 623 771 753 587 753 C376 753 169 582 124 370 L124 370 Z M272 370 C301 506 421 615 557 615 C672 615 744 535 744 427 C744 267 605 127 453 127 C337 127 266 206 266 314 C266 332 268 351 272 370 L272 370 Z " />
<glyph glyph-name="R" unicode="R" horiz-adv-x="687" d="M85 21 C82 6 91 0 103 0 L206 0 C221 0 229 6 232 21 L283 259 L445 259 L504 15 C505 5 511 0 520 0 L632 0 C648 0 655 6 657 18 C658 20 657 22 657 23 L587 290 C668 332 733 409 752 499 C780 632 699 742 562 742 L260 742 C246 742 237 735 233 718 L85 21 Z M610 500 C598 444 551 395 486 395 L312 395 L357 606 L528 606 C590 606 621 551 610 500 L610 500 Z " />
<glyph glyph-name="S" unicode="S" horiz-adv-x="641" d="M619 544 C630 544 662 570 686 592 L686 591 L704 607 C712 615 718 622 720 631 C723 649 690 682 663 702 C617 735 556 755 495 755 C336 755 214 671 187 547 C164 436 231 373 384 324 C450 304 522 282 509 223 C497 164 432 125 358 125 C305 125 238 163 203 209 C198 216 192 224 182 224 C170 224 135 197 112 179 L101 170 L92 163 C83 155 77 148 76 141 C74 134 76 127 82 118 C134 41 224 -10 327 -10 C487 -10 633 83 664 229 C692 363 573 413 456 452 C388 474 327 496 337 544 C346 588 395 623 469 623 C528 623 574 580 596 557 C604 548 610 544 619 544 L619 544 Z " />
<glyph glyph-name="T" unicode="T" horiz-adv-x="611" d="M155 632 C151 616 161 606 174 606 L356 606 L232 25 C230 13 243 0 252 0 L352 0 C364 0 378 15 380 25 L503 606 L685 606 C701 606 713 618 716 632 L735 720 C736 735 726 742 714 742 L203 742 C190 742 176 732 174 720 L155 632 Z " />
<glyph glyph-name="U" unicode="U" horiz-adv-x="752" d="M370 720 C373 732 361 742 352 742 L248 742 C236 742 225 730 223 720 L132 293 C96 125 204 -12 373 -12 C541 -12 708 125 743 293 L834 720 C837 733 826 742 814 742 L715 742 C701 742 689 732 687 720 L596 293 C576 200 495 123 402 123 C308 123 260 200 279 293 L370 720 Z " />
<glyph glyph-name="V" unicode="V" horiz-adv-x="718" d="M329 719 C328 734 319 742 304 742 L207 742 C191 742 181 735 178 722 C176 712 179 708 302 49 C306 24 310 0 333 0 L399 0 C421 0 433 21 442 34 L859 710 C859 712 862 718 863 721 C866 734 858 742 841 742 L742 742 C728 742 713 729 703 717 C611 559 489 367 403 220 L329 719 Z " />
<glyph glyph-name="W" unicode="W" horiz-adv-x="1065" d="M407 216 L334 718 C331 734 322 742 309 742 L205 742 C182 742 180 731 176 712 C217 491 262 258 304 35 C304 25 308 0 332 0 L405 0 C424 0 440 18 450 37 L592 268 C608 188 625 100 640 20 C640 10 647 0 665 0 L741 0 C760 0 771 17 774 23 C1062 483 1133 597 1204 712 C1205 715 1207 721 1207 727 C1207 736 1201 742 1185 742 L1077 742 C1060 742 1048 733 1041 720 C782 288 760 253 739 216 L708 453 L862 711 C866 719 866 724 866 728 C866 737 860 742 846 742 L729 742 C714 742 704 735 697 723 L407 216 Z " />
<glyph glyph-name="X" unicode="X" horiz-adv-x="708" d="M506 355 L825 712 C833 720 835 728 836 732 C836 740 827 742 814 742 L707 742 C693 741 679 734 666 720 L449 479 L351 713 C342 731 336 742 318 742 L226 742 C211 742 200 738 200 725 C200 721 202 716 204 711 C274 563 317 469 360 375 L63 40 C53 30 43 17 43 11 C43 4 48 0 58 0 L176 0 C188 0 202 9 212 20 C280 98 348 174 416 251 C451 175 489 96 524 20 C528 8 538 0 551 0 L650 0 C662 0 668 6 668 16 C668 21 667 27 664 34 L506 355 Z " />
<glyph glyph-name="Y" unicode="Y" horiz-adv-x="684" d="M347 314 L286 28 C285 25 285 22 285 19 C285 6 292 0 305 0 L401 0 C419 0 431 9 435 28 L495 315 L816 713 C822 720 826 727 826 733 C826 739 822 742 814 742 L684 742 C674 741 671 740 657 723 L440 450 L360 721 C352 741 351 740 339 742 L211 742 C202 742 192 736 192 727 C192 724 195 713 196 711 L347 314 Z " />
<glyph glyph-name="Z" unicode="Z" horiz-adv-x="677" d="M602 0 C618 0 633 15 636 29 C653 112 654 115 654 117 C654 130 644 137 631 137 L269 137 L756 624 C762 631 763 635 765 642 C781 717 781 719 781 721 C781 734 771 742 758 742 L222 742 C205 742 192 732 189 715 C170 630 170 627 170 625 C170 612 178 605 193 605 L550 605 L64 121 C57 115 55 109 54 104 L37 22 C34 9 47 0 60 0 L602 0 Z " />
<glyph glyph-name="bracketleft" unicode="&#x5b;" horiz-adv-x="296" d="M49 -94 C45 -111 53 -120 70 -120 L244 -120 C261 -120 272 -111 276 -94 L293 -15 C297 2 287 13 272 13 L212 13 L364 727 L424 727 C440 727 453 737 457 755 L473 835 C477 851 469 860 453 861 L279 861 C262 861 250 852 246 835 L49 -94 Z " />
<glyph glyph-name="backslash" unicode="&#x5c;" horiz-adv-x="527" d="M335 19 C338 5 344 0 357 0 L458 0 C471 0 477 3 479 11 C479 13 479 15 479 21 L326 720 C323 735 316 742 300 742 L207 742 C197 742 184 739 181 727 C181 724 180 721 181 719 C233 485 284 253 335 19 L335 19 Z " />
<glyph glyph-name="bracketright" unicode="&#x5d;" horiz-adv-x="323" d="M438 835 C442 852 434 861 417 861 L244 861 C227 860 215 851 211 835 L195 755 C191 737 200 727 215 727 L275 727 L123 13 L63 13 C49 13 35 2 31 -15 L14 -94 C11 -111 19 -120 35 -120 L208 -120 C225 -120 237 -111 241 -94 L438 835 Z " />
<glyph glyph-name="asciicircum" unicode="&#x5e;" horiz-adv-x="488" d="M193 639 C188 635 183 629 182 623 C180 616 183 612 187 607 L221 564 C225 559 229 555 236 555 C242 555 246 558 252 562 L386 673 L472 562 C476 557 479 555 486 555 C493 555 499 559 505 564 L549 600 C557 608 568 613 570 623 C571 629 568 635 565 639 L429 811 C426 815 422 818 417 818 C411 818 406 815 401 811 L193 639 Z " />
<glyph glyph-name="underscore" unicode="&#x5f;" horiz-adv-x="451" d="M18 -39 C0 -39 -10 -49 -14 -66 L-28 -131 C-32 -150 -25 -160 -7 -160 L395 -160 C411 -160 424 -144 427 -131 L441 -66 C445 -49 436 -39 421 -39 L18 -39 Z " />
<glyph glyph-name="grave" unicode="&#x60;" horiz-adv-x="258" d="M230 608 C233 593 240 587 252 587 L323 587 C336 587 341 591 343 600 C343 605 343 610 341 619 L319 721 C314 736 309 742 296 742 L221 742 C213 742 207 740 205 732 C204 727 204 722 207 713 L230 608 Z " />
<glyph glyph-name="a" unicode="a" horiz-adv-x="594" d="M425 27 C425 11 428 0 448 0 L512 0 C527 0 542 9 546 25 L639 464 C643 480 631 491 616 491 L562 491 C543 491 539 485 529 463 L510 415 C495 457 463 498 388 498 C245 498 123 389 92 244 C62 101 138 -10 280 -10 L283 -10 C356 -10 396 29 428 65 C427 52 427 40 425 27 L425 27 Z M223 243 C238 315 297 376 371 376 C446 376 479 315 464 242 C448 168 389 111 315 111 C242 111 207 169 223 243 L223 243 Z " />
<glyph glyph-name="b" unicode="b" horiz-adv-x="593" d="M85 25 C82 10 88 1 104 0 L143 0 C165 0 187 -2 199 22 C204 34 209 48 215 62 C238 14 274 -10 337 -10 C468 -10 593 103 623 243 C653 384 581 497 445 497 C386 497 340 471 305 436 L365 717 C368 732 361 742 343 742 L266 742 C252 742 236 732 233 717 L85 25 Z M250 241 L250 242 C266 315 335 375 401 375 C467 375 505 315 489 242 C474 169 408 110 342 110 C277 110 235 169 250 241 L250 241 Z " />
<glyph glyph-name="c" unicode="c" horiz-adv-x="511" d="M318 115 C246 115 202 167 219 243 C234 316 304 378 378 378 C410 378 443 364 463 346 C468 342 473 339 477 339 C484 339 490 343 495 349 L548 416 C550 418 553 424 554 427 C556 438 551 445 541 452 C502 482 456 501 403 501 C262 501 123 386 92 244 C62 102 154 -11 294 -11 C352 -11 409 11 459 40 C467 45 478 51 481 63 C481 65 480 70 479 74 L455 127 C451 137 447 147 438 147 C434 147 427 145 422 142 C386 127 358 116 318 115 L318 115 Z " />
<glyph glyph-name="d" unicode="d" horiz-adv-x="594" d="M681 717 C684 732 672 742 658 742 L581 742 C563 742 552 732 549 717 L489 436 C469 471 440 497 377 497 C236 497 118 384 88 243 C58 103 130 -10 267 -10 C335 -10 376 14 420 62 C419 37 414 8 431 3 C441 1 453 0 465 0 L504 0 C521 1 531 10 534 25 L681 717 Z M462 242 L461 241 C445 169 383 110 313 110 C237 110 207 169 223 242 C238 315 294 375 369 375 C440 375 477 315 462 242 L462 242 Z " />
<glyph glyph-name="e" unicode="e" horiz-adv-x="532" d="M317 107 C267 107 218 146 224 204 L495 204 C537 204 572 213 581 260 C606 386 532 501 385 501 C262 501 123 382 93 244 C63 102 155 -12 294 -12 C351 -12 409 4 458 37 C467 43 477 51 479 61 C479 64 479 69 477 74 L450 136 C446 143 442 145 436 145 C429 145 418 136 406 131 C377 116 345 106 317 107 L317 107 Z M243 290 C260 341 320 382 369 382 C429 382 468 346 458 290 L243 290 Z " />
<glyph glyph-name="f" unicode="f" horiz-adv-x="341" d="M-12 -204 C90 -203 183 -135 214 -35 C219 -21 222 -5 226 10 L305 383 L357 383 C373 383 386 395 389 412 L400 464 C401 467 401 470 401 472 C401 485 393 491 380 491 L327 491 L343 564 C352 608 383 626 421 626 C435 626 446 638 449 652 L464 721 C464 724 464 726 464 729 C464 741 457 749 442 749 C336 749 238 685 215 578 L197 491 L157 491 C141 491 129 483 125 464 L114 412 C113 409 113 406 113 403 C113 390 121 383 134 383 L173 383 L87 -21 C79 -57 45 -87 12 -89 L10 -89 C-4 -89 -17 -98 -20 -114 L-33 -178 C-34 -180 -34 -183 -34 -185 C-34 -197 -26 -204 -12 -204 L-12 -204 Z " />
<glyph glyph-name="g" unicode="g" horiz-adv-x="596" d="M392 -10 C371 -55 313 -81 267 -81 C240 -81 197 -76 176 -52 C169 -46 163 -43 157 -43 C150 -43 143 -47 135 -54 L83 -108 C76 -115 73 -122 71 -128 C69 -139 73 -148 79 -153 C116 -194 190 -209 245 -209 C388 -209 517 -120 551 39 L641 462 C645 480 631 490 617 490 L559 490 C539 490 534 479 524 462 L499 416 C497 460 450 497 386 497 C247 497 122 386 92 245 C61 103 142 1 281 1 C343 1 389 39 418 77 C413 54 402 7 392 -10 L392 -10 Z M230 245 C244 311 300 367 367 367 C433 367 476 308 462 244 C448 179 381 124 315 124 C248 124 216 177 230 245 L230 245 Z " />
<glyph glyph-name="h" unicode="h" horiz-adv-x="614" d="M358 718 C361 735 352 742 337 742 L256 742 C239 742 229 732 226 718 L78 23 C75 8 82 0 100 0 L174 0 C188 0 205 3 210 22 L264 276 C277 340 358 374 407 374 C461 374 493 330 482 277 L428 24 C425 8 429 0 447 0 L530 0 C544 0 556 9 560 25 L613 277 C614 281 615 285 615 288 C636 406 587 498 465 498 C402 498 330 462 297 432 L358 718 Z " />
<glyph glyph-name="i" unicode="i" horiz-adv-x="288" d="M306 467 C309 481 298 491 286 491 L202 491 C187 491 177 481 174 467 L79 23 C76 8 83 0 98 0 L182 0 C198 0 208 8 211 23 L306 467 Z M198 637 C189 595 216 561 258 561 C302 561 342 595 351 637 C360 680 334 714 290 714 C248 714 207 680 198 637 L198 637 Z " />
<glyph glyph-name="j" unicode="j" horiz-adv-x="282" d="M-24 -204 C78 -203 171 -135 202 -35 C207 -21 210 -5 214 10 L310 465 C314 480 305 491 289 491 L210 491 C195 491 182 482 178 465 L75 -21 C67 -57 34 -87 0 -89 L-2 -89 C-16 -89 -28 -98 -32 -114 L-45 -178 C-49 -194 -41 -204 -24 -204 L-24 -204 Z M203 637 C194 595 221 561 263 561 C307 561 347 595 356 637 C365 680 339 714 295 714 C253 714 212 680 203 637 L203 637 Z " />
<glyph glyph-name="k" unicode="k" horiz-adv-x="573" d="M80 25 C80 24 81 0 100 0 L188 0 C209 0 218 21 220 29 L246 154 L299 198 L386 20 C393 6 399 0 407 0 L537 0 C550 0 557 3 560 15 C561 21 560 28 554 35 L555 35 L411 290 L604 457 C612 463 613 466 614 472 C616 482 610 488 597 488 L479 488 C469 488 461 485 452 477 L281 323 L365 717 C367 727 366 742 346 742 L262 742 C232 742 230 730 226 713 L80 25 Z " />
<glyph glyph-name="l" unicode="l" horiz-adv-x="282" d="M362 714 C366 731 352 743 340 743 L260 743 C242 743 230 731 226 714 L80 27 C77 10 84 0 102 0 L182 0 C200 0 213 10 216 27 L362 714 Z " />
<glyph glyph-name="m" unicode="m" horiz-adv-x="904" d="M207 491 C195 491 177 478 173 460 L81 27 C77 11 85 0 104 0 L189 0 C204 0 217 11 220 26 L274 280 C284 329 342 367 388 367 C435 367 458 336 446 282 L393 28 C389 10 395 0 414 0 L497 0 C514 0 528 10 532 29 L585 278 C596 328 657 367 704 367 C751 367 764 327 753 277 L701 28 C697 10 706 0 727 0 L802 0 C820 0 835 11 839 29 L885 245 C888 261 891 275 894 290 C914 406 880 498 745 498 C685 498 618 464 576 418 C559 460 514 495 445 495 C381 495 329 460 294 427 C295 450 296 491 273 491 L207 491 Z " />
<glyph glyph-name="n" unicode="n" horiz-adv-x="614" d="M262 491 L208 491 C188 491 176 480 171 461 L79 27 C76 11 83 0 103 0 L183 0 C203 0 215 10 218 27 L272 279 C290 327 353 366 396 366 C448 366 479 330 467 276 L415 28 C411 10 416 0 437 0 L519 0 C535 0 550 11 554 29 L611 299 C636 414 583 497 459 497 C394 497 331 462 293 427 C292 462 302 491 262 491 L262 491 Z " />
<glyph glyph-name="o" unicode="o" horiz-adv-x="585" d="M76 244 C46 102 137 -11 281 -11 C424 -11 564 102 594 244 C624 386 532 501 389 501 C245 501 106 386 76 244 L76 244 Z M209 243 C224 314 292 374 363 374 C434 374 477 314 462 243 C446 171 379 113 308 113 C236 113 194 171 209 243 L209 243 Z " />
<glyph glyph-name="p" unicode="p" horiz-adv-x="591" d="M41 -169 C37 -187 49 -199 67 -199 L142 -199 C162 -199 176 -186 180 -169 L225 47 C246 19 281 -4 332 -4 C468 -4 591 108 621 249 C651 389 574 502 441 502 C382 502 338 476 296 434 L297 467 C295 492 279 493 258 493 L209 493 C191 492 179 480 175 463 L41 -169 Z M256 252 C270 319 334 374 395 374 C457 374 495 319 480 250 C466 181 404 125 342 125 C280 125 241 181 256 252 L256 252 Z " />
<glyph glyph-name="q" unicode="q" horiz-adv-x="585" d="M634 463 C637 480 630 492 612 493 L563 493 C542 493 526 492 513 467 L500 434 C476 476 443 502 384 502 C251 502 126 389 97 249 C67 108 142 -4 278 -4 C329 -4 374 19 406 47 L360 -168 C357 -185 365 -197 385 -197 L461 -197 C478 -197 496 -185 499 -168 L634 463 Z M463 252 C448 181 385 125 323 125 C261 125 223 181 238 250 C252 319 314 374 376 374 C437 374 477 319 463 252 L463 252 Z " />
<glyph glyph-name="r" unicode="r" horiz-adv-x="474" d="M288 465 C287 478 284 491 267 491 L210 491 C197 491 182 482 178 466 L85 25 C81 8 89 0 106 0 L183 0 C201 0 211 8 215 25 L269 278 C278 324 324 375 383 375 C401 375 412 368 429 357 C439 350 450 345 455 345 C463 345 471 350 479 359 L533 424 C537 429 540 434 541 438 C545 460 485 492 449 496 C444 497 437 497 430 497 C373 497 321 456 290 424 L288 465 Z " />
<glyph glyph-name="s" unicode="s" horiz-adv-x="470" d="M492 399 C504 409 506 423 496 437 C463 484 402 501 341 501 C229 501 139 442 120 356 C105 282 144 235 259 203 C308 189 346 178 340 149 C334 120 300 100 247 100 C223 100 185 116 159 146 C154 151 146 159 138 159 C133 159 127 157 120 152 L67 110 C60 104 55 97 54 90 C52 83 54 76 58 69 C93 17 157 -12 225 -12 C339 -12 445 48 467 149 C487 246 411 274 329 299 C287 311 236 318 243 350 C248 374 267 393 317 393 C360 393 386 364 405 352 C410 349 417 341 429 351 L492 399 Z " />
<glyph glyph-name="t" unicode="t" horiz-adv-x="328" d="M186 491 L159 491 C139 491 128 481 124 462 L112 407 C108 386 115 376 135 376 L162 376 L88 29 C84 10 92 0 112 0 L189 0 C209 0 223 10 227 29 L300 376 L360 376 C377 376 390 386 395 407 L406 462 C410 481 401 491 385 491 L325 491 L356 637 C360 654 357 667 338 667 C336 667 334 667 331 666 L252 655 C231 653 218 642 215 626 L186 491 Z " />
<glyph glyph-name="u" unicode="u" horiz-adv-x="608" d="M453 0 L507 0 C528 0 540 11 544 30 L636 463 C639 479 632 491 613 491 L532 491 C512 491 501 481 497 463 L443 211 C433 160 354 125 311 125 C259 125 233 160 244 214 L297 462 C301 481 296 491 275 491 L193 491 C177 491 162 480 158 461 L100 191 C76 76 124 -6 248 -6 C313 -6 380 25 418 60 C420 25 413 0 453 0 L453 0 Z " />
<glyph glyph-name="v" unicode="v" horiz-adv-x="543" d="M269 468 C267 482 259 491 242 491 L151 491 C127 491 116 473 120 452 L200 41 C204 21 208 0 232 0 L306 0 C323 0 337 15 347 31 L611 455 C611 456 615 463 616 468 C619 483 613 491 594 491 L505 491 C488 491 476 484 467 469 L309 192 L269 468 Z " />
<glyph glyph-name="w" unicode="w" horiz-adv-x="813" d="M275 468 C272 482 263 491 247 491 L156 491 C137 491 122 477 125 457 L202 38 C205 21 208 0 233 0 L307 0 C326 0 338 16 344 26 L445 190 L473 41 C475 32 479 0 504 0 L583 0 C598 0 611 21 617 29 L879 457 C881 461 884 466 885 470 C888 484 879 491 862 491 L771 491 C757 491 741 483 731 465 L581 199 L554 369 L604 457 C614 475 606 491 584 491 L504 491 C484 491 473 481 463 465 L313 200 L275 468 Z " />
<glyph glyph-name="x" unicode="x" horiz-adv-x="527" d="M146 0 C158 0 169 7 180 19 L293 153 C309 112 326 72 343 31 C353 12 355 0 374 0 L491 0 C511 0 509 15 503 29 L395 256 C477 346 515 388 589 467 C593 472 597 478 598 481 C600 488 593 491 582 491 L475 491 C465 491 454 489 442 474 L333 345 L289 458 C278 486 268 491 240 491 L150 491 C130 491 125 480 134 464 L234 256 L22 21 C13 11 11 0 28 0 L146 0 Z " />
<glyph glyph-name="y" unicode="y" horiz-adv-x="559" d="M629 448 C634 457 636 463 637 466 C640 481 635 491 614 491 L528 491 C511 491 499 484 490 469 L320 175 L273 468 L273 467 C272 481 263 491 246 491 L159 491 C136 491 123 475 127 453 L215 5 L120 -164 C109 -182 115 -198 138 -198 L223 -198 C238 -198 249 -187 256 -176 L629 448 Z " />
<glyph glyph-name="z" unicode="z" horiz-adv-x="517" d="M145 399 C140 377 150 367 169 367 L376 367 C290 290 164 183 79 107 C71 100 69 93 68 86 L57 33 C53 16 64 0 81 0 L451 0 C470 0 486 17 489 33 L501 93 C506 114 496 124 477 124 L268 124 L553 377 C559 383 560 390 561 394 L575 461 C580 481 567 491 551 491 L196 491 C177 491 162 479 158 461 L145 399 Z " />
<glyph glyph-name="braceleft" unicode="&#x7b;" horiz-adv-x="357" d="M504 890 C386 883 281 788 255 668 L218 494 C213 472 207 446 181 446 L153 446 C136 446 124 436 121 419 L101 327 C97 308 105 299 122 299 L152 299 C174 299 171 271 167 252 L128 70 C101 -57 174 -145 295 -152 C314 -152 326 -141 330 -124 L350 -27 C354 -9 338 5 321 5 C295 5 266 33 274 72 L324 307 C329 332 322 354 307 373 C329 392 347 416 352 438 L401 670 C409 707 449 739 484 739 L486 739 C502 739 516 752 519 768 L539 863 C543 880 535 890 515 891 C511 891 507 890 504 890 L504 890 Z " />
<glyph glyph-name="bar" unicode="&#x7c;" horiz-adv-x="293" d="M39 -174 C35 -191 42 -200 60 -200 L143 -200 C162 -200 174 -191 177 -174 L368 726 C372 742 359 753 346 753 L263 753 C245 753 233 741 230 726 L39 -174 Z " />
<glyph glyph-name="braceright" unicode="&#x7d;" horiz-adv-x="360" d="M230 890 C227 890 223 891 219 891 C199 890 187 880 183 863 L163 768 C159 752 168 739 184 739 L186 739 C221 739 247 707 239 670 L190 438 C186 416 193 392 207 373 C184 354 168 332 162 307 L112 72 C104 33 63 5 37 5 C20 5 -2 -9 -6 -27 L-26 -124 C-30 -141 -22 -152 -4 -152 C120 -145 230 -57 257 70 L296 252 C300 271 309 299 331 299 L361 299 C378 299 390 308 394 327 L413 419 C417 436 409 446 392 446 L364 446 C338 446 343 472 348 494 L385 668 C410 788 345 883 230 890 L230 890 Z " />
<glyph glyph-name="asciitilde" unicode="&#x7e;" horiz-adv-x="659" d="M187 197 C197 197 219 226 229 235 C245 249 265 257 286 257 C301 257 315 252 327 244 L363 216 C390 194 424 181 459 181 C529 181 580 210 642 271 C645 275 657 285 659 295 C663 315 602 356 594 356 C589 356 582 354 578 349 L551 322 C536 304 509 294 488 294 C457 294 434 316 411 335 C383 356 349 370 314 370 C254 370 198 346 147 295 L127 275 C122 269 115 260 114 256 C110 237 160 203 172 197 C174 196 177 196 179 196 C182 196 185 196 187 197 L187 197 Z " />
<glyph glyph-name="exclamdown" unicode="&#xa1;" horiz-adv-x="248" d="M20 -236 C17 -253 24 -263 41 -263 L132 -263 C151 -263 163 -253 167 -236 L267 235 C270 252 260 262 244 262 L153 262 C136 262 124 252 120 235 L20 -236 Z M312 413 C321 457 293 493 249 493 C203 493 160 457 151 413 C141 368 168 332 214 332 C258 332 302 368 312 413 L312 413 Z " />
<glyph glyph-name="cent" unicode="&#xa2;" horiz-adv-x="488" d="M302 116 C240 116 209 180 223 245 C238 317 302 377 367 377 C397 377 424 367 445 350 C451 345 459 337 465 337 C470 337 476 335 491 351 L535 406 L537 409 C545 418 547 422 548 426 C555 459 478 488 439 496 L451 553 C453 566 444 578 430 578 L352 578 C336 578 324 567 321 553 L308 489 C203 452 115 362 91 246 C67 132 114 37 205 5 L189 -66 C186 -83 193 -92 210 -92 L288 -92 C304 -92 316 -82 319 -66 L332 -5 C382 6 465 40 471 69 C473 77 457 110 451 125 C442 145 439 152 423 152 C418 152 406 145 398 141 C366 125 333 116 302 116 L302 116 Z " />
<glyph glyph-name="sterling" unicode="&#xa3;" horiz-adv-x="600" d="M304 410 L322 495 C338 572 413 624 488 624 C542 624 570 599 595 577 C601 574 606 572 608 572 C612 572 619 576 625 582 L688 654 C694 662 697 669 698 672 C699 679 697 684 689 692 C645 730 591 755 511 755 C356 755 207 633 174 477 L77 23 C74 7 81 0 97 0 L530 0 C544 0 556 14 559 25 L578 115 C581 130 573 139 559 139 L247 139 L279 290 L406 290 C421 290 433 302 436 316 L451 387 C454 402 445 410 431 410 L304 410 Z " />
<glyph glyph-name="currency" unicode="&#xa4;" horiz-adv-x="539" d="M241 266 C251 313 296 351 343 351 C391 351 420 313 410 266 C400 219 355 181 307 181 C260 181 231 219 241 266 L241 266 Z M154 403 C148 398 144 392 143 386 C141 380 143 376 146 371 L188 318 C178 297 170 279 168 266 C165 252 164 234 165 213 L101 160 C97 157 94 151 93 146 C91 137 92 132 96 128 L146 65 C149 59 154 57 160 57 C165 57 170 59 177 65 L240 117 C260 112 277 109 292 109 C305 109 323 112 345 117 L388 65 C391 61 396 59 401 59 C409 59 415 61 420 66 L498 129 C504 134 507 139 508 145 C509 150 508 155 504 160 L462 213 C472 234 480 252 483 266 C485 279 486 297 485 318 L549 371 C556 377 559 381 560 387 C561 392 560 397 556 402 L505 466 C501 472 496 474 489 474 C484 474 479 472 473 467 L408 414 C389 420 372 423 359 423 C344 423 326 420 304 414 L262 467 C258 473 253 475 247 475 C243 475 238 473 231 467 L154 403 Z " />
<glyph glyph-name="yen" unicode="&#xa5;" horiz-adv-x="650" d="M467 230 L477 274 L592 274 C607 274 619 288 622 300 L631 343 C634 359 625 367 612 367 L536 367 L736 627 L766 664 L806 713 C811 718 815 725 816 729 C818 737 814 742 805 742 L674 742 C665 741 661 740 647 723 L437 435 C419 488 405 555 388 609 L356 707 C346 740 342 741 329 742 L202 742 C192 742 184 736 182 728 C182 725 184 720 185 714 C185 714 186 712 186 711 L186 711 L308 367 L245 367 C229 367 219 359 215 343 L206 300 C203 282 209 274 225 274 L329 274 L319 230 L215 230 C200 230 190 221 186 206 L177 162 C173 145 180 136 196 136 L300 136 L277 28 C273 10 280 0 296 0 L391 0 C409 0 421 9 425 28 L448 136 L563 136 C578 136 590 151 593 162 L602 206 C605 221 596 230 583 230 L467 230 Z " />
<glyph glyph-name="brokenbar" unicode="&#xa6;" horiz-adv-x="248" d="M158 365 C155 351 161 343 175 343 L261 343 C277 343 287 351 290 365 L369 738 C372 751 362 760 350 760 L264 760 C250 760 240 750 237 738 L158 365 Z M41 -187 C38 -202 44 -209 58 -209 L144 -209 C160 -209 169 -202 172 -187 L252 186 C254 199 244 208 232 208 L147 208 C132 208 123 198 120 186 L41 -187 Z " />
<glyph glyph-name="section" unicode="&#xa7;" horiz-adv-x="587" d="M537 611 C545 601 549 592 562 592 C575 592 597 605 614 617 C615 618 616 618 618 620 C627 627 635 635 637 644 C639 652 624 686 598 709 C562 741 510 761 456 761 C339 761 231 689 208 583 C198 535 215 500 244 476 C201 448 171 409 161 362 C145 287 188 245 297 208 L322 200 C377 184 419 171 412 136 C401 85 338 59 290 59 C265 59 213 77 188 111 C177 126 171 130 160 130 C144 130 89 98 86 80 C84 71 100 38 126 14 C162 -20 211 -37 268 -37 C386 -37 493 35 515 140 C526 189 508 223 478 247 C521 273 552 314 562 362 C578 435 539 482 428 516 C417 521 404 524 393 528 C392 528 391 528 391 528 C344 543 306 556 313 587 C324 638 387 665 433 665 C459 665 509 645 537 611 L537 611 Z M365 422 C421 422 466 407 456 360 C450 332 418 302 359 302 L354 302 C263 302 263 351 265 364 C272 393 306 422 365 422 L365 422 Z " />
<glyph glyph-name="dieresis" unicode="&#xa8;" horiz-adv-x="442" d="M203 633 C195 595 220 563 259 563 C299 563 336 595 345 633 C353 673 329 704 289 704 C250 704 212 673 203 633 L203 633 Z M406 634 C398 596 423 564 462 564 C502 564 540 596 548 634 C556 674 533 706 492 706 C453 706 415 674 406 634 L406 634 Z " />
<glyph glyph-name="copyright" unicode="&#xa9;" horiz-adv-x="878" d="M623 780 C395 780 173 595 126 372 C77 144 223 -38 447 -38 C674 -38 897 146 944 370 C993 597 846 780 623 780 L623 780 Z M438 634 C496 664 554 678 609 678 C760 678 887 557 848 377 C815 220 646 61 466 61 C303 61 186 192 223 365 C245 471 324 574 438 634 L438 634 Z M714 566 C679 591 641 604 591 604 C462 604 333 499 305 369 C277 238 360 134 489 134 C539 134 587 149 632 175 C639 179 645 183 646 190 C647 192 647 195 646 198 C646 198 646 198 620 263 C618 268 615 270 612 271 C609 271 606 270 603 268 C577 252 551 247 520 247 C449 247 402 292 418 368 C433 438 498 492 568 492 C599 492 625 484 646 469 C648 467 650 467 652 467 C658 467 663 472 668 478 L718 542 C719 544 720 546 720 548 C722 554 719 561 714 566 L714 566 Z " />
<glyph glyph-name="ordfeminine" unicode="&#xaa;" horiz-adv-x="511" d="" />
<glyph glyph-name="guillemotleft" unicode="&#xab;" horiz-adv-x="689" d="M129 262 L217 149 C221 143 242 118 247 111 L325 12 C330 5 338 -4 349 -4 C357 -4 363 0 368 3 L429 53 C435 58 440 65 442 73 C443 79 442 88 439 93 L293 280 L519 468 C525 473 528 482 530 487 C531 494 529 499 526 505 L487 555 C483 559 477 562 469 562 C463 562 453 558 447 555 L137 299 C130 293 127 288 125 281 C124 274 124 267 129 262 L129 262 Z M400 262 C422 233 445 205 468 176 L518 111 L597 12 C602 5 610 -4 620 -4 C628 -4 634 0 639 3 L700 53 C706 58 711 65 713 73 C714 79 713 88 710 93 L564 280 L790 468 C796 473 799 482 801 487 C802 494 800 499 797 505 L758 555 C754 559 748 562 740 562 C734 562 725 558 719 555 L408 299 C401 293 398 288 396 281 C395 274 395 267 400 262 L400 262 Z " />
<glyph glyph-name="logicalnot" unicode="&#xac;" horiz-adv-x="581" d="M603 378 C606 393 599 402 584 402 L181 402 C164 402 154 393 151 378 L138 317 C134 300 141 292 158 292 L475 292 L447 162 C444 148 456 138 468 138 L528 138 C543 138 554 149 557 162 L603 378 Z " />
<glyph glyph-name="uni00AD" unicode="&#xad;" horiz-adv-x="528" d="M185 347 C168 347 156 337 153 321 L138 250 C134 231 142 222 158 222 L484 222 C500 222 514 237 517 250 L532 321 C536 337 526 347 511 347 L185 347 Z " />
<glyph glyph-name="registered" unicode="&#xae;" horiz-adv-x="878" d="M633 779 C405 779 183 595 136 372 C87 144 234 -37 458 -37 C685 -37 906 146 953 370 C1002 597 857 779 633 779 L633 779 Z M616 668 C760 668 887 555 849 378 C817 225 657 70 478 70 C321 70 207 197 243 366 C265 469 341 569 452 627 C506 654 563 668 616 668 L616 668 Z M339 175 C336 163 343 158 354 158 L429 158 C441 158 449 164 451 175 L478 303 L536 303 L556 221 L569 170 C570 164 576 158 582 158 L665 158 C677 158 684 164 686 173 C687 175 687 176 686 178 L647 323 C692 348 727 392 738 443 C754 519 706 581 630 584 L444 584 C433 584 424 577 421 564 L339 175 Z M627 444 C622 420 600 401 576 401 L499 401 L518 487 L594 487 C619 487 632 466 627 444 L627 444 Z " />
<glyph glyph-name="macron" unicode="&#xaf;" horiz-adv-x="487" d="M181 618 C178 605 182 598 194 598 L557 598 C569 598 577 610 579 618 L590 668 C592 680 587 686 575 686 L213 686 C201 686 194 680 192 668 L181 618 Z " />
<glyph glyph-name="degree" unicode="&#xb0;" horiz-adv-x="325" d="M309 675 C245 675 186 626 172 562 C158 498 199 450 261 450 C323 450 383 498 396 562 C410 626 371 675 309 675 L309 675 Z M295 610 C321 610 338 588 332 562 C326 535 301 514 275 514 C247 514 231 535 237 562 C243 588 267 610 295 610 L295 610 Z " />
<glyph glyph-name="plusminus" unicode="&#xb1;" horiz-adv-x="497" d="M367 282 L465 282 C481 282 495 298 498 311 L513 381 C517 399 507 408 492 408 L394 408 L415 508 C419 526 412 535 394 535 L319 535 C299 535 288 526 284 508 L263 408 L166 408 C148 408 137 399 133 381 L118 311 C114 292 122 282 140 282 L236 282 L215 182 C211 166 225 155 238 155 L314 155 C331 155 343 167 346 182 L367 282 Z M109 117 C92 117 80 108 77 91 L63 28 C60 9 67 0 85 0 L407 0 C423 0 436 13 439 28 L453 91 C456 108 446 117 431 117 L109 117 Z " />
<glyph glyph-name="twosuperior" unicode="&#xb2;" horiz-adv-x="418" d="M249 630 C261 651 285 666 308 666 C340 666 357 640 351 611 C348 599 343 591 329 579 L118 396 C116 393 115 391 114 389 L105 348 C104 339 110 333 118 333 L370 333 C378 333 385 339 387 348 L399 402 C401 412 397 416 388 416 L253 416 C307 462 351 498 388 531 C416 557 435 583 442 619 C458 698 399 750 326 750 C267 750 214 714 175 658 C175 658 176 658 176 658 C174 656 172 652 172 649 C171 645 171 641 177 638 L218 617 C220 615 225 614 228 614 C232 614 236 615 241 621 L249 630 Z " />
<glyph glyph-name="threesuperior" unicode="&#xb3;" horiz-adv-x="378" d="M242 410 C216 410 200 427 191 458 C189 469 189 471 182 471 C178 471 174 470 171 469 L122 456 C114 453 111 448 110 443 C109 440 109 437 109 435 C112 373 156 329 230 329 C308 329 383 387 399 462 C410 515 389 543 360 566 C381 584 400 608 406 637 C419 699 374 748 316 748 C265 748 216 717 187 675 C184 671 182 667 181 664 C180 659 182 656 187 653 L221 631 C224 629 227 627 230 627 C243 627 260 669 295 669 C320 669 327 649 324 631 C321 617 302 595 279 595 C270 595 264 590 262 581 L251 529 C249 520 254 517 262 517 C297 517 315 493 309 463 C302 430 272 410 242 410 L242 410 Z " />
<glyph glyph-name="acute" unicode="&#xb4;" horiz-adv-x="248" d="M391 713 C398 722 400 727 401 732 C402 740 397 742 389 742 L314 742 C301 742 293 736 282 721 L217 619 C211 610 209 605 207 600 C205 591 208 587 221 587 L292 587 C304 587 314 593 323 608 L391 713 Z " />
<glyph glyph-name="mu" unicode="&#xb5;" horiz-adv-x="614" d="M218 59 C238 29 295 -7 358 -7 C480 -7 568 85 597 203 C598 206 599 210 600 214 L654 466 C657 482 648 491 634 491 L551 491 C533 491 526 483 522 467 L469 214 C457 161 406 117 352 117 C303 117 237 151 251 215 L305 469 C308 488 292 491 278 491 L204 491 C186 491 176 483 173 468 L37 -171 C34 -185 40 -195 57 -195 L138 -195 C153 -195 165 -189 169 -171 L218 59 Z " />
<glyph glyph-name="paragraph" unicode="&#xb6;" horiz-adv-x="698" d="M395 741 C284 741 174 650 151 539 C127 428 204 338 320 338 L254 25 C251 11 247 1 266 0 L326 0 C344 0 352 -2 358 26 L488 639 L602 639 L472 26 C469 11 465 1 484 0 L544 0 C562 0 570 -2 576 26 L706 639 L783 639 C796 639 806 645 810 665 L821 716 C823 727 822 741 805 741 L395 741 Z " />
<glyph glyph-name="periodcentered" unicode="&#xb7;" horiz-adv-x="227" d="M114 280 C105 236 134 200 178 200 C225 200 266 236 276 280 C285 326 259 361 212 361 C168 361 124 326 114 280 L114 280 Z " />
<glyph glyph-name="cedilla" unicode="&#xb8;" horiz-adv-x="278" d="M62 -265 C195 -232 230 -185 240 -137 C256 -63 147 -43 158 6 L74 6 L69 -15 C57 -75 158 -92 148 -137 C144 -157 119 -173 50 -190 L44 -191 C37 -194 31 -201 32 -208 L44 -260 C45 -267 53 -268 62 -265 L62 -265 Z " />
<glyph glyph-name="onesuperior" unicode="&#xb9;" horiz-adv-x="234" d="M159 647 C157 639 159 633 168 633 C168 634 174 635 175 635 L211 650 L147 347 C145 340 148 335 158 335 L222 335 C230 335 236 340 238 348 L319 731 C321 739 317 744 308 744 L258 744 C248 744 244 743 238 741 L189 721 C179 715 172 709 171 701 L159 647 Z " />
<glyph glyph-name="ordmasculine" unicode="&#xba;" horiz-adv-x="511" d="M177 557 C154 451 222 365 329 365 C437 365 541 451 564 557 C586 665 519 751 411 751 C304 751 200 665 177 557 L177 557 Z M285 557 C295 604 341 642 386 642 C435 642 463 604 453 557 C443 511 399 473 351 473 C305 473 275 511 285 557 L285 557 Z " />
<glyph glyph-name="guillemotright" unicode="&#xbb;" horiz-adv-x="691" d="M750 260 C756 265 760 272 761 278 C763 285 762 290 757 296 L554 554 C551 557 542 559 536 559 C528 559 521 556 515 552 L456 502 C450 497 446 491 444 484 C444 480 443 471 448 465 L447 465 L594 277 L367 90 C362 86 358 77 357 71 C355 63 357 56 361 50 L400 1 C403 -3 408 -6 416 -6 C428 -6 439 2 447 9 L576 116 C635 164 692 211 750 260 L750 260 Z M479 260 C485 265 489 272 490 278 C492 285 491 290 486 296 L283 554 C280 557 271 559 265 559 C257 559 250 556 244 552 L185 502 C179 497 175 491 173 484 C173 480 172 471 177 465 L176 465 L322 277 L96 90 C91 86 87 76 86 71 C84 63 86 56 90 50 L129 1 C132 -3 137 -6 145 -6 C157 -6 168 2 176 9 L305 116 L479 260 Z " />
<glyph glyph-name="onequarter" unicode="&#xbc;" horiz-adv-x="742" d="M551 63 L541 15 C539 7 543 2 551 2 L610 2 C621 2 626 7 628 15 L639 64 L674 64 C683 64 691 70 693 78 L705 138 C707 147 701 151 693 151 L657 151 L710 402 C712 409 706 415 700 416 L644 416 C636 416 633 415 627 407 L375 96 C371 92 368 85 367 80 C365 72 368 63 379 63 L551 63 Z M509 151 L595 260 L572 151 L509 151 Z M186 647 C184 639 186 633 195 633 C195 634 201 635 202 635 L238 650 L174 347 C172 340 175 335 185 335 L249 335 C257 335 263 340 265 348 L346 731 C348 739 344 744 335 744 L285 744 C275 744 271 743 265 741 L216 721 C206 715 199 709 198 701 L186 647 Z M100 27 C100 26 98 23 98 21 C94 6 100 0 118 0 L173 0 C189 0 195 7 207 25 L729 712 C732 713 733 717 734 722 C737 735 724 742 708 742 L665 742 C646 742 632 731 623 717 L624 717 L100 27 Z " />
<glyph glyph-name="onehalf" unicode="&#xbd;" horiz-adv-x="742" d="M100 27 C100 26 98 23 98 21 C94 6 100 0 118 0 L173 0 C189 0 195 7 207 25 L729 712 C732 713 733 717 734 722 C737 735 724 742 708 742 L665 742 C646 742 632 731 623 717 L624 717 L100 27 Z M186 647 C184 639 186 633 195 633 C195 634 201 635 202 635 L238 650 L174 347 C172 340 175 335 185 335 L249 335 C257 335 263 340 265 348 L346 731 C348 739 344 744 335 744 L285 744 C275 744 271 743 265 741 L216 721 C206 715 199 709 198 701 L186 647 Z M529 299 C542 319 565 334 589 334 C620 334 638 308 631 280 C629 268 623 259 610 248 L398 65 C397 62 395 59 395 57 L386 16 C384 8 390 1 398 1 L650 1 C658 1 666 8 667 16 L679 71 C681 80 677 85 668 85 L534 85 C588 131 631 167 668 200 C697 225 715 251 723 287 C738 367 680 418 607 418 C547 418 494 383 456 326 C456 326 456 327 456 327 C454 324 453 321 452 318 C451 313 452 309 458 306 L498 285 C501 284 505 282 509 282 C513 282 517 283 521 289 L529 299 Z " />
<glyph glyph-name="threequarters" unicode="&#xbe;" horiz-adv-x="766" d="M171 27 C171 26 169 23 168 21 C164 6 170 0 188 0 L243 0 C259 0 265 7 278 25 L800 712 C803 713 804 717 804 722 C807 735 795 742 779 742 L736 742 C717 742 703 731 694 717 L694 717 L171 27 Z M239 421 C214 421 197 438 188 469 C187 480 186 482 179 482 C176 482 172 481 168 480 L119 467 C111 464 108 459 107 454 C107 451 106 448 107 446 C109 384 153 340 228 340 C306 340 381 398 397 473 C408 526 386 554 358 577 C379 595 397 619 403 648 C417 710 372 759 313 759 C263 759 214 728 185 686 C182 682 179 678 179 675 C178 670 180 667 184 664 L219 642 C221 640 224 638 227 638 C241 638 257 680 293 680 C317 680 325 660 321 642 C318 628 300 606 276 606 C268 606 262 601 260 592 L249 540 C247 531 251 528 259 528 C295 528 313 504 307 474 C299 441 269 421 239 421 L239 421 Z M604 64 L594 16 C592 8 596 3 604 3 L663 3 C674 3 679 8 681 16 L692 65 L727 65 C736 65 744 71 746 79 L758 139 C760 148 754 152 746 152 L710 152 L763 403 C765 410 759 416 753 417 L697 417 C689 417 686 416 680 408 L428 97 C424 93 421 86 420 81 C418 73 421 64 432 64 L604 64 Z M562 152 L648 261 L625 152 L562 152 Z " />
<glyph glyph-name="questiondown" unicode="&#xbf;" horiz-adv-x="568" d="M263 205 L277 270 C280 284 293 294 305 294 L395 294 C410 294 416 282 413 270 L395 185 C367 54 189 54 163 -67 C152 -123 192 -175 252 -175 C312 -175 376 -121 389 -63 L392 -48 C395 -35 407 -26 420 -26 L511 -26 C528 -26 531 -37 529 -47 L525 -63 C495 -203 359 -301 226 -301 C88 -301 -7 -202 22 -62 C63 129 244 117 263 205 L263 205 Z M461 422 C471 466 442 502 398 502 C351 502 309 466 300 422 C290 377 317 341 364 341 C408 341 452 377 461 422 L461 422 Z " />
<glyph glyph-name="Agrave" unicode="&#xc0;" horiz-adv-x="728" d="M450 726 C157 255 5 20 5 18 C2 6 7 0 23 0 L154 0 C163 0 171 5 176 15 L251 137 L548 137 L572 15 C573 3 578 0 591 0 L697 0 C720 0 726 10 728 20 L729 23 L581 726 C578 735 572 742 558 742 L483 742 C465 742 457 735 450 726 L450 726 Z M484 532 L529 268 L327 268 L484 532 Z M469 860 C472 845 479 839 491 839 L562 839 C575 839 580 843 582 852 C582 857 582 862 580 871 L558 973 C553 988 548 994 535 994 L460 994 C452 994 446 992 444 984 C443 979 443 974 446 965 L469 860 Z " />
<glyph glyph-name="Aacute" unicode="&#xc1;" horiz-adv-x="728" d="M450 726 C157 255 5 20 5 18 C2 6 7 0 23 0 L154 0 C163 0 171 5 176 15 L251 137 L548 137 L572 15 C573 3 578 0 591 0 L697 0 C720 0 726 10 728 20 L729 23 L581 726 C578 735 572 742 558 742 L483 742 C465 742 457 735 450 726 L450 726 Z M484 532 L529 268 L327 268 L484 532 Z M686 965 C693 974 695 979 696 984 C697 992 692 994 684 994 L609 994 C596 994 588 988 577 973 L512 871 C506 862 504 857 502 852 C500 843 503 839 516 839 L587 839 C599 839 609 845 618 860 L686 965 Z " />
<glyph glyph-name="Acircumflex" unicode="&#xc2;" horiz-adv-x="728" d="M450 726 C157 255 5 20 5 18 C2 6 7 0 23 0 L154 0 C163 0 171 5 176 15 L251 137 L548 137 L572 15 C573 3 578 0 591 0 L697 0 C720 0 726 10 728 20 L729 23 L581 726 C578 735 572 742 558 742 L483 742 C465 742 457 735 450 726 L450 726 Z M484 532 L529 268 L327 268 L484 532 Z M416 894 C413 892 410 889 409 886 C407 880 408 875 411 871 L433 844 C439 838 445 829 452 829 C459 829 466 833 472 838 L566 915 L625 838 C634 827 638 828 640 828 C649 828 660 838 667 844 L701 872 C705 875 708 878 709 882 C710 887 708 892 706 894 C671 939 635 984 600 1029 C597 1032 594 1034 591 1034 C586 1034 582 1032 579 1029 L416 894 Z " />
<glyph glyph-name="Atilde" unicode="&#xc3;" horiz-adv-x="728" d="M450 726 C157 255 5 20 5 18 C2 6 7 0 23 0 L154 0 C163 0 171 5 176 15 L251 137 L548 137 L572 15 C573 3 578 0 591 0 L697 0 C720 0 726 10 728 20 L729 23 L581 726 C578 735 572 742 558 742 L483 742 C465 742 457 735 450 726 L450 726 Z M484 532 L529 268 L327 268 L484 532 Z M508 871 C527 871 543 855 558 844 C575 829 598 820 622 820 C660 820 695 836 728 866 L745 884 C747 885 751 891 752 894 C753 899 752 902 750 906 L720 941 C717 944 714 945 711 945 C700 945 686 927 678 919 C666 909 654 905 640 905 C631 905 623 908 616 914 L592 932 C574 946 550 955 528 956 C490 956 452 939 419 905 L406 892 C398 883 393 877 401 868 L428 836 C447 816 478 871 508 871 L508 871 Z " />
<glyph glyph-name="Adieresis" unicode="&#xc4;" horiz-adv-x="728" d="M450 726 C157 255 5 20 5 18 C2 6 7 0 23 0 L154 0 C163 0 171 5 176 15 L251 137 L548 137 L572 15 C573 3 578 0 591 0 L697 0 C720 0 726 10 728 20 L729 23 L581 726 C578 735 572 742 558 742 L483 742 C465 742 457 735 450 726 L450 726 Z M484 532 L529 268 L327 268 L484 532 Z M405 885 C397 847 422 815 461 815 C501 815 538 847 547 885 C555 925 531 956 491 956 C452 956 414 925 405 885 L405 885 Z M608 886 C600 848 625 816 664 816 C704 816 742 848 750 886 C758 926 735 958 694 958 C655 958 617 926 608 886 L608 886 Z " />
<glyph glyph-name="Aring" unicode="&#xc5;" horiz-adv-x="728" d="M450 726 C157 255 5 20 5 18 C2 6 7 0 23 0 L154 0 C163 0 171 5 176 15 L251 137 L548 137 L572 15 C573 3 578 0 591 0 L697 0 C720 0 726 10 728 20 L729 23 L581 726 C578 735 572 742 558 742 L483 742 C465 742 457 735 450 726 L450 726 Z M484 532 L529 268 L327 268 L484 532 Z M590 1028 C531 1028 475 980 463 922 C451 864 487 818 545 818 C603 818 661 864 673 922 C685 980 648 1028 590 1028 L590 1028 Z M577 964 C600 964 614 946 609 922 C604 899 582 882 559 882 C536 882 523 899 528 922 C533 946 553 964 577 964 L577 964 Z " />
<glyph glyph-name="AE" unicode="&#xc6;" horiz-adv-x="1151" d="M306 139 L602 139 C593 99 585 64 577 24 C573 8 581 0 598 0 L1087 0 C1104 0 1117 10 1121 27 L1138 110 C1142 127 1135 137 1117 137 L749 137 L788 318 L1072 318 C1090 318 1102 332 1105 343 L1120 417 C1124 435 1114 443 1099 443 L816 443 L850 605 L1204 605 C1222 605 1235 620 1238 632 L1255 713 C1259 732 1251 742 1234 742 L763 742 C746 742 730 730 721 721 C583 580 481 475 60 60 L32 31 C32 31 32 31 32 31 C32 31 32 31 33 32 C29 28 23 20 21 14 C19 3 25 0 38 0 L149 0 C162 0 176 7 189 21 L306 139 Z M688 523 L634 270 L435 270 L688 523 Z " />
<glyph glyph-name="Ccedilla" unicode="&#xc7;" horiz-adv-x="705" d="M785 688 C732 730 665 753 586 753 C350 753 114 536 114 290 C114 118 239 -11 423 -11 C503 -11 581 13 653 55 C663 61 671 67 671 79 C671 81 671 83 670 86 L639 169 C634 177 630 180 624 180 C619 180 613 179 607 175 C559 145 506 127 452 127 C336 127 265 206 265 314 C265 474 403 615 555 615 C609 615 655 597 689 567 C694 564 698 562 703 562 C709 562 716 566 724 574 L790 656 C794 661 795 667 795 671 C795 679 791 684 785 688 L785 688 Z M365 -265 C498 -232 533 -185 543 -137 C559 -63 450 -43 461 6 L377 6 L372 -15 C360 -75 461 -92 451 -137 C447 -157 422 -173 353 -190 L347 -191 C340 -194 334 -201 335 -208 L347 -260 C348 -267 356 -268 365 -265 L365 -265 Z " />
<glyph glyph-name="Egrave" unicode="&#xc8;" horiz-adv-x="642" d="M85 21 C84 19 84 17 84 15 C84 5 92 0 103 0 L598 0 C612 0 621 6 624 21 L643 112 C644 116 645 119 645 122 C645 132 640 136 626 136 L257 136 L296 318 L571 318 C585 318 594 329 597 341 L616 432 C616 434 617 437 617 439 C617 449 611 454 601 454 C600 454 600 454 599 454 L325 454 L357 606 L712 606 C729 606 740 617 742 629 L761 717 C761 720 762 722 762 725 C762 735 756 742 742 742 L260 742 C246 742 237 735 233 718 L85 21 Z M479 860 C482 845 489 839 501 839 L572 839 C585 839 590 843 592 852 C592 857 592 862 590 871 L568 973 C563 988 558 994 545 994 L470 994 C462 994 456 992 454 984 C453 979 453 974 456 965 L479 860 Z " />
<glyph glyph-name="Eacute" unicode="&#xc9;" horiz-adv-x="642" d="M85 21 C84 19 84 17 84 15 C84 5 92 0 103 0 L598 0 C612 0 621 6 624 21 L643 112 C644 116 645 119 645 122 C645 132 640 136 626 136 L257 136 L296 318 L571 318 C585 318 594 329 597 341 L616 432 C616 434 617 437 617 439 C617 449 611 454 601 454 C600 454 600 454 599 454 L325 454 L357 606 L712 606 C729 606 740 617 742 629 L761 717 C761 720 762 722 762 725 C762 735 756 742 742 742 L260 742 C246 742 237 735 233 718 L85 21 Z M665 965 C672 974 674 979 675 984 C676 992 671 994 663 994 L588 994 C575 994 567 988 556 973 L491 871 C485 862 483 857 481 852 C479 843 482 839 495 839 L566 839 C578 839 588 845 597 860 L665 965 Z " />
<glyph glyph-name="Ecircumflex" unicode="&#xca;" horiz-adv-x="642" d="M85 21 C84 19 84 17 84 15 C84 5 92 0 103 0 L598 0 C612 0 621 6 624 21 L643 112 C644 116 645 119 645 122 C645 132 640 136 626 136 L257 136 L296 318 L571 318 C585 318 594 329 597 341 L616 432 C616 434 617 437 617 439 C617 449 611 454 601 454 C600 454 600 454 599 454 L325 454 L357 606 L712 606 C729 606 740 617 742 629 L761 717 C761 720 762 722 762 725 C762 735 756 742 742 742 L260 742 C246 742 237 735 233 718 L85 21 Z M391 894 C388 892 385 889 384 886 C382 880 383 875 386 871 L408 844 C414 838 420 829 427 829 C434 829 441 833 447 838 L541 915 L600 838 C609 827 613 828 615 828 C624 828 635 838 642 844 L676 872 C680 875 683 878 684 882 C685 887 683 892 681 894 C646 939 610 984 575 1029 C572 1032 569 1034 566 1034 C561 1034 557 1032 554 1029 L391 894 Z " />
<glyph glyph-name="Edieresis" unicode="&#xcb;" horiz-adv-x="642" d="M85 21 C84 19 84 17 84 15 C84 5 92 0 103 0 L598 0 C612 0 621 6 624 21 L643 112 C644 116 645 119 645 122 C645 132 640 136 626 136 L257 136 L296 318 L571 318 C585 318 594 329 597 341 L616 432 C616 434 617 437 617 439 C617 449 611 454 601 454 C600 454 600 454 599 454 L325 454 L357 606 L712 606 C729 606 740 617 742 629 L761 717 C761 720 762 722 762 725 C762 735 756 742 742 742 L260 742 C246 742 237 735 233 718 L85 21 Z M374 879 C366 841 391 809 430 809 C470 809 507 841 516 879 C524 919 500 950 460 950 C421 950 383 919 374 879 L374 879 Z M577 880 C569 842 594 810 633 810 C673 810 711 842 719 880 C727 920 704 952 663 952 C624 952 586 920 577 880 L577 880 Z " />
<glyph glyph-name="Igrave" unicode="&#xcc;" horiz-adv-x="309" d="M85 22 C85 19 84 17 84 15 C84 5 91 0 103 0 L204 0 C220 0 230 7 233 22 L381 720 C381 721 382 722 382 724 C382 735 370 742 361 742 L260 742 C246 742 236 732 234 720 L85 22 Z M270 860 C273 845 280 839 292 839 L363 839 C376 839 381 843 383 852 C383 857 383 862 381 871 L359 973 C354 988 349 994 336 994 L261 994 C253 994 247 992 245 984 C244 979 244 974 247 965 L270 860 Z " />
<glyph glyph-name="Iacute" unicode="&#xcd;" horiz-adv-x="309" d="M85 22 C85 19 84 17 84 15 C84 5 91 0 103 0 L204 0 C220 0 230 7 233 22 L381 720 C381 721 382 722 382 724 C382 735 370 742 361 742 L260 742 C246 742 236 732 234 720 L85 22 Z M466 965 C473 974 475 979 476 984 C477 992 472 994 464 994 L389 994 C376 994 368 988 357 973 L292 871 C286 862 284 857 282 852 C280 843 283 839 296 839 L367 839 C379 839 389 845 398 860 L466 965 Z " />
<glyph glyph-name="Icircumflex" unicode="&#xce;" horiz-adv-x="309" d="M85 22 C85 19 84 17 84 15 C84 5 91 0 103 0 L204 0 C220 0 230 7 233 22 L381 720 C381 721 382 722 382 724 C382 735 370 742 361 742 L260 742 C246 742 236 732 234 720 L85 22 Z M200 894 C197 892 194 889 193 886 C191 880 192 875 195 871 L217 844 C223 838 229 829 236 829 C243 829 250 833 256 838 L350 915 L409 838 C418 827 422 828 424 828 C433 828 444 838 451 844 L485 872 C489 875 492 878 493 882 C494 887 492 892 490 894 C455 939 419 984 384 1029 C381 1032 378 1034 375 1034 C370 1034 366 1032 363 1029 L200 894 Z " />
<glyph glyph-name="Idieresis" unicode="&#xcf;" horiz-adv-x="309" d="M85 22 C85 19 84 17 84 15 C84 5 91 0 103 0 L204 0 C220 0 230 7 233 22 L381 720 C381 721 382 722 382 724 C382 735 370 742 361 742 L260 742 C246 742 236 732 234 720 L85 22 Z M170 884 C162 846 187 814 226 814 C266 814 303 846 312 884 C320 924 296 955 256 955 C217 955 179 924 170 884 L170 884 Z M373 885 C365 847 390 815 429 815 C469 815 507 847 515 885 C523 925 500 957 459 957 C420 957 382 925 373 885 L373 885 Z " />
<glyph glyph-name="Eth" unicode="&#xd0;" horiz-adv-x="775" d="M165 424 L121 424 C106 424 97 416 94 404 L79 330 C75 314 81 306 96 306 L140 306 L81 26 C76 5 88 0 103 0 L340 0 C549 0 752 162 796 370 C841 579 709 742 497 742 L261 742 C242 742 231 732 227 714 L165 424 Z M258 145 L354 597 L435 597 C450 597 465 596 479 595 C595 588 672 499 645 373 C619 249 502 150 375 146 C350 145 325 145 301 145 L258 145 Z " />
<glyph glyph-name="Ntilde" unicode="&#xd1;" horiz-adv-x="791" d="M234 720 C236 732 246 742 260 742 L378 742 C388 742 400 737 404 727 L634 243 L732 727 C739 739 750 742 757 742 L858 742 C868 742 881 733 878 720 L730 22 C727 7 717 0 701 0 L594 0 C587 0 583 7 577 16 L335 536 L230 22 C228 7 220 0 204 0 L103 0 C88 0 82 7 85 22 L234 720 Z M532 871 C551 871 567 855 582 844 C599 829 622 820 646 820 C684 820 719 836 752 866 L769 884 C771 885 775 891 776 894 C777 899 776 902 774 906 L744 941 C741 944 738 945 735 945 C724 945 710 927 702 919 C690 909 678 905 664 905 C655 905 647 908 640 914 L616 932 C598 946 574 955 552 956 C514 956 476 939 443 905 L430 892 C422 883 417 877 425 868 L452 836 C471 816 502 871 532 871 L532 871 Z " />
<glyph glyph-name="Ograve" unicode="&#xd2;" horiz-adv-x="853" d="M271 370 C267 351 265 332 265 314 C265 206 336 127 452 127 C604 127 742 267 742 427 C742 535 671 615 555 615 C420 615 300 506 271 370 L271 370 Z M122 370 C167 582 374 753 586 753 C769 753 895 623 895 450 C895 204 659 -11 423 -11 C239 -11 114 118 114 290 C114 316 116 343 122 370 L122 370 Z M540 860 C543 845 550 839 562 839 L633 839 C646 839 651 843 653 852 C653 857 653 862 651 871 L629 973 C624 988 619 994 606 994 L531 994 C523 994 517 992 515 984 C514 979 514 974 517 965 L540 860 Z " />
<glyph glyph-name="Oacute" unicode="&#xd3;" horiz-adv-x="853" d="M271 370 C267 351 265 332 265 314 C265 206 336 127 452 127 C604 127 742 267 742 427 C742 535 671 615 555 615 C420 615 300 506 271 370 L271 370 Z M122 370 C167 582 374 753 586 753 C769 753 895 623 895 450 C895 204 659 -11 423 -11 C239 -11 114 118 114 290 C114 316 116 343 122 370 L122 370 Z M732 965 C739 974 741 979 742 984 C743 992 738 994 730 994 L655 994 C642 994 634 988 623 973 L558 871 C552 862 550 857 548 852 C546 843 549 839 562 839 L633 839 C645 839 655 845 664 860 L732 965 Z " />
<glyph glyph-name="Ocircumflex" unicode="&#xd4;" horiz-adv-x="853" d="M271 370 C267 351 265 332 265 314 C265 206 336 127 452 127 C604 127 742 267 742 427 C742 535 671 615 555 615 C420 615 300 506 271 370 L271 370 Z M122 370 C167 582 374 753 586 753 C769 753 895 623 895 450 C895 204 659 -11 423 -11 C239 -11 114 118 114 290 C114 316 116 343 122 370 L122 370 Z M471 894 C468 892 465 889 464 886 C462 880 463 875 466 871 L488 844 C494 838 500 829 507 829 C514 829 521 833 527 838 L621 915 L680 838 C689 827 693 828 695 828 C704 828 715 838 722 844 L756 872 C760 875 763 878 764 882 C765 887 763 892 761 894 C726 939 690 984 655 1029 C652 1032 649 1034 646 1034 C641 1034 637 1032 634 1029 L471 894 Z " />
<glyph glyph-name="Otilde" unicode="&#xd5;" horiz-adv-x="853" d="M271 370 C267 351 265 332 265 314 C265 206 336 127 452 127 C604 127 742 267 742 427 C742 535 671 615 555 615 C420 615 300 506 271 370 L271 370 Z M122 370 C167 582 374 753 586 753 C769 753 895 623 895 450 C895 204 659 -11 423 -11 C239 -11 114 118 114 290 C114 316 116 343 122 370 L122 370 Z M562 871 C581 871 597 855 612 844 C629 829 652 820 676 820 C714 820 749 836 782 866 L799 884 C801 885 805 891 806 894 C807 899 806 902 804 906 L774 941 C771 944 768 945 765 945 C754 945 740 927 732 919 C720 909 708 905 694 905 C685 905 677 908 670 914 L646 932 C628 946 604 955 582 956 C544 956 506 939 473 905 L460 892 C452 883 447 877 455 868 L482 836 C501 816 532 871 562 871 L562 871 Z " />
<glyph glyph-name="Odieresis" unicode="&#xd6;" horiz-adv-x="853" d="M271 370 C267 351 265 332 265 314 C265 206 336 127 452 127 C604 127 742 267 742 427 C742 535 671 615 555 615 C420 615 300 506 271 370 L271 370 Z M122 370 C167 582 374 753 586 753 C769 753 895 623 895 450 C895 204 659 -11 423 -11 C239 -11 114 118 114 290 C114 316 116 343 122 370 L122 370 Z M427 875 C419 837 444 805 483 805 C523 805 560 837 569 875 C577 915 553 946 513 946 C474 946 436 915 427 875 L427 875 Z M630 876 C622 838 647 806 686 806 C726 806 764 838 772 876 C780 916 757 948 716 948 C677 948 639 916 630 876 L630 876 Z " />
<glyph glyph-name="multiply" unicode="&#xd7;" horiz-adv-x="466" d="M488 383 C494 388 498 394 499 402 C501 409 500 416 496 421 L457 472 C452 477 446 480 438 480 C431 480 424 478 417 472 L332 402 L276 474 L276 473 C272 479 267 482 259 482 C253 482 245 479 238 473 L174 419 C167 413 161 406 160 400 C158 392 159 386 164 380 L220 309 L135 239 C128 233 124 227 123 220 C121 212 123 206 128 199 L166 150 C172 144 177 141 185 141 C191 141 200 145 205 150 C234 174 261 196 290 220 L348 147 C351 143 357 140 363 140 C372 140 381 143 387 149 L451 201 C458 207 462 214 464 221 C465 229 464 235 460 241 L403 313 L488 383 Z " />
<glyph glyph-name="Oslash" unicode="&#xd8;" horiz-adv-x="853" d="M586 753 C374 753 167 581 122 370 C94 238 137 121 225 54 C198 12 169 -29 142 -70 C139 -76 138 -79 137 -80 C136 -89 141 -93 155 -93 L263 -93 C277 -93 284 -87 294 -72 C310 -49 326 -25 343 -2 C368 -8 394 -11 423 -11 C634 -11 841 159 886 370 C914 501 872 616 787 684 C807 714 842 768 860 796 L871 812 C874 816 875 819 876 823 C878 833 869 837 854 837 L756 837 C739 837 727 829 718 814 L670 742 C644 749 616 753 586 753 L586 753 Z M262 371 C291 507 420 617 557 617 C693 617 775 507 746 371 C717 233 588 124 452 124 C315 124 233 233 262 371 L262 371 Z " />
<glyph glyph-name="Ugrave" unicode="&#xd9;" horiz-adv-x="752" d="M370 720 C373 732 361 742 352 742 L248 742 C236 742 225 730 223 720 L132 293 C96 125 204 -12 373 -12 C541 -12 708 125 743 293 L834 720 C837 733 826 742 814 742 L715 742 C701 742 689 732 687 720 L596 293 C576 200 495 123 402 123 C308 123 260 200 279 293 L370 720 Z M494 860 C497 845 504 839 516 839 L587 839 C600 839 605 843 607 852 C607 857 607 862 605 871 L583 973 C578 988 573 994 560 994 L485 994 C477 994 471 992 469 984 C468 979 468 974 471 965 L494 860 Z " />
<glyph glyph-name="Uacute" unicode="&#xda;" horiz-adv-x="752" d="M370 720 C373 732 361 742 352 742 L248 742 C236 742 225 730 223 720 L132 293 C96 125 204 -12 373 -12 C541 -12 708 125 743 293 L834 720 C837 733 826 742 814 742 L715 742 C701 742 689 732 687 720 L596 293 C576 200 495 123 402 123 C308 123 260 200 279 293 L370 720 Z M695 965 C702 974 704 979 705 984 C706 992 701 994 693 994 L618 994 C605 994 597 988 586 973 L521 871 C515 862 513 857 511 852 C509 843 512 839 525 839 L596 839 C608 839 618 845 627 860 L695 965 Z " />
<glyph glyph-name="Ucircumflex" unicode="&#xdb;" horiz-adv-x="752" d="M370 720 C373 732 361 742 352 742 L248 742 C236 742 225 730 223 720 L132 293 C96 125 204 -12 373 -12 C541 -12 708 125 743 293 L834 720 C837 733 826 742 814 742 L715 742 C701 742 689 732 687 720 L596 293 C576 200 495 123 402 123 C308 123 260 200 279 293 L370 720 Z M420 894 C417 892 414 889 413 886 C411 880 412 875 415 871 L437 844 C443 838 449 829 456 829 C463 829 470 833 476 838 L570 915 L629 838 C638 827 642 828 644 828 C653 828 664 838 671 844 L705 872 C709 875 712 878 713 882 C714 887 712 892 710 894 C675 939 639 984 604 1029 C601 1032 598 1034 595 1034 C590 1034 586 1032 583 1029 L420 894 Z " />
<glyph glyph-name="Udieresis" unicode="&#xdc;" horiz-adv-x="752" d="M370 720 C373 732 361 742 352 742 L248 742 C236 742 225 730 223 720 L132 293 C96 125 204 -12 373 -12 C541 -12 708 125 743 293 L834 720 C837 733 826 742 814 742 L715 742 C701 742 689 732 687 720 L596 293 C576 200 495 123 402 123 C308 123 260 200 279 293 L370 720 Z M406 875 C398 837 423 805 462 805 C502 805 539 837 548 875 C556 915 532 946 492 946 C453 946 415 915 406 875 L406 875 Z M609 876 C601 838 626 806 665 806 C705 806 743 838 751 876 C759 916 736 948 695 948 C656 948 618 916 609 876 L609 876 Z " />
<glyph glyph-name="Yacute" unicode="&#xdd;" horiz-adv-x="684" d="M347 314 L286 28 C285 25 285 22 285 19 C285 6 292 0 305 0 L401 0 C419 0 431 9 435 28 L495 315 L816 713 C822 720 826 727 826 733 C826 739 822 742 814 742 L684 742 C674 741 671 740 657 723 L440 450 L360 721 C352 741 351 740 339 742 L211 742 C202 742 192 736 192 727 C192 724 195 713 196 711 L347 314 Z M663 965 C670 974 672 979 673 984 C674 992 669 994 661 994 L586 994 C573 994 565 988 554 973 L489 871 C483 862 481 857 479 852 C477 843 480 839 493 839 L564 839 C576 839 586 845 595 860 L663 965 Z " />
<glyph glyph-name="Thorn" unicode="&#xde;" horiz-adv-x="640" d="M376 715 C379 731 369 742 354 742 L261 742 C243 742 231 731 228 715 L82 27 C78 9 86 0 103 0 L197 0 C215 0 227 9 230 27 L253 134 L390 134 C409 134 427 135 444 137 C564 152 672 259 696 371 C723 496 649 611 514 611 L354 611 L376 715 Z M547 372 C535 316 480 263 419 263 L281 263 L327 480 L465 480 C526 480 558 427 547 372 L547 372 Z " />
<glyph glyph-name="germandbls" unicode="&#xdf;" horiz-adv-x="576" d="M46 -159 C42 -175 49 -185 66 -185 L152 -185 C171 -185 183 -175 186 -159 L336 545 C344 581 373 617 425 617 C481 617 486 562 481 538 C472 497 438 466 395 466 C380 466 369 457 365 442 L349 363 C345 346 354 339 368 339 C436 339 479 303 464 231 C450 165 398 123 336 123 L329 123 C312 123 301 110 298 95 L280 14 C279 0 284 -10 298 -10 C459 -10 568 77 599 220 C617 308 594 375 530 417 C575 449 604 486 615 540 C641 661 565 741 455 741 C348 740 225 683 196 544 C183 485 170 426 158 368 L46 -159 Z " />
<glyph glyph-name="agrave" unicode="&#xe0;" horiz-adv-x="594" d="M425 27 C425 11 428 0 448 0 L512 0 C527 0 542 9 546 25 L639 464 C643 480 631 491 616 491 L562 491 C543 491 539 485 529 463 L510 415 C495 457 463 498 388 498 C245 498 123 389 92 244 C62 101 138 -10 280 -10 L283 -10 C356 -10 396 29 428 65 C427 52 427 40 425 27 L425 27 Z M223 243 C238 315 297 376 371 376 C446 376 479 315 464 242 C448 168 389 111 315 111 C242 111 207 169 223 243 L223 243 Z M362 608 C365 593 372 587 384 587 L455 587 C468 587 473 591 475 600 C475 605 475 610 473 619 L451 721 C446 736 441 742 428 742 L353 742 C345 742 339 740 337 732 C336 727 336 722 339 713 L362 608 Z " />
<glyph glyph-name="aacute" unicode="&#xe1;" horiz-adv-x="594" d="M425 27 C425 11 428 0 448 0 L512 0 C527 0 542 9 546 25 L639 464 C643 480 631 491 616 491 L562 491 C543 491 539 485 529 463 L510 415 C495 457 463 498 388 498 C245 498 123 389 92 244 C62 101 138 -10 280 -10 L283 -10 C356 -10 396 29 428 65 C427 52 427 40 425 27 L425 27 Z M223 243 C238 315 297 376 371 376 C446 376 479 315 464 242 C448 168 389 111 315 111 C242 111 207 169 223 243 L223 243 Z M544 713 C551 722 553 727 554 732 C555 740 550 742 542 742 L467 742 C454 742 446 736 435 721 L370 619 C364 610 362 605 360 600 C358 591 361 587 374 587 L445 587 C457 587 467 593 476 608 L544 713 Z " />
<glyph glyph-name="acircumflex" unicode="&#xe2;" horiz-adv-x="594" d="M425 27 C425 11 428 0 448 0 L512 0 C527 0 542 9 546 25 L639 464 C643 480 631 491 616 491 L562 491 C543 491 539 485 529 463 L510 415 C495 457 463 498 388 498 C245 498 123 389 92 244 C62 101 138 -10 280 -10 L283 -10 C356 -10 396 29 428 65 C427 52 427 40 425 27 L425 27 Z M223 243 C238 315 297 376 371 376 C446 376 479 315 464 242 C448 168 389 111 315 111 C242 111 207 169 223 243 L223 243 Z M273 642 C270 640 267 637 266 634 C264 628 265 623 268 619 L290 592 C296 586 302 577 309 577 C316 577 323 581 329 586 L423 663 L482 586 C491 575 495 576 497 576 C506 576 517 586 524 592 L558 620 C562 623 565 626 566 630 C567 635 565 640 563 642 C528 687 492 732 457 777 C454 780 451 782 448 782 C443 782 439 780 436 777 L273 642 Z " />
<glyph glyph-name="atilde" unicode="&#xe3;" horiz-adv-x="594" d="M425 27 C425 11 428 0 448 0 L512 0 C527 0 542 9 546 25 L639 464 C643 480 631 491 616 491 L562 491 C543 491 539 485 529 463 L510 415 C495 457 463 498 388 498 C245 498 123 389 92 244 C62 101 138 -10 280 -10 L283 -10 C356 -10 396 29 428 65 C427 52 427 40 425 27 L425 27 Z M223 243 C238 315 297 376 371 376 C446 376 479 315 464 242 C448 168 389 111 315 111 C242 111 207 169 223 243 L223 243 Z M361 607 C380 607 396 591 411 580 C428 565 451 556 475 556 C513 556 548 572 581 602 L598 620 C600 621 604 627 605 630 C606 635 605 638 603 642 L573 677 C570 680 567 681 564 681 C553 681 539 663 531 655 C519 645 507 641 493 641 C484 641 476 644 469 650 L445 668 C427 682 403 691 381 692 C343 692 305 675 272 641 L259 628 C251 619 246 613 254 604 L281 572 C300 552 331 607 361 607 L361 607 Z " />
<glyph glyph-name="adieresis" unicode="&#xe4;" horiz-adv-x="594" d="M425 27 C425 11 428 0 448 0 L512 0 C527 0 542 9 546 25 L639 464 C643 480 631 491 616 491 L562 491 C543 491 539 485 529 463 L510 415 C495 457 463 498 388 498 C245 498 123 389 92 244 C62 101 138 -10 280 -10 L283 -10 C356 -10 396 29 428 65 C427 52 427 40 425 27 L425 27 Z M223 243 C238 315 297 376 371 376 C446 376 479 315 464 242 C448 168 389 111 315 111 C242 111 207 169 223 243 L223 243 Z M256 633 C248 595 273 563 312 563 C352 563 389 595 398 633 C406 673 382 704 342 704 C303 704 265 673 256 633 L256 633 Z M459 634 C451 596 476 564 515 564 C555 564 593 596 601 634 C609 674 586 706 545 706 C506 706 468 674 459 634 L459 634 Z " />
<glyph glyph-name="aring" unicode="&#xe5;" horiz-adv-x="594" d="M425 27 C425 11 428 0 448 0 L512 0 C527 0 542 9 546 25 L639 464 C643 480 631 491 616 491 L562 491 C543 491 539 485 529 463 L510 415 C495 457 463 498 388 498 C245 498 123 389 92 244 C62 101 138 -10 280 -10 L283 -10 C356 -10 396 29 428 65 C427 52 427 40 425 27 L425 27 Z M223 243 C238 315 297 376 371 376 C446 376 479 315 464 242 C448 168 389 111 315 111 C242 111 207 169 223 243 L223 243 Z M454 807 C395 807 339 759 327 701 C315 643 351 597 409 597 C467 597 525 643 537 701 C549 759 512 807 454 807 L454 807 Z M441 743 C464 743 478 725 473 701 C468 678 446 661 423 661 C400 661 387 678 392 701 C397 725 417 743 441 743 L441 743 Z " />
<glyph glyph-name="ae" unicode="&#xe6;" horiz-adv-x="915" d="M410 27 C410 11 413 0 433 0 L497 0 C512 0 527 9 531 25 L624 464 C628 480 616 491 601 491 L547 491 C528 491 524 485 514 463 L495 415 C480 457 448 498 373 498 C230 498 108 389 77 244 C47 101 123 -10 265 -10 L268 -10 C341 -10 381 29 413 65 C412 52 412 40 410 27 L410 27 Z M208 243 C223 315 282 376 356 376 C431 376 464 315 449 242 C433 168 374 111 300 111 C227 111 192 169 208 243 L208 243 Z M688 107 C638 107 589 146 595 204 L866 204 C908 204 943 213 952 260 C977 386 903 501 756 501 C633 501 494 382 464 244 C434 102 526 -12 665 -12 C722 -12 780 4 829 37 C838 43 848 51 850 61 C850 64 850 69 848 74 L821 136 C817 143 813 145 807 145 C800 145 789 136 777 131 C748 116 716 106 688 107 L688 107 Z M614 290 C631 341 691 382 740 382 C800 382 839 346 829 290 L614 290 Z " />
<glyph glyph-name="ccedilla" unicode="&#xe7;" horiz-adv-x="511" d="M318 115 C246 115 202 167 219 243 C234 316 304 378 378 378 C410 378 443 364 463 346 C468 342 473 339 477 339 C484 339 490 343 495 349 L548 416 C550 418 553 424 554 427 C556 438 551 445 541 452 C502 482 456 501 403 501 C262 501 123 386 92 244 C62 102 154 -11 294 -11 C352 -11 409 11 459 40 C467 45 478 51 481 63 C481 65 480 70 479 74 L455 127 C451 137 447 147 438 147 C434 147 427 145 422 142 C386 127 358 116 318 115 L318 115 Z M227 -265 C360 -232 395 -185 405 -137 C421 -63 312 -43 323 6 L239 6 L234 -15 C222 -75 323 -92 313 -137 C309 -157 284 -173 215 -190 L209 -191 C202 -194 196 -201 197 -208 L209 -260 C210 -267 218 -268 227 -265 L227 -265 Z " />
<glyph glyph-name="egrave" unicode="&#xe8;" horiz-adv-x="532" d="M317 107 C267 107 218 146 224 204 L495 204 C537 204 572 213 581 260 C606 386 532 501 385 501 C262 501 123 382 93 244 C63 102 155 -12 294 -12 C351 -12 409 4 458 37 C467 43 477 51 479 61 C479 64 479 69 477 74 L450 136 C446 143 442 145 436 145 C429 145 418 136 406 131 C377 116 345 106 317 107 L317 107 Z M243 290 C260 341 320 382 369 382 C429 382 468 346 458 290 L243 290 Z M352 608 C355 593 362 587 374 587 L445 587 C458 587 463 591 465 600 C465 605 465 610 463 619 L441 721 C436 736 431 742 418 742 L343 742 C335 742 329 740 327 732 C326 727 326 722 329 713 L352 608 Z " />
<glyph glyph-name="eacute" unicode="&#xe9;" horiz-adv-x="532" d="M317 107 C267 107 218 146 224 204 L495 204 C537 204 572 213 581 260 C606 386 532 501 385 501 C262 501 123 382 93 244 C63 102 155 -12 294 -12 C351 -12 409 4 458 37 C467 43 477 51 479 61 C479 64 479 69 477 74 L450 136 C446 143 442 145 436 145 C429 145 418 136 406 131 C377 116 345 106 317 107 L317 107 Z M243 290 C260 341 320 382 369 382 C429 382 468 346 458 290 L243 290 Z M559 713 C566 722 568 727 569 732 C570 740 565 742 557 742 L482 742 C469 742 461 736 450 721 L385 619 C379 610 377 605 375 600 C373 591 376 587 389 587 L460 587 C472 587 482 593 491 608 L559 713 Z " />
<glyph glyph-name="ecircumflex" unicode="&#xea;" horiz-adv-x="532" d="M317 107 C267 107 218 146 224 204 L495 204 C537 204 572 213 581 260 C606 386 532 501 385 501 C262 501 123 382 93 244 C63 102 155 -12 294 -12 C351 -12 409 4 458 37 C467 43 477 51 479 61 C479 64 479 69 477 74 L450 136 C446 143 442 145 436 145 C429 145 418 136 406 131 C377 116 345 106 317 107 L317 107 Z M243 290 C260 341 320 382 369 382 C429 382 468 346 458 290 L243 290 Z M279 642 C276 640 273 637 272 634 C270 628 271 623 274 619 L296 592 C302 586 308 577 315 577 C322 577 329 581 335 586 L429 663 L488 586 C497 575 501 576 503 576 C512 576 523 586 530 592 L564 620 C568 623 571 626 572 630 C573 635 571 640 569 642 C534 687 498 732 463 777 C460 780 457 782 454 782 C449 782 445 780 442 777 L279 642 Z " />
<glyph glyph-name="edieresis" unicode="&#xeb;" horiz-adv-x="532" d="M317 107 C267 107 218 146 224 204 L495 204 C537 204 572 213 581 260 C606 386 532 501 385 501 C262 501 123 382 93 244 C63 102 155 -12 294 -12 C351 -12 409 4 458 37 C467 43 477 51 479 61 C479 64 479 69 477 74 L450 136 C446 143 442 145 436 145 C429 145 418 136 406 131 C377 116 345 106 317 107 L317 107 Z M243 290 C260 341 320 382 369 382 C429 382 468 346 458 290 L243 290 Z M260 633 C252 595 277 563 316 563 C356 563 393 595 402 633 C410 673 386 704 346 704 C307 704 269 673 260 633 L260 633 Z M463 634 C455 596 480 564 519 564 C559 564 597 596 605 634 C613 674 590 706 549 706 C510 706 472 674 463 634 L463 634 Z " />
<glyph glyph-name="igrave" unicode="&#xec;" horiz-adv-x="288" d="M306 467 C309 481 298 491 286 491 L202 491 C187 491 177 481 174 467 L79 23 C76 8 83 0 98 0 L182 0 C198 0 208 8 211 23 L306 467 Z M195 608 C198 593 205 587 217 587 L288 587 C301 587 306 591 308 600 C308 605 308 610 306 619 L284 721 C279 736 274 742 261 742 L186 742 C178 742 172 740 170 732 C169 727 169 722 172 713 L195 608 Z " />
<glyph glyph-name="iacute" unicode="&#xed;" horiz-adv-x="288" d="M306 467 C309 481 298 491 286 491 L202 491 C187 491 177 481 174 467 L79 23 C76 8 83 0 98 0 L182 0 C198 0 208 8 211 23 L306 467 Z M426 713 C433 722 435 727 436 732 C437 740 432 742 424 742 L349 742 C336 742 328 736 317 721 L252 619 C246 610 244 605 242 600 C240 591 243 587 256 587 L327 587 C339 587 349 593 358 608 L426 713 Z " />
<glyph glyph-name="icircumflex" unicode="&#xee;" horiz-adv-x="288" d="M306 467 C309 481 298 491 286 491 L202 491 C187 491 177 481 174 467 L79 23 C76 8 83 0 98 0 L182 0 C198 0 208 8 211 23 L306 467 Z M120 642 C117 640 114 637 113 634 C111 628 112 623 115 619 L137 592 C143 586 149 577 156 577 C163 577 170 581 176 586 L270 663 L329 586 C338 575 342 576 344 576 C353 576 364 586 371 592 L405 620 C409 623 412 626 413 630 C414 635 412 640 410 642 C375 687 339 732 304 777 C301 780 298 782 295 782 C290 782 286 780 283 777 L120 642 Z " />
<glyph glyph-name="idieresis" unicode="&#xef;" horiz-adv-x="288" d="M306 467 C309 481 298 491 286 491 L202 491 C187 491 177 481 174 467 L79 23 C76 8 83 0 98 0 L182 0 C198 0 208 8 211 23 L306 467 Z M114 633 C106 595 131 563 170 563 C210 563 247 595 256 633 C264 673 240 704 200 704 C161 704 123 673 114 633 L114 633 Z M317 634 C309 596 334 564 373 564 C413 564 451 596 459 634 C467 674 444 706 403 706 C364 706 326 674 317 634 L317 634 Z " />
<glyph glyph-name="eth" unicode="&#xf0;" horiz-adv-x="574" d="M608 229 C610 234 611 239 612 244 C622 289 620 334 606 373 C577 454 548 535 519 616 L565 640 C587 653 590 659 591 661 C593 674 581 695 571 718 C568 724 566 728 560 728 C553 728 542 722 534 718 L490 696 L482 720 C477 735 471 742 454 742 L357 742 C344 742 337 740 336 732 C335 730 335 722 337 718 L366 634 L335 619 C316 611 295 600 293 591 C291 583 301 561 307 545 C313 524 323 522 328 522 C331 522 334 523 340 526 L395 554 C402 535 408 517 417 492 C410 493 401 493 393 493 C258 493 125 378 96 244 C66 103 157 -10 300 -10 C438 -10 572 92 608 229 L608 229 Z M481 243 C466 170 400 112 327 112 C255 112 215 170 230 243 C246 316 311 376 384 376 C457 376 497 316 481 243 L481 243 Z " />
<glyph glyph-name="ntilde" unicode="&#xf1;" horiz-adv-x="614" d="M262 491 L208 491 C188 491 176 480 171 461 L79 27 C76 11 83 0 103 0 L183 0 C203 0 215 10 218 27 L272 279 C290 327 353 366 396 366 C448 366 479 330 467 276 L415 28 C411 10 416 0 437 0 L519 0 C535 0 550 11 554 29 L611 299 C636 414 583 497 459 497 C394 497 331 462 293 427 C292 462 302 491 262 491 L262 491 Z M378 615 C397 615 413 599 428 588 C445 573 468 564 492 564 C530 564 565 580 598 610 L615 628 C617 629 621 635 622 638 C623 643 622 646 620 650 L590 685 C587 688 584 689 581 689 C570 689 556 671 548 663 C536 653 524 649 510 649 C501 649 493 652 486 658 L462 676 C444 690 420 699 398 700 C360 700 322 683 289 649 L276 636 C268 627 263 621 271 612 L298 580 C317 560 348 615 378 615 L378 615 Z " />
<glyph glyph-name="ograve" unicode="&#xf2;" horiz-adv-x="585" d="M76 244 C46 102 137 -11 281 -11 C424 -11 564 102 594 244 C624 386 532 501 389 501 C245 501 106 386 76 244 L76 244 Z M209 243 C224 314 292 374 363 374 C434 374 477 314 462 243 C446 171 379 113 308 113 C236 113 194 171 209 243 L209 243 Z M343 608 C346 593 353 587 365 587 L436 587 C449 587 454 591 456 600 C456 605 456 610 454 619 L432 721 C427 736 422 742 409 742 L334 742 C326 742 320 740 318 732 C317 727 317 722 320 713 L343 608 Z " />
<glyph glyph-name="oacute" unicode="&#xf3;" horiz-adv-x="585" d="M76 244 C46 102 137 -11 281 -11 C424 -11 564 102 594 244 C624 386 532 501 389 501 C245 501 106 386 76 244 L76 244 Z M209 243 C224 314 292 374 363 374 C434 374 477 314 462 243 C446 171 379 113 308 113 C236 113 194 171 209 243 L209 243 Z M541 713 C548 722 550 727 551 732 C552 740 547 742 539 742 L464 742 C451 742 443 736 432 721 L367 619 C361 610 359 605 357 600 C355 591 358 587 371 587 L442 587 C454 587 464 593 473 608 L541 713 Z " />
<glyph glyph-name="ocircumflex" unicode="&#xf4;" horiz-adv-x="585" d="M76 244 C46 102 137 -11 281 -11 C424 -11 564 102 594 244 C624 386 532 501 389 501 C245 501 106 386 76 244 L76 244 Z M209 243 C224 314 292 374 363 374 C434 374 477 314 462 243 C446 171 379 113 308 113 C236 113 194 171 209 243 L209 243 Z M272 642 C269 640 266 637 265 634 C263 628 264 623 267 619 L289 592 C295 586 301 577 308 577 C315 577 322 581 328 586 L422 663 L481 586 C490 575 494 576 496 576 C505 576 516 586 523 592 L557 620 C561 623 564 626 565 630 C566 635 564 640 562 642 C527 687 491 732 456 777 C453 780 450 782 447 782 C442 782 438 780 435 777 L272 642 Z " />
<glyph glyph-name="otilde" unicode="&#xf5;" horiz-adv-x="585" d="M76 244 C46 102 137 -11 281 -11 C424 -11 564 102 594 244 C624 386 532 501 389 501 C245 501 106 386 76 244 L76 244 Z M209 243 C224 314 292 374 363 374 C434 374 477 314 462 243 C446 171 379 113 308 113 C236 113 194 171 209 243 L209 243 Z M364 617 C383 617 399 601 414 590 C431 575 454 566 478 566 C516 566 551 582 584 612 L601 630 C603 631 607 637 608 640 C609 645 608 648 606 652 L576 687 C573 690 570 691 567 691 C556 691 542 673 534 665 C522 655 510 651 496 651 C487 651 479 654 472 660 L448 678 C430 692 406 701 384 702 C346 702 308 685 275 651 L262 638 C254 629 249 623 257 614 L284 582 C303 562 334 617 364 617 L364 617 Z " />
<glyph glyph-name="odieresis" unicode="&#xf6;" horiz-adv-x="585" d="M76 244 C46 102 137 -11 281 -11 C424 -11 564 102 594 244 C624 386 532 501 389 501 C245 501 106 386 76 244 L76 244 Z M209 243 C224 314 292 374 363 374 C434 374 477 314 462 243 C446 171 379 113 308 113 C236 113 194 171 209 243 L209 243 Z M246 633 C238 595 263 563 302 563 C342 563 379 595 388 633 C396 673 372 704 332 704 C293 704 255 673 246 633 L246 633 Z M449 634 C441 596 466 564 505 564 C545 564 583 596 591 634 C599 674 576 706 535 706 C496 706 458 674 449 634 L449 634 Z " />
<glyph glyph-name="divide" unicode="&#xf7;" horiz-adv-x="451" d="M256 464 C247 422 273 389 314 389 C358 389 396 422 405 464 C414 505 390 539 346 539 C305 539 264 505 256 464 L256 464 Z M167 59 C158 18 185 -16 225 -16 C269 -16 307 18 316 59 C325 101 300 134 257 134 C216 134 175 101 167 59 L167 59 Z M430 195 C446 195 459 207 463 223 L480 301 C483 317 474 329 458 329 L142 329 C123 329 111 319 108 301 L91 223 C87 205 95 195 114 195 L430 195 Z " />
<glyph glyph-name="oslash" unicode="&#xf8;" horiz-adv-x="585" d="M64 -52 C57 -63 58 -76 77 -76 L164 -76 C177 -76 185 -70 194 -57 C204 -40 216 -23 228 -5 C243 -8 259 -9 275 -9 C415 -9 551 102 581 244 C599 329 574 403 520 449 L578 539 C579 540 582 547 582 550 C585 562 577 566 562 566 L484 566 C468 566 457 558 448 545 L415 494 C404 495 393 496 382 496 C241 496 106 386 76 244 C59 163 80 92 127 46 L64 -52 Z M199 243 C214 314 282 374 353 374 C424 374 467 314 452 243 C436 171 369 113 298 113 C226 113 184 171 199 243 L199 243 Z " />
<glyph glyph-name="ugrave" unicode="&#xf9;" horiz-adv-x="608" d="M453 0 L507 0 C528 0 540 11 544 30 L636 463 C639 479 632 491 613 491 L532 491 C512 491 501 481 497 463 L443 211 C433 160 354 125 311 125 C259 125 233 160 244 214 L297 462 C301 481 296 491 275 491 L193 491 C177 491 162 480 158 461 L100 191 C76 76 124 -6 248 -6 C313 -6 380 25 418 60 C420 25 413 0 453 0 L453 0 Z M379 608 C382 593 389 587 401 587 L472 587 C485 587 490 591 492 600 C492 605 492 610 490 619 L468 721 C463 736 458 742 445 742 L370 742 C362 742 356 740 354 732 C353 727 353 722 356 713 L379 608 Z " />
<glyph glyph-name="uacute" unicode="&#xfa;" horiz-adv-x="608" d="M453 0 L507 0 C528 0 540 11 544 30 L636 463 C639 479 632 491 613 491 L532 491 C512 491 501 481 497 463 L443 211 C433 160 354 125 311 125 C259 125 233 160 244 214 L297 462 C301 481 296 491 275 491 L193 491 C177 491 162 480 158 461 L100 191 C76 76 124 -6 248 -6 C313 -6 380 25 418 60 C420 25 413 0 453 0 L453 0 Z M538 713 C545 722 547 727 548 732 C549 740 544 742 536 742 L461 742 C448 742 440 736 429 721 L364 619 C358 610 356 605 354 600 C352 591 355 587 368 587 L439 587 C451 587 461 593 470 608 L538 713 Z " />
<glyph glyph-name="ucircumflex" unicode="&#xfb;" horiz-adv-x="608" d="M453 0 L507 0 C528 0 540 11 544 30 L636 463 C639 479 632 491 613 491 L532 491 C512 491 501 481 497 463 L443 211 C433 160 354 125 311 125 C259 125 233 160 244 214 L297 462 C301 481 296 491 275 491 L193 491 C177 491 162 480 158 461 L100 191 C76 76 124 -6 248 -6 C313 -6 380 25 418 60 C420 25 413 0 453 0 L453 0 Z M284 642 C281 640 278 637 277 634 C275 628 276 623 279 619 L301 592 C307 586 313 577 320 577 C327 577 334 581 340 586 L434 663 L493 586 C502 575 506 576 508 576 C517 576 528 586 535 592 L569 620 C573 623 576 626 577 630 C578 635 576 640 574 642 C539 687 503 732 468 777 C465 780 462 782 459 782 C454 782 450 780 447 777 L284 642 Z " />
<glyph glyph-name="udieresis" unicode="&#xfc;" horiz-adv-x="608" d="M453 0 L507 0 C528 0 540 11 544 30 L636 463 C639 479 632 491 613 491 L532 491 C512 491 501 481 497 463 L443 211 C433 160 354 125 311 125 C259 125 233 160 244 214 L297 462 C301 481 296 491 275 491 L193 491 C177 491 162 480 158 461 L100 191 C76 76 124 -6 248 -6 C313 -6 380 25 418 60 C420 25 413 0 453 0 L453 0 Z M257 633 C249 595 274 563 313 563 C353 563 390 595 399 633 C407 673 383 704 343 704 C304 704 266 673 257 633 L257 633 Z M460 634 C452 596 477 564 516 564 C556 564 594 596 602 634 C610 674 587 706 546 706 C507 706 469 674 460 634 L460 634 Z " />
<glyph glyph-name="yacute" unicode="&#xfd;" horiz-adv-x="559" d="M629 448 C634 457 636 463 637 466 C640 481 635 491 614 491 L528 491 C511 491 499 484 490 469 L320 175 L273 468 L273 467 C272 481 263 491 246 491 L159 491 C136 491 123 475 127 453 L215 5 L120 -164 C109 -182 115 -198 138 -198 L223 -198 C238 -198 249 -187 256 -176 L629 448 Z M533 713 C540 722 542 727 543 732 C544 740 539 742 531 742 L456 742 C443 742 435 736 424 721 L359 619 C353 610 351 605 349 600 C347 591 350 587 363 587 L434 587 C446 587 456 593 465 608 L533 713 Z " />
<glyph glyph-name="thorn" unicode="&#xfe;" horiz-adv-x="591" d="M483 247 C467 174 406 114 340 114 C275 114 237 170 249 240 L252 256 C271 324 332 379 396 379 C462 379 499 320 483 247 L483 247 Z M60 -194 L137 -194 C155 -194 166 -183 169 -168 L216 52 C233 19 268 -8 327 -8 C464 -8 586 105 616 246 L616 248 C646 389 571 501 435 501 C378 501 328 472 299 440 L353 697 C356 711 349 721 334 721 L251 721 C238 721 224 712 221 697 L37 -168 C34 -184 46 -194 60 -194 L60 -194 Z " />
<glyph glyph-name="ydieresis" unicode="&#xff;" horiz-adv-x="559" d="M629 448 C634 457 636 463 637 466 C640 481 635 491 614 491 L528 491 C511 491 499 484 490 469 L320 175 L273 468 L273 467 C272 481 263 491 246 491 L159 491 C136 491 123 475 127 453 L215 5 L120 -164 C109 -182 115 -198 138 -198 L223 -198 C238 -198 249 -187 256 -176 L629 448 Z M245 633 C237 595 262 563 301 563 C341 563 378 595 387 633 C395 673 371 704 331 704 C292 704 254 673 245 633 L245 633 Z M448 634 C440 596 465 564 504 564 C544 564 582 596 590 634 C598 674 575 706 534 706 C495 706 457 674 448 634 L448 634 Z " />
<glyph glyph-name="Amacron" unicode="&#x100;" horiz-adv-x="728" d="M450 726 C157 255 5 20 5 18 C2 6 7 0 23 0 L154 0 C163 0 171 5 176 15 L251 137 L548 137 L572 15 C573 3 578 0 591 0 L697 0 C720 0 726 10 728 20 L729 23 L581 726 C578 735 572 742 558 742 L483 742 C465 742 457 735 450 726 L450 726 Z M484 532 L529 268 L327 268 L484 532 Z M363 870 C360 857 364 850 376 850 L739 850 C751 850 759 862 761 870 L772 920 C774 932 769 938 757 938 L395 938 C383 938 376 932 374 920 L363 870 Z " />
<glyph glyph-name="amacron" unicode="&#x101;" horiz-adv-x="594" d="M425 27 C425 11 428 0 448 0 L512 0 C527 0 542 9 546 25 L639 464 C643 480 631 491 616 491 L562 491 C543 491 539 485 529 463 L510 415 C495 457 463 498 388 498 C245 498 123 389 92 244 C62 101 138 -10 280 -10 L283 -10 C356 -10 396 29 428 65 C427 52 427 40 425 27 L425 27 Z M223 243 C238 315 297 376 371 376 C446 376 479 315 464 242 C448 168 389 111 315 111 C242 111 207 169 223 243 L223 243 Z M249 618 C246 605 250 598 262 598 L625 598 C637 598 645 610 647 618 L658 668 C660 680 655 686 643 686 L281 686 C269 686 262 680 260 668 L249 618 Z " />
<glyph glyph-name="Abreve" unicode="&#x102;" horiz-adv-x="728" d="M450 726 C157 255 5 20 5 18 C2 6 7 0 23 0 L154 0 C163 0 171 5 176 15 L251 137 L548 137 L572 15 C573 3 578 0 591 0 L697 0 C720 0 726 10 728 20 L729 23 L581 726 C578 735 572 742 558 742 L483 742 C465 742 457 735 450 726 L450 726 Z M484 532 L529 268 L327 268 L484 532 Z M565 856 C640 857 710 914 724 977 C726 989 717 996 705 996 L654 996 C643 996 637 987 635 978 C632 960 611 943 585 943 C555 943 544 961 548 980 C550 989 545 996 536 996 L483 996 C473 996 462 988 460 977 C446 915 491 858 565 856 L565 856 Z " />
<glyph glyph-name="abreve" unicode="&#x103;" horiz-adv-x="594" d="M425 27 C425 11 428 0 448 0 L512 0 C527 0 542 9 546 25 L639 464 C643 480 631 491 616 491 L562 491 C543 491 539 485 529 463 L510 415 C495 457 463 498 388 498 C245 498 123 389 92 244 C62 101 138 -10 280 -10 L283 -10 C356 -10 396 29 428 65 C427 52 427 40 425 27 L425 27 Z M223 243 C238 315 297 376 371 376 C446 376 479 315 464 242 C448 168 389 111 315 111 C242 111 207 169 223 243 L223 243 Z M417 604 C492 605 562 662 576 725 C578 737 569 744 557 744 L506 744 C495 744 489 735 487 726 C484 708 463 691 437 691 C407 691 396 709 400 728 C402 737 397 744 388 744 L335 744 C325 744 314 736 312 725 C298 663 343 606 417 604 L417 604 Z " />
<glyph glyph-name="Aogonek" unicode="&#x104;" horiz-adv-x="728" d="M450 726 C157 255 5 20 5 18 C2 6 7 0 23 0 L154 0 C163 0 171 5 176 15 L251 137 L548 137 L572 15 C573 3 578 0 591 0 L697 0 C720 0 726 10 728 20 L729 23 L581 726 C578 735 572 742 558 742 L483 742 C465 742 457 735 450 726 L450 726 Z M484 532 L529 268 L327 268 L484 532 Z M590 -263 C605 -267 611 -263 615 -256 L643 -205 C645 -201 646 -190 635 -188 C572 -172 554 -155 558 -135 C568 -90 677 -73 689 -13 L694 8 L610 8 C599 -44 483 -61 467 -135 C457 -183 473 -231 590 -263 L590 -263 Z " />
<glyph glyph-name="aogonek" unicode="&#x105;" horiz-adv-x="594" d="M425 27 C425 11 428 0 448 0 L512 0 C527 0 542 9 546 25 L639 464 C643 480 631 491 616 491 L562 491 C543 491 539 485 529 463 L510 415 C495 457 463 498 388 498 C245 498 123 389 92 244 C62 101 138 -10 280 -10 L283 -10 C356 -10 396 29 428 65 C427 52 427 40 425 27 L425 27 Z M223 243 C238 315 297 376 371 376 C446 376 479 315 464 242 C448 168 389 111 315 111 C242 111 207 169 223 243 L223 243 Z M418 -256 C433 -260 439 -256 443 -249 L471 -198 C473 -194 474 -183 463 -181 C400 -165 382 -148 386 -128 C396 -83 505 -66 517 -6 L522 15 L438 15 C427 -37 311 -54 295 -128 C285 -176 301 -224 418 -256 L418 -256 Z " />
<glyph glyph-name="Cacute" unicode="&#x106;" horiz-adv-x="705" d="M785 688 C732 730 665 753 586 753 C350 753 114 536 114 290 C114 118 239 -11 423 -11 C503 -11 581 13 653 55 C663 61 671 67 671 79 C671 81 671 83 670 86 L639 169 C634 177 630 180 624 180 C619 180 613 179 607 175 C559 145 506 127 452 127 C336 127 265 206 265 314 C265 474 403 615 555 615 C609 615 655 597 689 567 C694 564 698 562 703 562 C709 562 716 566 724 574 L790 656 C794 661 795 667 795 671 C795 679 791 684 785 688 L785 688 Z M755 964 C762 973 764 978 765 983 C766 991 761 993 753 993 L678 993 C665 993 657 987 646 972 L581 870 C575 861 573 856 571 851 C569 842 572 838 585 838 L656 838 C668 838 678 844 687 859 L755 964 Z " />
<glyph glyph-name="cacute" unicode="&#x107;" horiz-adv-x="511" d="M318 115 C246 115 202 167 219 243 C234 316 304 378 378 378 C410 378 443 364 463 346 C468 342 473 339 477 339 C484 339 490 343 495 349 L548 416 C550 418 553 424 554 427 C556 438 551 445 541 452 C502 482 456 501 403 501 C262 501 123 386 92 244 C62 102 154 -11 294 -11 C352 -11 409 11 459 40 C467 45 478 51 481 63 C481 65 480 70 479 74 L455 127 C451 137 447 147 438 147 C434 147 427 145 422 142 C386 127 358 116 318 115 L318 115 Z M533 713 C540 722 542 727 543 732 C544 740 539 742 531 742 L456 742 C443 742 435 736 424 721 L359 619 C353 610 351 605 349 600 C347 591 350 587 363 587 L434 587 C446 587 456 593 465 608 L533 713 Z " />
<glyph glyph-name="Ccircumflex" unicode="&#x108;" horiz-adv-x="705" d="M785 688 C732 730 665 753 586 753 C350 753 114 536 114 290 C114 118 239 -11 423 -11 C503 -11 581 13 653 55 C663 61 671 67 671 79 C671 81 671 83 670 86 L639 169 C634 177 630 180 624 180 C619 180 613 179 607 175 C559 145 506 127 452 127 C336 127 265 206 265 314 C265 474 403 615 555 615 C609 615 655 597 689 567 C694 564 698 562 703 562 C709 562 716 566 724 574 L790 656 C794 661 795 667 795 671 C795 679 791 684 785 688 L785 688 Z M457 893 C454 891 451 888 450 885 C448 879 449 874 452 870 L474 843 C480 837 486 828 493 828 C500 828 507 832 513 837 L607 914 L666 837 C675 826 679 827 681 827 C690 827 701 837 708 843 L742 871 C746 874 749 877 750 881 C751 886 749 891 747 893 C712 938 676 983 641 1028 C638 1031 635 1033 632 1033 C627 1033 623 1031 620 1028 L457 893 Z " />
<glyph glyph-name="ccircumflex" unicode="&#x109;" horiz-adv-x="511" d="M318 115 C246 115 202 167 219 243 C234 316 304 378 378 378 C410 378 443 364 463 346 C468 342 473 339 477 339 C484 339 490 343 495 349 L548 416 C550 418 553 424 554 427 C556 438 551 445 541 452 C502 482 456 501 403 501 C262 501 123 386 92 244 C62 102 154 -11 294 -11 C352 -11 409 11 459 40 C467 45 478 51 481 63 C481 65 480 70 479 74 L455 127 C451 137 447 147 438 147 C434 147 427 145 422 142 C386 127 358 116 318 115 L318 115 Z M283 623 C280 621 277 618 276 615 C274 609 275 604 278 600 L300 573 C306 567 312 558 319 558 C326 558 333 562 339 567 L433 644 L492 567 C501 556 505 557 507 557 C516 557 527 567 534 573 L568 601 C572 604 575 607 576 611 C577 616 575 621 573 623 C538 668 502 713 467 758 C464 761 461 763 458 763 C453 763 449 761 446 758 L283 623 Z " />
<glyph glyph-name="Cdotaccent" unicode="&#x10a;" horiz-adv-x="705" d="M785 688 C732 730 665 753 586 753 C350 753 114 536 114 290 C114 118 239 -11 423 -11 C503 -11 581 13 653 55 C663 61 671 67 671 79 C671 81 671 83 670 86 L639 169 C634 177 630 180 624 180 C619 180 613 179 607 175 C559 145 506 127 452 127 C336 127 265 206 265 314 C265 474 403 615 555 615 C609 615 655 597 689 567 C694 564 698 562 703 562 C709 562 716 566 724 574 L790 656 C794 661 795 667 795 671 C795 679 791 684 785 688 L785 688 Z M543 885 C534 846 560 814 598 814 C639 814 676 846 684 885 C692 924 669 956 628 956 C590 956 551 924 543 885 L543 885 Z " />
<glyph glyph-name="cdotaccent" unicode="&#x10b;" horiz-adv-x="511" d="M318 115 C246 115 202 167 219 243 C234 316 304 378 378 378 C410 378 443 364 463 346 C468 342 473 339 477 339 C484 339 490 343 495 349 L548 416 C550 418 553 424 554 427 C556 438 551 445 541 452 C502 482 456 501 403 501 C262 501 123 386 92 244 C62 102 154 -11 294 -11 C352 -11 409 11 459 40 C467 45 478 51 481 63 C481 65 480 70 479 74 L455 127 C451 137 447 147 438 147 C434 147 427 145 422 142 C386 127 358 116 318 115 L318 115 Z M380 655 C371 611 399 574 443 574 C489 574 532 611 541 655 C551 700 524 736 478 736 C434 736 390 700 380 655 L380 655 Z " />
<glyph glyph-name="Ccaron" unicode="&#x10c;" horiz-adv-x="705" d="M785 688 C732 730 665 753 586 753 C350 753 114 536 114 290 C114 118 239 -11 423 -11 C503 -11 581 13 653 55 C663 61 671 67 671 79 C671 81 671 83 670 86 L639 169 C634 177 630 180 624 180 C619 180 613 179 607 175 C559 145 506 127 452 127 C336 127 265 206 265 314 C265 474 403 615 555 615 C609 615 655 597 689 567 C694 564 698 562 703 562 C709 562 716 566 724 574 L790 656 C794 661 795 667 795 671 C795 679 791 684 785 688 L785 688 Z M577 823 C580 821 582 818 587 818 C590 818 594 821 598 823 L762 958 C765 960 768 965 769 970 C770 974 768 977 766 981 L744 1008 C738 1015 731 1024 724 1024 C720 1024 711 1020 705 1014 L612 937 L548 1018 C542 1026 534 1027 527 1021 L490 992 L473 979 C471 977 469 974 469 971 C468 967 470 960 471 958 L577 823 Z " />
<glyph glyph-name="ccaron" unicode="&#x10d;" horiz-adv-x="511" d="M318 115 C246 115 202 167 219 243 C234 316 304 378 378 378 C410 378 443 364 463 346 C468 342 473 339 477 339 C484 339 490 343 495 349 L548 416 C550 418 553 424 554 427 C556 438 551 445 541 452 C502 482 456 501 403 501 C262 501 123 386 92 244 C62 102 154 -11 294 -11 C352 -11 409 11 459 40 C467 45 478 51 481 63 C481 65 480 70 479 74 L455 127 C451 137 447 147 438 147 C434 147 427 145 422 142 C386 127 358 116 318 115 L318 115 Z M438 572 C441 570 443 567 448 567 C451 567 455 570 459 572 L623 707 C626 709 629 714 630 719 C631 723 629 726 627 730 L605 757 C599 764 592 773 585 773 C581 773 572 769 566 763 L473 686 L409 767 C403 775 395 776 388 770 L351 741 L334 728 C332 726 330 723 330 720 C329 716 331 709 332 707 L438 572 Z " />
<glyph glyph-name="Dcaron" unicode="&#x10e;" horiz-adv-x="745" d="M795 370 C750 159 546 0 335 0 L105 0 C96 0 84 0 84 14 C84 15 84 17 85 20 L233 718 C237 735 246 743 263 743 L493 743 C675 742 803 619 803 448 C803 423 800 397 795 370 L795 370 Z M357 608 L257 136 L353 136 C500 136 651 258 651 422 C651 532 569 607 453 608 L357 608 Z M506 824 C509 822 511 819 516 819 C519 819 523 822 527 824 L691 959 C694 961 697 966 698 971 C699 975 697 978 695 982 L673 1009 C667 1016 660 1025 653 1025 C649 1025 640 1021 634 1015 L541 938 L477 1019 C471 1027 463 1028 456 1022 L419 993 L402 980 C400 978 398 975 398 972 C397 968 399 961 400 959 L506 824 Z " />
<glyph glyph-name="dcaron" unicode="&#x10f;" horiz-adv-x="594" d="M681 717 C684 732 672 742 658 742 L581 742 C563 742 552 732 549 717 L489 436 C469 471 440 497 377 497 C236 497 118 384 88 243 C58 103 130 -10 267 -10 C335 -10 376 14 420 62 C419 37 414 8 431 3 C441 1 453 0 465 0 L504 0 C521 1 531 10 534 25 L681 717 Z M462 242 L461 241 C445 169 383 110 313 110 C237 110 207 169 223 242 C238 315 294 375 369 375 C440 375 477 315 462 242 L462 242 Z M687 668 C680 634 700 602 730 596 C728 583 719 572 715 568 L707 559 C702 555 701 551 700 547 C699 542 700 537 702 534 L721 518 C724 516 728 513 735 513 C753 513 813 562 834 663 C844 710 819 743 777 743 C736 743 696 710 687 668 L687 668 Z " />
<glyph glyph-name="Dcroat" unicode="&#x110;" horiz-adv-x="775" d="M125 423 C108 423 96 414 93 399 L79 334 C76 316 83 306 100 306 L140 306 L81 26 C76 5 88 0 103 0 L335 0 C544 0 747 162 791 370 C835 579 703 742 493 742 L261 742 C243 742 230 731 227 714 L165 423 L125 423 Z M253 140 L288 306 L347 306 C362 306 375 321 377 334 L391 399 C394 414 386 423 372 423 L313 423 L351 602 L431 602 C446 602 461 601 476 600 C593 593 672 503 644 373 C619 252 497 150 373 141 C347 140 321 140 296 140 L253 140 Z " />
<glyph glyph-name="dcroat" unicode="&#x111;" horiz-adv-x="594" d="M681 717 C684 732 672 742 658 742 L581 742 C563 742 552 732 549 717 L489 436 C469 471 440 497 377 497 C236 497 118 384 88 243 C58 103 130 -10 267 -10 C335 -10 376 14 420 62 C419 37 414 8 431 3 C441 1 453 0 465 0 L504 0 C521 1 531 10 534 25 L681 717 Z M462 242 L461 241 C445 169 383 110 313 110 C237 110 207 169 223 242 C238 315 294 375 369 375 C440 375 477 315 462 242 L462 242 Z M456 666 C442 666 433 658 430 645 L418 590 C414 575 421 568 434 568 L703 568 C716 568 728 580 730 590 L743 645 C746 658 738 666 725 666 L456 666 Z " />
<glyph glyph-name="Emacron" unicode="&#x112;" horiz-adv-x="642" d="M85 21 C84 19 84 17 84 15 C84 5 92 0 103 0 L598 0 C612 0 621 6 624 21 L643 112 C644 116 645 119 645 122 C645 132 640 136 626 136 L257 136 L296 318 L571 318 C585 318 594 329 597 341 L616 432 C616 434 617 437 617 439 C617 449 611 454 601 454 C600 454 600 454 599 454 L325 454 L357 606 L712 606 C729 606 740 617 742 629 L761 717 C761 720 762 722 762 725 C762 735 756 742 742 742 L260 742 C246 742 237 735 233 718 L85 21 Z M338 870 C335 857 339 850 351 850 L714 850 C726 850 734 862 736 870 L747 920 C749 932 744 938 732 938 L370 938 C358 938 351 932 349 920 L338 870 Z " />
<glyph glyph-name="emacron" unicode="&#x113;" horiz-adv-x="532" d="M317 107 C267 107 218 146 224 204 L495 204 C537 204 572 213 581 260 C606 386 532 501 385 501 C262 501 123 382 93 244 C63 102 155 -12 294 -12 C351 -12 409 4 458 37 C467 43 477 51 479 61 C479 64 479 69 477 74 L450 136 C446 143 442 145 436 145 C429 145 418 136 406 131 C377 116 345 106 317 107 L317 107 Z M243 290 C260 341 320 382 369 382 C429 382 468 346 458 290 L243 290 Z M235 618 C232 605 236 598 248 598 L611 598 C623 598 631 610 633 618 L644 668 C646 680 641 686 629 686 L267 686 C255 686 248 680 246 668 L235 618 Z " />
<glyph glyph-name="Ebreve" unicode="&#x114;" horiz-adv-x="642" d="M85 21 C84 19 84 17 84 15 C84 5 92 0 103 0 L598 0 C612 0 621 6 624 21 L643 112 C644 116 645 119 645 122 C645 132 640 136 626 136 L257 136 L296 318 L571 318 C585 318 594 329 597 341 L616 432 C616 434 617 437 617 439 C617 449 611 454 601 454 C600 454 600 454 599 454 L325 454 L357 606 L712 606 C729 606 740 617 742 629 L761 717 C761 720 762 722 762 725 C762 735 756 742 742 742 L260 742 C246 742 237 735 233 718 L85 21 Z M545 856 C620 857 690 914 704 977 C706 989 697 996 685 996 L634 996 C623 996 617 987 615 978 C612 960 591 943 565 943 C535 943 524 961 528 980 C530 989 525 996 516 996 L463 996 C453 996 442 988 440 977 C426 915 471 858 545 856 L545 856 Z " />
<glyph glyph-name="ebreve" unicode="&#x115;" horiz-adv-x="532" d="M317 107 C267 107 218 146 224 204 L495 204 C537 204 572 213 581 260 C606 386 532 501 385 501 C262 501 123 382 93 244 C63 102 155 -12 294 -12 C351 -12 409 4 458 37 C467 43 477 51 479 61 C479 64 479 69 477 74 L450 136 C446 143 442 145 436 145 C429 145 418 136 406 131 C377 116 345 106 317 107 L317 107 Z M243 290 C260 341 320 382 369 382 C429 382 468 346 458 290 L243 290 Z M430 604 C505 605 575 662 589 725 C591 737 582 744 570 744 L519 744 C508 744 502 735 500 726 C497 708 476 691 450 691 C420 691 409 709 413 728 C415 737 410 744 401 744 L348 744 C338 744 327 736 325 725 C311 663 356 606 430 604 L430 604 Z " />
<glyph glyph-name="Edotaccent" unicode="&#x116;" horiz-adv-x="642" d="M85 21 C84 19 84 17 84 15 C84 5 92 0 103 0 L598 0 C612 0 621 6 624 21 L643 112 C644 116 645 119 645 122 C645 132 640 136 626 136 L257 136 L296 318 L571 318 C585 318 594 329 597 341 L616 432 C616 434 617 437 617 439 C617 449 611 454 601 454 C600 454 600 454 599 454 L325 454 L357 606 L712 606 C729 606 740 617 742 629 L761 717 C761 720 762 722 762 725 C762 735 756 742 742 742 L260 742 C246 742 237 735 233 718 L85 21 Z M468 896 C459 857 485 825 523 825 C564 825 601 857 609 896 C617 935 594 967 553 967 C515 967 476 935 468 896 L468 896 Z " />
<glyph glyph-name="edotaccent" unicode="&#x117;" horiz-adv-x="532" d="M317 107 C267 107 218 146 224 204 L495 204 C537 204 572 213 581 260 C606 386 532 501 385 501 C262 501 123 382 93 244 C63 102 155 -12 294 -12 C351 -12 409 4 458 37 C467 43 477 51 479 61 C479 64 479 69 477 74 L450 136 C446 143 442 145 436 145 C429 145 418 136 406 131 C377 116 345 106 317 107 L317 107 Z M243 290 C260 341 320 382 369 382 C429 382 468 346 458 290 L243 290 Z M354 655 C345 611 373 574 417 574 C463 574 506 611 515 655 C525 700 498 736 452 736 C408 736 364 700 354 655 L354 655 Z " />
<glyph glyph-name="Eogonek" unicode="&#x118;" horiz-adv-x="642" d="M85 21 C84 19 84 17 84 15 C84 5 92 0 103 0 L598 0 C612 0 621 6 624 21 L643 112 C644 116 645 119 645 122 C645 132 640 136 626 136 L257 136 L296 318 L571 318 C585 318 594 329 597 341 L616 432 C616 434 617 437 617 439 C617 449 611 454 601 454 C600 454 600 454 599 454 L325 454 L357 606 L712 606 C729 606 740 617 742 629 L761 717 C761 720 762 722 762 725 C762 735 756 742 742 742 L260 742 C246 742 237 735 233 718 L85 21 Z M520 -253 C535 -257 541 -253 545 -246 L573 -195 C575 -191 576 -180 565 -178 C502 -162 484 -145 488 -125 C498 -80 607 -63 619 -3 L624 18 L540 18 C529 -34 413 -51 397 -125 C387 -173 403 -221 520 -253 L520 -253 Z " />
<glyph glyph-name="eogonek" unicode="&#x119;" horiz-adv-x="532" d="M317 107 C267 107 218 146 224 204 L495 204 C537 204 572 213 581 260 C606 386 532 501 385 501 C262 501 123 382 93 244 C63 102 155 -12 294 -12 C351 -12 409 4 458 37 C467 43 477 51 479 61 C479 64 479 69 477 74 L450 136 C446 143 442 145 436 145 C429 145 418 136 406 131 C377 116 345 106 317 107 L317 107 Z M243 290 C260 341 320 382 369 382 C429 382 468 346 458 290 L243 290 Z M268 -265 C283 -269 289 -265 293 -258 L321 -207 C323 -203 324 -192 313 -190 C250 -174 232 -157 236 -137 C246 -92 355 -75 367 -15 L372 6 L288 6 C277 -46 161 -63 145 -137 C135 -185 151 -233 268 -265 L268 -265 Z " />
<glyph glyph-name="Ecaron" unicode="&#x11a;" horiz-adv-x="642" d="M85 21 C84 19 84 17 84 15 C84 5 92 0 103 0 L598 0 C612 0 621 6 624 21 L643 112 C644 116 645 119 645 122 C645 132 640 136 626 136 L257 136 L296 318 L571 318 C585 318 594 329 597 341 L616 432 C616 434 617 437 617 439 C617 449 611 454 601 454 C600 454 600 454 599 454 L325 454 L357 606 L712 606 C729 606 740 617 742 629 L761 717 C761 720 762 722 762 725 C762 735 756 742 742 742 L260 742 C246 742 237 735 233 718 L85 21 Z M520 824 C523 822 525 819 530 819 C533 819 537 822 541 824 L705 959 C708 961 711 966 712 971 C713 975 711 978 709 982 L687 1009 C681 1016 674 1025 667 1025 C663 1025 654 1021 648 1015 L555 938 L491 1019 C485 1027 477 1028 470 1022 L433 993 L416 980 C414 978 412 975 412 972 C411 968 413 961 414 959 L520 824 Z " />
<glyph glyph-name="ecaron" unicode="&#x11b;" horiz-adv-x="532" d="M317 107 C267 107 218 146 224 204 L495 204 C537 204 572 213 581 260 C606 386 532 501 385 501 C262 501 123 382 93 244 C63 102 155 -12 294 -12 C351 -12 409 4 458 37 C467 43 477 51 479 61 C479 64 479 69 477 74 L450 136 C446 143 442 145 436 145 C429 145 418 136 406 131 C377 116 345 106 317 107 L317 107 Z M243 290 C260 341 320 382 369 382 C429 382 468 346 458 290 L243 290 Z M399 572 C402 570 404 567 409 567 C412 567 416 570 420 572 L584 707 C587 709 590 714 591 719 C592 723 590 726 588 730 L566 757 C560 764 553 773 546 773 C542 773 533 769 527 763 L434 686 L370 767 C364 775 356 776 349 770 L312 741 L295 728 C293 726 291 723 291 720 C290 716 292 709 293 707 L399 572 Z " />
<glyph glyph-name="Gcircumflex" unicode="&#x11c;" horiz-adv-x="726" d="M575 154 C551 141 500 125 450 125 C335 125 255 207 255 318 C255 470 397 617 556 617 C610 617 662 598 697 569 C702 565 708 563 712 563 C731 563 805 655 805 665 C805 687 749 715 719 728 C679 744 633 753 586 753 C349 753 114 535 114 290 C114 118 239 -11 423 -11 C506 -11 596 14 667 58 C686 72 686 77 687 80 C687 80 687 81 687 81 L735 310 C736 312 736 313 736 315 C736 326 726 332 717 332 L635 332 C621 332 611 323 608 310 L575 154 Z M457 894 C454 892 451 889 450 886 C448 880 449 875 452 871 L474 844 C480 838 486 829 493 829 C500 829 507 833 513 838 L607 915 L666 838 C675 827 679 828 681 828 C690 828 701 838 708 844 L742 872 C746 875 749 878 750 882 C751 887 749 892 747 894 C712 939 676 984 641 1029 C638 1032 635 1034 632 1034 C627 1034 623 1032 620 1029 L457 894 Z " />
<glyph glyph-name="gcircumflex" unicode="&#x11d;" horiz-adv-x="596" d="M392 -10 C402 7 413 54 418 77 C389 39 343 1 281 1 C142 1 61 103 92 245 C122 386 247 497 386 497 C450 497 497 460 499 416 L524 462 C534 479 539 490 559 490 L617 490 C631 490 645 480 641 462 L551 39 C517 -120 388 -209 245 -209 C190 -209 116 -194 79 -153 C73 -148 69 -139 71 -128 C73 -122 76 -115 83 -108 L135 -54 C143 -47 150 -43 157 -43 C163 -43 169 -46 176 -52 C197 -76 240 -81 267 -81 C313 -81 371 -55 392 -10 L392 -10 Z M230 245 C216 177 248 124 315 124 C381 124 448 179 462 244 C476 308 433 367 367 367 C300 367 244 311 230 245 L230 245 Z M271 632 C268 630 265 627 264 624 C262 618 263 613 266 609 L288 582 C294 576 300 567 307 567 C314 567 321 571 327 576 L421 653 L480 576 C489 565 493 566 495 566 C504 566 515 576 522 582 L556 610 C560 613 563 616 564 620 C565 625 563 630 561 632 C526 677 490 722 455 767 C452 770 449 772 446 772 C441 772 437 770 434 767 L271 632 Z " />
<glyph glyph-name="Gbreve" unicode="&#x11e;" horiz-adv-x="726" d="M575 154 C551 141 500 125 450 125 C335 125 255 207 255 318 C255 470 397 617 556 617 C610 617 662 598 697 569 C702 565 708 563 712 563 C731 563 805 655 805 665 C805 687 749 715 719 728 C679 744 633 753 586 753 C349 753 114 535 114 290 C114 118 239 -11 423 -11 C506 -11 596 14 667 58 C686 72 686 77 687 80 C687 80 687 81 687 81 L735 310 C736 312 736 313 736 315 C736 326 726 332 717 332 L635 332 C621 332 611 323 608 310 L575 154 Z M607 856 C682 857 752 914 766 977 C768 989 759 996 747 996 L696 996 C685 996 679 987 677 978 C674 960 653 943 627 943 C597 943 586 961 590 980 C592 989 587 996 578 996 L525 996 C515 996 504 988 502 977 C488 915 533 858 607 856 L607 856 Z " />
<glyph glyph-name="gbreve" unicode="&#x11f;" horiz-adv-x="596" d="M392 -10 C402 7 413 54 418 77 C389 39 343 1 281 1 C142 1 61 103 92 245 C122 386 247 497 386 497 C450 497 497 460 499 416 L524 462 C534 479 539 490 559 490 L617 490 C631 490 645 480 641 462 L551 39 C517 -120 388 -209 245 -209 C190 -209 116 -194 79 -153 C73 -148 69 -139 71 -128 C73 -122 76 -115 83 -108 L135 -54 C143 -47 150 -43 157 -43 C163 -43 169 -46 176 -52 C197 -76 240 -81 267 -81 C313 -81 371 -55 392 -10 L392 -10 Z M230 245 C216 177 248 124 315 124 C381 124 448 179 462 244 C476 308 433 367 367 367 C300 367 244 311 230 245 L230 245 Z M415 604 C490 605 560 662 574 725 C576 737 567 744 555 744 L504 744 C493 744 487 735 485 726 C482 708 461 691 435 691 C405 691 394 709 398 728 C400 737 395 744 386 744 L333 744 C323 744 312 736 310 725 C296 663 341 606 415 604 L415 604 Z " />
<glyph glyph-name="Gdotaccent" unicode="&#x120;" horiz-adv-x="726" d="M575 154 C551 141 500 125 450 125 C335 125 255 207 255 318 C255 470 397 617 556 617 C610 617 662 598 697 569 C702 565 708 563 712 563 C731 563 805 655 805 665 C805 687 749 715 719 728 C679 744 633 753 586 753 C349 753 114 535 114 290 C114 118 239 -11 423 -11 C506 -11 596 14 667 58 C686 72 686 77 687 80 C687 80 687 81 687 81 L735 310 C736 312 736 313 736 315 C736 326 726 332 717 332 L635 332 C621 332 611 323 608 310 L575 154 Z M547 908 C538 864 566 827 610 827 C656 827 699 864 708 908 C718 953 691 989 645 989 C601 989 557 953 547 908 L547 908 Z " />
<glyph glyph-name="gdotaccent" unicode="&#x121;" horiz-adv-x="596" d="M392 -10 C402 7 413 54 418 77 C389 39 343 1 281 1 C142 1 61 103 92 245 C122 386 247 497 386 497 C450 497 497 460 499 416 L524 462 C534 479 539 490 559 490 L617 490 C631 490 645 480 641 462 L551 39 C517 -120 388 -209 245 -209 C190 -209 116 -194 79 -153 C73 -148 69 -139 71 -128 C73 -122 76 -115 83 -108 L135 -54 C143 -47 150 -43 157 -43 C163 -43 169 -46 176 -52 C197 -76 240 -81 267 -81 C313 -81 371 -55 392 -10 L392 -10 Z M230 245 C216 177 248 124 315 124 C381 124 448 179 462 244 C476 308 433 367 367 367 C300 367 244 311 230 245 L230 245 Z M372 655 C363 611 391 574 435 574 C481 574 524 611 533 655 C543 700 516 736 470 736 C426 736 382 700 372 655 L372 655 Z " />
<glyph glyph-name="Gcommaaccent" unicode="&#x122;" horiz-adv-x="726" d="M575 154 C551 141 500 125 450 125 C335 125 255 207 255 318 C255 470 397 617 556 617 C610 617 662 598 697 569 C702 565 708 563 712 563 C731 563 805 655 805 665 C805 687 749 715 719 728 C679 744 633 753 586 753 C349 753 114 535 114 290 C114 118 239 -11 423 -11 C506 -11 596 14 667 58 C686 72 686 77 687 80 C687 80 687 81 687 81 L735 310 C736 312 736 313 736 315 C736 326 726 332 717 332 L635 332 C621 332 611 323 608 310 L575 154 Z M329 -149 C321 -187 345 -222 380 -228 L379 -232 C376 -247 349 -270 346 -283 C343 -298 366 -319 379 -319 C400 -319 461 -266 485 -156 C496 -105 470 -71 424 -71 C381 -71 338 -105 329 -149 L329 -149 Z " />
<glyph glyph-name="gcommaaccent" unicode="&#x123;" horiz-adv-x="596" d="M392 -10 C402 7 413 54 418 77 C389 39 343 1 281 1 C142 1 61 103 92 245 C122 386 247 497 386 497 C450 497 497 460 499 416 L524 462 C534 479 539 490 559 490 L617 490 C631 490 645 480 641 462 L551 39 C517 -120 388 -209 245 -209 C190 -209 116 -194 79 -153 C73 -148 69 -139 71 -128 C73 -122 76 -115 83 -108 L135 -54 C143 -47 150 -43 157 -43 C163 -43 169 -46 176 -52 C197 -76 240 -81 267 -81 C313 -81 371 -55 392 -10 L392 -10 Z M230 245 C216 177 248 124 315 124 C381 124 448 179 462 244 C476 308 433 367 367 367 C300 367 244 311 230 245 L230 245 Z M515 637 C523 675 499 710 464 716 L465 720 C468 735 495 758 498 771 C501 786 478 807 465 807 C444 807 383 754 359 644 C348 593 374 559 420 559 C463 559 506 593 515 637 L515 637 Z " />
<glyph glyph-name="Hcircumflex" unicode="&#x124;" horiz-adv-x="791" d="M234 720 C236 730 247 742 259 742 L363 742 C372 742 382 734 382 724 C382 723 381 721 381 720 L326 462 L657 462 L712 720 C715 732 727 742 740 742 L839 742 C850 742 860 735 860 724 C860 723 860 721 860 720 L711 22 C708 7 698 0 681 0 L582 0 C572 0 563 5 563 17 C563 18 563 20 564 22 L628 325 L297 325 L233 22 C230 9 217 0 203 0 L102 0 C90 0 84 5 84 14 C84 17 85 19 85 22 L234 720 Z M431 894 C428 892 425 889 424 886 C422 880 423 875 426 871 L448 844 C454 838 460 829 467 829 C474 829 481 833 487 838 L581 915 L640 838 C649 827 653 828 655 828 C664 828 675 838 682 844 L716 872 C720 875 723 878 724 882 C725 887 723 892 721 894 C686 939 650 984 615 1029 C612 1032 609 1034 606 1034 C601 1034 597 1032 594 1029 L431 894 Z " />
<glyph glyph-name="hcircumflex" unicode="&#x125;" horiz-adv-x="614" d="M358 718 C361 735 352 742 337 742 L256 742 C239 742 229 732 226 718 L78 23 C75 8 82 0 100 0 L174 0 C188 0 205 3 210 22 L264 276 C277 340 358 374 407 374 C461 374 493 330 482 277 L428 24 C425 8 429 0 447 0 L530 0 C544 0 556 9 560 25 L613 277 C614 281 615 285 615 288 C636 406 587 498 465 498 C402 498 330 462 297 432 L358 718 Z M349 828 C346 826 343 823 342 820 C340 814 341 809 344 805 L366 778 C372 772 378 763 385 763 C392 763 399 767 405 772 L499 849 L558 772 C567 761 571 762 573 762 C582 762 593 772 600 778 L634 806 C638 809 641 812 642 816 C643 821 641 826 639 828 C604 873 568 918 533 963 C530 966 527 968 524 968 C519 968 515 966 512 963 L349 828 Z " />
<glyph glyph-name="Hbar" unicode="&#x126;" horiz-adv-x="774" d="M381 715 C384 730 372 742 359 742 L265 742 C248 742 236 730 233 715 L86 25 C83 9 90 0 107 0 L200 0 C219 0 231 9 235 27 L290 287 L620 287 L565 27 C561 9 570 0 587 0 L680 0 C697 0 710 9 713 27 L860 716 C863 732 851 742 836 742 L744 742 C728 742 714 730 711 715 L690 614 L360 614 L381 715 Z M648 417 L318 417 L333 490 L663 490 L648 417 Z " />
<glyph glyph-name="hbar" unicode="&#x127;" horiz-adv-x="614" d="M210 23 L265 281 C280 335 360 374 407 374 C449 374 480 346 481 308 C484 299 484 288 482 277 L428 24 C425 8 429 0 447 0 L530 0 C544 0 556 9 560 25 L604 233 C608 252 612 270 615 288 C636 406 587 498 465 498 C411 498 330 462 297 432 L322 548 L384 548 C397 548 409 563 411 573 L422 626 C425 640 417 648 405 648 L343 648 L358 718 C361 734 350 742 336 742 L256 742 C239 742 229 732 226 718 L211 648 L153 648 C139 648 130 640 127 626 L115 573 C112 556 118 548 132 548 L190 548 L78 23 C75 8 82 0 100 0 L174 0 C189 0 206 3 210 23 L210 23 Z " />
<glyph glyph-name="Itilde" unicode="&#x128;" horiz-adv-x="309" d="M85 22 C85 19 84 17 84 15 C84 5 91 0 103 0 L204 0 C220 0 230 7 233 22 L381 720 C381 721 382 722 382 724 C382 735 370 742 361 742 L260 742 C246 742 236 732 234 720 L85 22 Z M265 871 C284 871 300 855 315 844 C332 829 355 820 379 820 C417 820 452 836 485 866 L502 884 C504 885 508 891 509 894 C510 899 509 902 507 906 L477 941 C474 944 471 945 468 945 C457 945 443 927 435 919 C423 909 411 905 397 905 C388 905 380 908 373 914 L349 932 C331 946 307 955 285 956 C247 956 209 939 176 905 L163 892 C155 883 150 877 158 868 L185 836 C204 816 235 871 265 871 L265 871 Z " />
<glyph glyph-name="itilde" unicode="&#x129;" horiz-adv-x="288" d="M306 467 C309 481 298 491 286 491 L202 491 C187 491 177 481 174 467 L79 23 C76 8 83 0 98 0 L182 0 C198 0 208 8 211 23 L306 467 Z M211 619 C230 619 246 603 261 592 C278 577 301 568 325 568 C363 568 398 584 431 614 L448 632 C450 633 454 639 455 642 C456 647 455 650 453 654 L423 689 C420 692 417 693 414 693 C403 693 389 675 381 667 C369 657 357 653 343 653 C334 653 326 656 319 662 L295 680 C277 694 253 703 231 704 C193 704 155 687 122 653 L109 640 C101 631 96 625 104 616 L131 584 C150 564 181 619 211 619 L211 619 Z " />
<glyph glyph-name="Imacron" unicode="&#x12a;" horiz-adv-x="309" d="M85 22 C85 19 84 17 84 15 C84 5 91 0 103 0 L204 0 C220 0 230 7 233 22 L381 720 C381 721 382 722 382 724 C382 735 370 742 361 742 L260 742 C246 742 236 732 234 720 L85 22 Z M140 870 C137 857 141 850 153 850 L516 850 C528 850 536 862 538 870 L549 920 C551 932 546 938 534 938 L172 938 C160 938 153 932 151 920 L140 870 Z " />
<glyph glyph-name="imacron" unicode="&#x12b;" horiz-adv-x="288" d="M306 467 C309 481 298 491 286 491 L202 491 C187 491 177 481 174 467 L79 23 C76 8 83 0 98 0 L182 0 C198 0 208 8 211 23 L306 467 Z M67 618 C64 605 68 598 80 598 L443 598 C455 598 463 610 465 618 L476 668 C478 680 473 686 461 686 L99 686 C87 686 80 680 78 668 L67 618 Z " />
<glyph glyph-name="Ibreve" unicode="&#x12c;" horiz-adv-x="309" d="M85 22 C85 19 84 17 84 15 C84 5 91 0 103 0 L204 0 C220 0 230 7 233 22 L381 720 C381 721 382 722 382 724 C382 735 370 742 361 742 L260 742 C246 742 236 732 234 720 L85 22 Z M325 856 C400 857 470 914 484 977 C486 989 477 996 465 996 L414 996 C403 996 397 987 395 978 C392 960 371 943 345 943 C315 943 304 961 308 980 C310 989 305 996 296 996 L243 996 C233 996 222 988 220 977 C206 915 251 858 325 856 L325 856 Z " />
<glyph glyph-name="ibreve" unicode="&#x12d;" horiz-adv-x="288" d="M306 467 C309 481 298 491 286 491 L202 491 C187 491 177 481 174 467 L79 23 C76 8 83 0 98 0 L182 0 C198 0 208 8 211 23 L306 467 Z M271 604 C346 605 416 662 430 725 C432 737 423 744 411 744 L360 744 C349 744 343 735 341 726 C338 708 317 691 291 691 C261 691 250 709 254 728 C256 737 251 744 242 744 L189 744 C179 744 168 736 166 725 C152 663 197 606 271 604 L271 604 Z " />
<glyph glyph-name="Iogonek" unicode="&#x12e;" horiz-adv-x="309" d="M85 22 C85 19 84 17 84 15 C84 5 91 0 103 0 L204 0 C220 0 230 7 233 22 L381 720 C381 721 382 722 382 724 C382 735 370 742 361 742 L260 742 C246 742 236 732 234 720 L85 22 Z M90 -262 C105 -266 111 -262 115 -255 L143 -204 C145 -200 146 -189 135 -187 C72 -171 54 -154 58 -134 C68 -89 177 -72 189 -12 L194 9 L110 9 C99 -43 -17 -60 -33 -134 C-43 -182 -27 -230 90 -262 L90 -262 Z " />
<glyph glyph-name="iogonek" unicode="&#x12f;" horiz-adv-x="309" d="M306 467 C309 481 298 491 286 491 L202 491 C187 491 177 481 174 467 L79 23 C76 8 83 0 98 0 L182 0 C198 0 208 8 211 23 L306 467 Z M198 637 C189 595 216 561 258 561 C302 561 342 595 351 637 C360 680 334 714 290 714 C248 714 207 680 198 637 L198 637 Z M78 -265 C93 -269 99 -265 103 -258 L131 -207 C133 -203 134 -192 123 -190 C60 -174 42 -157 46 -137 C56 -92 165 -75 177 -15 L182 6 L98 6 C87 -46 -29 -63 -45 -137 C-55 -185 -39 -233 78 -265 L78 -265 Z " />
<glyph glyph-name="Idotaccent" unicode="&#x130;" horiz-adv-x="309" d="M85 22 C85 19 84 17 84 15 C84 5 91 0 103 0 L204 0 C220 0 230 7 233 22 L381 720 C381 721 382 722 382 724 C382 735 370 742 361 742 L260 742 C246 742 236 732 234 720 L85 22 Z M262 907 C253 863 281 826 325 826 C371 826 414 863 423 907 C433 952 406 988 360 988 C316 988 272 952 262 907 L262 907 Z " />
<glyph glyph-name="dotlessi" unicode="&#x131;" horiz-adv-x="288" d="M306 467 C309 481 298 491 286 491 L202 491 C187 491 177 481 174 467 L79 23 C76 8 83 0 98 0 L182 0 C198 0 208 8 211 23 L306 467 Z " />
<glyph glyph-name="IJ" unicode="&#x132;" horiz-adv-x="599" d="M273 -197 C379 -197 486 -118 521 -16 C526 2 531 19 535 37 L679 713 C683 732 674 742 655 742 L562 742 C546 742 535 732 531 716 L382 12 C374 -25 337 -52 304 -52 C275 -52 256 -40 243 -32 L244 -32 C224 -18 213 -8 198 -21 L127 -86 C114 -97 113 -107 121 -118 C158 -164 206 -197 273 -197 L273 -197 Z M381 715 C384 731 373 742 358 742 L266 742 C249 742 236 731 233 715 L87 27 C83 9 91 0 109 0 L201 0 C219 0 231 9 235 27 L381 715 Z " />
<glyph glyph-name="ij" unicode="&#x133;" horiz-adv-x="548" d="M242 -204 C344 -203 437 -135 468 -35 C473 -21 476 -5 480 10 L576 465 C580 480 571 491 555 491 L476 491 C461 491 448 482 444 465 L341 -21 C333 -57 300 -87 266 -89 L264 -89 C250 -89 238 -98 234 -114 L221 -178 C217 -194 225 -204 242 -204 L242 -204 Z M469 637 C460 595 487 561 529 561 C573 561 613 595 622 637 C631 680 605 714 561 714 C519 714 478 680 469 637 L469 637 Z M307 467 C310 481 299 491 287 491 L203 491 C188 491 178 481 175 467 L80 23 C77 8 84 0 99 0 L183 0 C199 0 209 8 212 23 L307 467 Z M199 637 C190 595 217 561 259 561 C303 561 343 595 352 637 C361 680 335 714 291 714 C249 714 208 680 199 637 L199 637 Z " />
<glyph glyph-name="Jcircumflex" unicode="&#x134;" horiz-adv-x="455" d="M169 -11 C275 -11 381 70 418 173 C423 187 427 203 430 219 L535 713 C536 716 536 719 536 721 C536 735 527 742 513 742 L419 742 C402 742 391 732 388 716 L277 197 C269 160 232 129 194 129 C137 129 130 168 113 168 C108 168 100 165 91 157 L29 101 C20 93 14 84 14 73 C14 70 15 69 16 67 C47 15 103 -11 169 -11 L169 -11 Z M318 894 C315 892 312 889 311 886 C309 880 310 875 313 871 L335 844 C341 838 347 829 354 829 C361 829 368 833 374 838 L468 915 L527 838 C536 827 540 828 542 828 C551 828 562 838 569 844 L603 872 C607 875 610 878 611 882 C612 887 610 892 608 894 C573 939 537 984 502 1029 C499 1032 496 1034 493 1034 C488 1034 484 1032 481 1029 L318 894 Z " />
<glyph glyph-name="jcircumflex" unicode="&#x135;" horiz-adv-x="282" d="M135 638 C132 636 129 633 128 630 C126 624 127 619 130 615 L152 588 C158 582 164 573 171 573 C178 573 185 577 191 582 L285 659 L344 582 C353 571 357 572 359 572 C368 572 379 582 386 588 L420 616 C424 619 427 622 428 626 C429 631 427 636 425 638 C390 683 354 728 319 773 C316 776 313 778 310 778 C305 778 301 776 298 773 L135 638 Z M-24 -204 C78 -203 171 -135 202 -35 C207 -21 210 -5 214 10 L310 465 C314 480 305 491 289 491 L210 491 C195 491 182 482 178 465 L75 -21 C67 -57 34 -87 0 -89 L-2 -89 C-16 -89 -28 -98 -32 -114 L-45 -178 C-49 -194 -41 -204 -24 -204 L-24 -204 Z " />
<glyph glyph-name="Kcommaaccent" unicode="&#x136;" horiz-adv-x="734" d="M85 22 C85 19 84 17 84 15 C84 5 91 0 103 0 L204 0 C221 0 230 7 233 22 L276 227 L380 315 L551 15 C556 5 563 0 570 0 L706 0 C713 0 717 2 717 7 C717 10 716 14 713 20 L492 414 L835 726 C840 730 843 733 844 736 C844 740 840 742 831 742 L688 742 C681 742 672 737 663 727 L318 423 L381 720 C381 721 382 722 382 724 C382 735 370 742 362 742 L260 742 C246 742 236 732 234 720 L85 22 Z M252 -149 C244 -187 268 -222 303 -228 L302 -232 C299 -247 272 -270 269 -283 C266 -298 289 -319 302 -319 C323 -319 384 -266 408 -156 C419 -105 393 -71 347 -71 C304 -71 261 -105 252 -149 L252 -149 Z " />
<glyph glyph-name="kcommaaccent" unicode="&#x137;" horiz-adv-x="573" d="M80 25 C80 24 81 0 100 0 L188 0 C209 0 218 21 220 29 L246 154 L299 198 L386 20 C393 6 399 0 407 0 L537 0 C550 0 557 3 560 15 C561 21 560 28 554 35 L555 35 L411 290 L604 457 C612 463 613 466 614 472 C616 482 610 488 597 488 L479 488 C469 488 461 485 452 477 L281 323 L365 717 C367 727 366 742 346 742 L262 742 C232 742 230 730 226 713 L80 25 Z M181 -149 C173 -187 197 -222 232 -228 L231 -232 C228 -247 201 -270 198 -283 C195 -298 218 -319 231 -319 C252 -319 313 -266 337 -156 C348 -105 322 -71 276 -71 C233 -71 190 -105 181 -149 L181 -149 Z " />
<glyph glyph-name="kgreenlandic" unicode="&#x138;" horiz-adv-x="573" d="M80 25 C80 24 81 0 100 0 L188 0 C209 0 218 21 220 29 L246 154 L299 198 L386 20 C393 6 399 0 407 0 L537 0 C550 0 557 3 560 15 C561 21 560 28 554 35 L555 35 L411 290 L604 457 C612 463 613 466 614 472 C616 482 610 488 597 488 L479 488 C469 488 461 485 452 477 L281 323 L311 465 C314 475 312 491 292 491 L209 491 C179 491 176 479 173 461 L80 25 Z " />
<glyph glyph-name="Lacute" unicode="&#x139;" horiz-adv-x="574" d="M234 721 C236 733 248 743 262 743 L364 743 C375 743 381 737 381 726 C381 725 381 723 381 721 L257 136 L549 136 C559 136 567 130 567 119 C567 117 567 115 566 113 L547 22 C544 9 535 1 520 0 L103 0 C91 0 84 5 84 15 C84 17 85 19 85 22 L234 721 Z M453 965 C460 974 462 979 463 984 C464 992 459 994 451 994 L376 994 C363 994 355 988 344 973 L279 871 C273 862 271 857 269 852 C267 843 270 839 283 839 L354 839 C366 839 376 845 385 860 L453 965 Z " />
<glyph glyph-name="lacute" unicode="&#x13a;" horiz-adv-x="282" d="M363 714 C367 731 353 743 341 743 L261 743 C243 743 231 731 227 714 L81 27 C78 10 85 0 103 0 L183 0 C201 0 214 10 217 27 L363 714 Z M447 929 C454 938 456 943 457 948 C458 956 453 958 445 958 L370 958 C357 958 349 952 338 937 L273 835 C267 826 265 821 263 816 C261 807 264 803 277 803 L348 803 C360 803 370 809 379 824 L447 929 Z " />
<glyph glyph-name="Lcommaaccent" unicode="&#x13b;" horiz-adv-x="574" d="M85 22 C85 19 84 17 84 15 C84 5 91 0 103 0 L520 0 C535 1 544 9 547 22 L566 113 C567 115 567 117 567 119 C567 130 559 136 549 136 L257 136 L381 721 C381 723 381 725 381 726 C381 737 375 743 364 743 L262 743 C248 743 236 733 234 721 L85 22 Z M210 -149 C202 -187 226 -222 261 -228 L260 -232 C257 -247 230 -270 227 -283 C224 -298 247 -319 260 -319 C281 -319 342 -266 366 -156 C377 -105 351 -71 305 -71 C262 -71 219 -105 210 -149 L210 -149 Z " />
<glyph glyph-name="lcommaaccent" unicode="&#x13c;" horiz-adv-x="282" d="M362 714 C366 731 352 743 340 743 L260 743 C242 743 230 731 226 714 L80 27 C77 10 84 0 102 0 L182 0 C200 0 213 10 216 27 L362 714 Z M37 -149 C29 -187 53 -222 88 -228 L87 -232 C84 -247 57 -270 54 -283 C51 -298 74 -319 87 -319 C108 -319 169 -266 193 -156 C204 -105 178 -71 132 -71 C89 -71 46 -105 37 -149 L37 -149 Z " />
<glyph glyph-name="Lcaron" unicode="&#x13d;" horiz-adv-x="574" d="M234 721 C236 733 248 743 262 743 L364 743 C375 743 381 737 381 726 C381 725 381 723 381 721 L257 136 L549 136 C559 136 567 130 567 119 C567 117 567 115 566 113 L547 22 C544 9 535 1 520 0 L103 0 C91 0 84 5 84 15 C84 17 85 19 85 22 L234 721 Z M471 712 C463 674 485 638 519 631 C516 617 507 605 502 600 L493 590 C488 586 486 581 485 577 C484 571 485 566 488 563 L509 545 C512 542 516 539 524 539 C545 539 611 594 635 706 C646 759 618 795 571 795 C526 795 481 759 471 712 L471 712 Z " />
<glyph glyph-name="lcaron" unicode="&#x13e;" horiz-adv-x="302" d="M362 714 C366 731 352 743 340 743 L260 743 C242 743 230 731 226 714 L80 27 C77 10 84 0 102 0 L182 0 C200 0 213 10 216 27 L362 714 Z M381 669 C374 635 394 603 425 597 C422 584 414 573 409 569 L401 560 C397 556 395 552 394 548 C393 543 394 538 397 536 L416 519 C418 517 422 514 429 514 C448 514 507 563 529 664 C539 711 513 744 471 744 C431 744 390 711 381 669 L381 669 Z " />
<glyph glyph-name="Ldot" unicode="&#x13f;" horiz-adv-x="574" d="M85 22 C85 19 84 17 84 15 C84 5 91 0 103 0 L520 0 C535 1 544 9 547 22 L566 113 C567 115 567 117 567 119 C567 130 559 136 549 136 L257 136 L381 721 C381 723 381 725 381 726 C381 737 375 743 364 743 L262 743 C248 743 236 733 234 721 L85 22 Z M409 372 C400 328 429 292 473 292 C520 292 561 328 571 372 C580 418 554 453 507 453 C463 453 419 418 409 372 L409 372 Z " />
<glyph glyph-name="ldot" unicode="&#x140;" horiz-adv-x="342" d="M368 714 C372 731 358 743 346 743 L266 743 C248 743 236 731 232 714 L86 27 C83 10 90 0 108 0 L188 0 C206 0 219 10 222 27 L368 714 Z M299 325 C290 281 319 245 363 245 C410 245 451 281 461 325 C470 371 444 406 397 406 C353 406 309 371 299 325 L299 325 Z " />
<glyph glyph-name="Lslash" unicode="&#x141;" horiz-adv-x="580" d="M263 137 L309 355 C327 361 345 368 365 375 L421 394 C429 398 439 407 440 414 C443 426 439 442 436 456 L433 468 C431 476 424 481 418 482 C418 482 416 481 416 481 C387 472 358 462 330 453 L386 716 C389 733 379 743 364 743 L265 743 C249 743 236 731 233 716 L166 400 C134 389 105 380 73 368 C64 365 56 357 54 348 C52 339 55 327 57 316 L58 311 C63 291 61 280 77 280 C81 280 84 281 86 282 L119 293 C127 296 136 299 145 302 L86 27 C83 9 90 0 107 0 L521 0 C537 0 550 12 553 27 L570 110 C574 126 564 137 550 137 L263 137 Z " />
<glyph glyph-name="lslash" unicode="&#x142;" horiz-adv-x="282" d="M92 388 C80 384 74 377 71 368 L60 312 C59 304 61 300 67 300 C69 300 71 301 74 302 L143 324 L80 27 C76 10 84 0 102 0 L182 0 C199 0 213 10 216 27 L290 373 L355 394 C364 397 372 405 374 414 L385 471 C385 477 383 481 378 481 C376 481 374 480 373 480 L308 459 L362 713 C366 730 352 742 339 742 L260 742 C242 742 229 730 226 713 L161 411 L92 388 Z " />
<glyph glyph-name="Nacute" unicode="&#x143;" horiz-adv-x="791" d="M234 720 C236 732 246 742 260 742 L378 742 C388 742 400 737 404 727 L634 243 L732 727 C739 739 750 742 757 742 L858 742 C868 742 881 733 878 720 L730 22 C727 7 717 0 701 0 L594 0 C587 0 583 7 577 16 L335 536 L230 22 C228 7 220 0 204 0 L103 0 C88 0 82 7 85 22 L234 720 Z M727 965 C734 974 736 979 737 984 C738 992 733 994 725 994 L650 994 C637 994 629 988 618 973 L553 871 C547 862 545 857 543 852 C541 843 544 839 557 839 L628 839 C640 839 650 845 659 860 L727 965 Z " />
<glyph glyph-name="nacute" unicode="&#x144;" horiz-adv-x="614" d="M262 491 L208 491 C188 491 176 480 171 461 L79 27 C76 11 83 0 103 0 L183 0 C203 0 215 10 218 27 L272 279 C290 327 353 366 396 366 C448 366 479 330 467 276 L415 28 C411 10 416 0 437 0 L519 0 C535 0 550 11 554 29 L611 299 C636 414 583 497 459 497 C394 497 331 462 293 427 C292 462 302 491 262 491 L262 491 Z M543 710 C550 719 552 724 553 729 C554 737 549 739 541 739 L466 739 C453 739 445 733 434 718 L369 616 C363 607 361 602 359 597 C357 588 360 584 373 584 L444 584 C456 584 466 590 475 605 L543 710 Z " />
<glyph glyph-name="Ncommaaccent" unicode="&#x145;" horiz-adv-x="791" d="M85 22 C82 7 88 0 103 0 L204 0 C220 0 228 7 230 22 L335 536 L577 16 C583 7 587 0 594 0 L701 0 C717 0 727 7 730 22 L878 720 C881 733 868 742 858 742 L757 742 C750 742 739 739 732 727 L634 243 L404 727 C400 737 388 742 378 742 L260 742 C246 742 236 732 234 720 L85 22 Z M297 -149 C289 -187 313 -222 348 -228 L347 -232 C344 -247 317 -270 314 -283 C311 -298 334 -319 347 -319 C368 -319 429 -266 453 -156 C464 -105 438 -71 392 -71 C349 -71 306 -105 297 -149 L297 -149 Z " />
<glyph glyph-name="ncommaaccent" unicode="&#x146;" horiz-adv-x="614" d="M262 491 L208 491 C188 491 176 480 171 461 L79 27 C76 11 83 0 103 0 L183 0 C203 0 215 10 218 27 L272 279 C290 327 353 366 396 366 C448 366 479 330 467 276 L415 28 C411 10 416 0 437 0 L519 0 C535 0 550 11 554 29 L611 299 C636 414 583 497 459 497 C394 497 331 462 293 427 C292 462 302 491 262 491 L262 491 Z M187 -149 C179 -187 203 -222 238 -228 L237 -232 C234 -247 207 -270 204 -283 C201 -298 224 -319 237 -319 C258 -319 319 -266 343 -156 C354 -105 328 -71 282 -71 C239 -71 196 -105 187 -149 L187 -149 Z " />
<glyph glyph-name="Ncaron" unicode="&#x147;" horiz-adv-x="791" d="M234 720 C236 732 246 742 260 742 L378 742 C388 742 400 737 404 727 L634 243 L732 727 C739 739 750 742 757 742 L858 742 C868 742 881 733 878 720 L730 22 C727 7 717 0 701 0 L594 0 C587 0 583 7 577 16 L335 536 L230 22 C228 7 220 0 204 0 L103 0 C88 0 82 7 85 22 L234 720 Z M561 824 C564 822 566 819 571 819 C574 819 578 822 582 824 L746 959 C749 961 752 966 753 971 C754 975 752 978 750 982 L728 1009 C722 1016 715 1025 708 1025 C704 1025 695 1021 689 1015 L596 938 L532 1019 C526 1027 518 1028 511 1022 L474 993 L457 980 C455 978 453 975 453 972 C452 968 454 961 455 959 L561 824 Z " />
<glyph glyph-name="ncaron" unicode="&#x148;" horiz-adv-x="614" d="M262 491 L208 491 C188 491 176 480 171 461 L79 27 C76 11 83 0 103 0 L183 0 C203 0 215 10 218 27 L272 279 C290 327 353 366 396 366 C448 366 479 330 467 276 L415 28 C411 10 416 0 437 0 L519 0 C535 0 550 11 554 29 L611 299 C636 414 583 497 459 497 C394 497 331 462 293 427 C292 462 302 491 262 491 L262 491 Z M416 572 C419 570 421 567 426 567 C429 567 433 570 437 572 L601 707 C604 709 607 714 608 719 C609 723 607 726 605 730 L583 757 C577 764 570 773 563 773 C559 773 550 769 544 763 L451 686 L387 767 C381 775 373 776 366 770 L329 741 L312 728 C310 726 308 723 308 720 C307 716 309 709 310 707 L416 572 Z " />
<glyph glyph-name="napostrophe" unicode="&#x149;" horiz-adv-x="582" d="M274 491 L220 491 C200 491 188 480 183 461 L91 27 C88 11 95 0 115 0 L195 0 C215 0 227 10 230 27 L284 279 C302 327 365 366 408 366 C460 366 491 330 479 276 L427 28 C423 10 428 0 449 0 L531 0 C547 0 562 11 566 29 L623 299 C648 414 595 497 471 497 C406 497 343 462 305 427 C304 462 314 491 274 491 L274 491 Z M69 666 C61 628 85 593 120 587 L119 583 C116 568 89 545 86 532 C83 517 106 496 119 496 C140 496 201 549 225 659 C236 710 210 744 164 744 C121 744 78 710 69 666 L69 666 Z " />
<glyph glyph-name="Eng" unicode="&#x14a;" horiz-adv-x="791" d="M85 20 C82 7 87 0 100 0 L200 0 C215 0 223 7 226 20 L333 526 L578 7 L577 0 C567 -41 523 -78 477 -78 C446 -78 430 -66 417 -53 C410 -45 403 -29 383 -48 L305 -111 C285 -127 301 -139 306 -146 C340 -196 399 -216 455 -216 C580 -216 699 -114 724 2 L877 723 C879 735 869 742 859 742 L760 742 C746 742 739 734 736 723 L633 241 L400 724 C395 736 385 742 374 742 L258 742 C245 742 237 734 234 723 L85 20 Z " />
<glyph glyph-name="eng" unicode="&#x14b;" horiz-adv-x="614" d="M262 491 L208 491 C188 491 176 480 171 461 L79 27 C76 11 83 0 103 0 L183 0 C203 0 215 10 218 27 L272 279 C290 327 348 366 391 366 C443 366 474 330 462 276 L401 -13 C393 -52 366 -69 331 -69 C314 -69 302 -82 299 -99 L284 -167 C280 -186 289 -199 309 -199 C415 -199 514 -134 537 -26 L606 299 C631 414 578 497 454 497 C389 497 331 462 293 427 C292 462 302 491 262 491 L262 491 Z " />
<glyph glyph-name="Omacron" unicode="&#x14c;" horiz-adv-x="853" d="M271 370 C267 351 265 332 265 314 C265 206 336 127 452 127 C604 127 742 267 742 427 C742 535 671 615 555 615 C420 615 300 506 271 370 L271 370 Z M122 370 C167 582 374 753 586 753 C769 753 895 623 895 450 C895 204 659 -11 423 -11 C239 -11 114 118 114 290 C114 316 116 343 122 370 L122 370 Z M416 860 C413 847 417 840 429 840 L792 840 C804 840 812 852 814 860 L825 910 C827 922 822 928 810 928 L448 928 C436 928 429 922 427 910 L416 860 Z " />
<glyph glyph-name="omacron" unicode="&#x14d;" horiz-adv-x="585" d="M76 244 C46 102 137 -11 281 -11 C424 -11 564 102 594 244 C624 386 532 501 389 501 C245 501 106 386 76 244 L76 244 Z M209 243 C224 314 292 374 363 374 C434 374 477 314 462 243 C446 171 379 113 308 113 C236 113 194 171 209 243 L209 243 Z M217 618 C214 605 218 598 230 598 L593 598 C605 598 613 610 615 618 L626 668 C628 680 623 686 611 686 L249 686 C237 686 230 680 228 668 L217 618 Z " />
<glyph glyph-name="Obreve" unicode="&#x14e;" horiz-adv-x="853" d="M271 370 C267 351 265 332 265 314 C265 206 336 127 452 127 C604 127 742 267 742 427 C742 535 671 615 555 615 C420 615 300 506 271 370 L271 370 Z M122 370 C167 582 374 753 586 753 C769 753 895 623 895 450 C895 204 659 -11 423 -11 C239 -11 114 118 114 290 C114 316 116 343 122 370 L122 370 Z M622 856 C697 857 767 914 781 977 C783 989 774 996 762 996 L711 996 C700 996 694 987 692 978 C689 960 668 943 642 943 C612 943 601 961 605 980 C607 989 602 996 593 996 L540 996 C530 996 519 988 517 977 C503 915 548 858 622 856 L622 856 Z " />
<glyph glyph-name="obreve" unicode="&#x14f;" horiz-adv-x="585" d="M76 244 C46 102 137 -11 281 -11 C424 -11 564 102 594 244 C624 386 532 501 389 501 C245 501 106 386 76 244 L76 244 Z M209 243 C224 314 292 374 363 374 C434 374 477 314 462 243 C446 171 379 113 308 113 C236 113 194 171 209 243 L209 243 Z M398 604 C473 605 543 662 557 725 C559 737 550 744 538 744 L487 744 C476 744 470 735 468 726 C465 708 444 691 418 691 C388 691 377 709 381 728 C383 737 378 744 369 744 L316 744 C306 744 295 736 293 725 C279 663 324 606 398 604 L398 604 Z " />
<glyph glyph-name="Ohungarumlaut" unicode="&#x150;" horiz-adv-x="853" d="M271 370 C267 351 265 332 265 314 C265 206 336 127 452 127 C604 127 742 267 742 427 C742 535 671 615 555 615 C420 615 300 506 271 370 L271 370 Z M122 370 C167 582 374 753 586 753 C769 753 895 623 895 450 C895 204 659 -11 423 -11 C239 -11 114 118 114 290 C114 316 116 343 122 370 L122 370 Z M876 965 C883 974 891 994 874 994 L794 994 C782 994 774 988 763 973 L697 871 C688 859 680 839 701 839 L777 839 C789 839 799 845 808 860 L876 965 Z M675 965 C682 974 690 994 672 994 L593 994 C580 994 572 988 561 973 L496 871 C487 859 478 839 500 839 L576 839 C588 839 597 845 607 860 L675 965 Z " />
<glyph glyph-name="ohungarumlaut" unicode="&#x151;" horiz-adv-x="585" d="M76 244 C46 102 137 -11 281 -11 C424 -11 564 102 594 244 C624 386 532 501 389 501 C245 501 106 386 76 244 L76 244 Z M209 243 C224 314 292 374 363 374 C434 374 477 314 462 243 C446 171 379 113 308 113 C236 113 194 171 209 243 L209 243 Z M645 713 C652 722 660 742 643 742 L563 742 C551 742 543 736 532 721 L466 619 C457 607 449 587 470 587 L546 587 C558 587 568 593 577 608 L645 713 Z M444 713 C451 722 459 742 441 742 L362 742 C349 742 341 736 330 721 L265 619 C256 607 247 587 269 587 L345 587 C357 587 366 593 376 608 L444 713 Z " />
<glyph glyph-name="OE" unicode="&#x152;" horiz-adv-x="1253" d="M656 19 C656 17 656 16 656 14 C656 3 664 -2 674 -2 L1169 -2 C1184 -2 1192 5 1195 19 L1215 110 C1216 114 1216 118 1216 121 C1216 130 1211 135 1197 135 L829 135 L867 317 L1142 317 C1157 317 1166 328 1168 340 L1187 430 C1188 433 1188 435 1188 438 C1188 448 1182 452 1173 452 C1172 452 1171 452 1170 452 L896 452 L928 604 L1284 604 C1300 604 1311 615 1314 627 L1332 715 C1333 718 1333 721 1333 723 C1333 734 1328 741 1314 741 L832 741 C818 741 808 733 805 717 L656 19 Z M264 372 C293 508 413 617 548 617 C664 617 735 537 735 429 C735 269 597 129 445 129 C329 129 258 208 258 316 C258 334 260 353 264 372 L264 372 Z M115 372 C109 345 107 318 107 292 C107 120 232 -9 416 -9 C652 -9 888 206 888 452 C888 625 762 755 579 755 C367 755 160 584 115 372 L115 372 Z " />
<glyph glyph-name="oe" unicode="&#x153;" horiz-adv-x="1022" d="M608 297 C630 350 682 381 729 381 C781 381 817 344 816 297 L608 297 Z M675 107 C629 107 588 138 584 191 L584 197 L849 197 C898 197 926 210 936 260 L937 263 C965 395 881 498 753 498 C685 498 619 469 566 422 C529 468 472 496 402 496 C261 496 126 386 95 244 C65 102 154 -9 295 -9 C366 -9 436 20 491 67 C526 19 582 -10 651 -10 C707 -10 774 10 822 42 C834 49 843 59 845 69 C846 75 846 81 842 87 L816 137 C812 146 806 149 799 149 C790 149 783 144 773 139 C739 117 704 107 675 107 L675 107 Z M218 243 C233 314 301 374 372 374 C443 374 486 314 471 243 C455 171 388 113 317 113 C245 113 203 171 218 243 L218 243 Z " />
<glyph glyph-name="Racute" unicode="&#x154;" horiz-adv-x="687" d="M233 718 C237 735 246 742 260 742 L562 742 C699 742 780 632 752 499 C733 409 668 332 587 290 L657 23 C657 22 658 20 657 18 C655 6 648 0 632 0 L520 0 C511 0 505 5 504 15 L445 259 L283 259 L232 21 C229 6 221 0 206 0 L103 0 C91 0 82 6 85 21 L233 718 Z M610 500 C621 551 590 606 528 606 L357 606 L312 395 L486 395 C551 395 598 444 610 500 L610 500 Z M626 965 C633 974 635 979 636 984 C637 992 632 994 624 994 L549 994 C536 994 528 988 517 973 L452 871 C446 862 444 857 442 852 C440 843 443 839 456 839 L527 839 C539 839 549 845 558 860 L626 965 Z " />
<glyph glyph-name="racute" unicode="&#x155;" horiz-adv-x="474" d="M485 712 C492 721 494 726 495 731 C496 739 491 741 483 741 L408 741 C395 741 387 735 376 720 L311 618 C305 609 303 604 301 599 C299 590 302 586 315 586 L386 586 C398 586 408 592 417 607 L485 712 Z M288 465 C287 478 284 491 267 491 L210 491 C197 491 182 482 178 466 L85 25 C81 8 89 0 106 0 L183 0 C201 0 211 8 215 25 L269 278 C278 324 324 375 383 375 C401 375 412 368 429 357 C439 350 450 345 455 345 C463 345 471 350 479 359 L533 424 C537 429 540 434 541 438 C545 460 485 492 449 496 C444 497 437 497 430 497 C373 497 321 456 290 424 L288 465 Z " />
<glyph glyph-name="Rcommaaccent" unicode="&#x156;" horiz-adv-x="687" d="M85 21 C82 6 91 0 103 0 L206 0 C221 0 229 6 232 21 L283 259 L445 259 L504 15 C505 5 511 0 520 0 L632 0 C648 0 655 6 657 18 C658 20 657 22 657 23 L587 290 C668 332 733 409 752 499 C780 632 699 742 562 742 L260 742 C246 742 237 735 233 718 L85 21 Z M610 500 C598 444 551 395 486 395 L312 395 L357 606 L528 606 C590 606 621 551 610 500 L610 500 Z M246 -149 C238 -187 262 -222 297 -228 L296 -232 C293 -247 266 -270 263 -283 C260 -298 283 -319 296 -319 C317 -319 378 -266 402 -156 C413 -105 387 -71 341 -71 C298 -71 255 -105 246 -149 L246 -149 Z " />
<glyph glyph-name="rcommaaccent" unicode="&#x157;" horiz-adv-x="474" d="M288 465 C287 478 284 491 267 491 L210 491 C197 491 182 482 178 466 L85 25 C81 8 89 0 106 0 L183 0 C201 0 211 8 215 25 L269 278 C278 324 324 375 383 375 C401 375 412 368 429 357 C439 350 450 345 455 345 C463 345 471 350 479 359 L533 424 C537 429 540 434 541 438 C545 460 485 492 449 496 C444 497 437 497 430 497 C373 497 321 456 290 424 L288 465 Z M26 -149 C18 -187 42 -222 77 -228 L76 -232 C73 -247 46 -270 43 -283 C40 -298 63 -319 76 -319 C97 -319 158 -266 182 -156 C193 -105 167 -71 121 -71 C78 -71 35 -105 26 -149 L26 -149 Z " />
<glyph glyph-name="Rcaron" unicode="&#x158;" horiz-adv-x="687" d="M233 718 C237 735 246 742 260 742 L562 742 C699 742 780 632 752 499 C733 409 668 332 587 290 L657 23 C657 22 658 20 657 18 C655 6 648 0 632 0 L520 0 C511 0 505 5 504 15 L445 259 L283 259 L232 21 C229 6 221 0 206 0 L103 0 C91 0 82 6 85 21 L233 718 Z M610 500 C621 551 590 606 528 606 L357 606 L312 395 L486 395 C551 395 598 444 610 500 L610 500 Z M491 824 C494 822 496 819 501 819 C504 819 508 822 512 824 L676 959 C679 961 682 966 683 971 C684 975 682 978 680 982 L658 1009 C652 1016 645 1025 638 1025 C634 1025 625 1021 619 1015 L526 938 L462 1019 C456 1027 448 1028 441 1022 L404 993 L387 980 C385 978 383 975 383 972 C382 968 384 961 385 959 L491 824 Z " />
<glyph glyph-name="rcaron" unicode="&#x159;" horiz-adv-x="474" d="M288 465 C287 478 284 491 267 491 L210 491 C197 491 182 482 178 466 L85 25 C81 8 89 0 106 0 L183 0 C201 0 211 8 215 25 L269 278 C278 324 324 375 383 375 C401 375 412 368 429 357 C439 350 450 345 455 345 C463 345 471 350 479 359 L533 424 C537 429 540 434 541 438 C545 460 485 492 449 496 C444 497 437 497 430 497 C373 497 321 456 290 424 L288 465 Z M345 572 C348 570 350 567 355 567 C358 567 362 570 366 572 L530 707 C533 709 536 714 537 719 C538 723 536 726 534 730 L512 757 C506 764 499 773 492 773 C488 773 479 769 473 763 L380 686 L316 767 C310 775 302 776 295 770 L258 741 L241 728 C239 726 237 723 237 720 C236 716 238 709 239 707 L345 572 Z " />
<glyph glyph-name="Sacute" unicode="&#x15a;" horiz-adv-x="641" d="M619 544 C630 544 662 570 686 592 L686 591 L704 607 C712 615 718 622 720 631 C723 649 690 682 663 702 C617 735 556 755 495 755 C336 755 214 671 187 547 C164 436 231 373 384 324 C450 304 522 282 509 223 C497 164 432 125 358 125 C305 125 238 163 203 209 C198 216 192 224 182 224 C170 224 135 197 112 179 L101 170 L92 163 C83 155 77 148 76 141 C74 134 76 127 82 118 C134 41 224 -10 327 -10 C487 -10 633 83 664 229 C692 363 573 413 456 452 C388 474 327 496 337 544 C346 588 395 623 469 623 C528 623 574 580 596 557 C604 548 610 544 619 544 L619 544 Z M652 965 C659 974 661 979 662 984 C663 992 658 994 650 994 L575 994 C562 994 554 988 543 973 L478 871 C472 862 470 857 468 852 C466 843 469 839 482 839 L553 839 C565 839 575 845 584 860 L652 965 Z " />
<glyph glyph-name="sacute" unicode="&#x15b;" horiz-adv-x="470" d="M492 399 C504 409 506 423 496 437 C463 484 402 501 341 501 C229 501 139 442 120 356 C105 282 144 235 259 203 C308 189 346 178 340 149 C334 120 300 100 247 100 C223 100 185 116 159 146 C154 151 146 159 138 159 C133 159 127 157 120 152 L67 110 C60 104 55 97 54 90 C52 83 54 76 58 69 C93 17 157 -12 225 -12 C339 -12 445 48 467 149 C487 246 411 274 329 299 C287 311 236 318 243 350 C248 374 267 393 317 393 C360 393 386 364 405 352 C410 349 417 341 429 351 L492 399 Z M490 712 C497 721 499 726 500 731 C501 739 496 741 488 741 L413 741 C400 741 392 735 381 720 L316 618 C310 609 308 604 306 599 C304 590 307 586 320 586 L391 586 C403 586 413 592 422 607 L490 712 Z " />
<glyph glyph-name="Scircumflex" unicode="&#x15c;" horiz-adv-x="641" d="M619 544 C630 544 662 570 686 592 L686 591 L704 607 C712 615 718 622 720 631 C723 649 690 682 663 702 C617 735 556 755 495 755 C336 755 214 671 187 547 C164 436 231 373 384 324 C450 304 522 282 509 223 C497 164 432 125 358 125 C305 125 238 163 203 209 C198 216 192 224 182 224 C170 224 135 197 112 179 L101 170 L92 163 C83 155 77 148 76 141 C74 134 76 127 82 118 C134 41 224 -10 327 -10 C487 -10 633 83 664 229 C692 363 573 413 456 452 C388 474 327 496 337 544 C346 588 395 623 469 623 C528 623 574 580 596 557 C604 548 610 544 619 544 L619 544 Z M365 894 C362 892 359 889 358 886 C356 880 357 875 360 871 L382 844 C388 838 394 829 401 829 C408 829 415 833 421 838 L515 915 L574 838 C583 827 587 828 589 828 C598 828 609 838 616 844 L650 872 C654 875 657 878 658 882 C659 887 657 892 655 894 C620 939 584 984 549 1029 C546 1032 543 1034 540 1034 C535 1034 531 1032 528 1029 L365 894 Z " />
<glyph glyph-name="scircumflex" unicode="&#x15d;" horiz-adv-x="470" d="M492 399 C504 409 506 423 496 437 C463 484 402 501 341 501 C229 501 139 442 120 356 C105 282 144 235 259 203 C308 189 346 178 340 149 C334 120 300 100 247 100 C223 100 185 116 159 146 C154 151 146 159 138 159 C133 159 127 157 120 152 L67 110 C60 104 55 97 54 90 C52 83 54 76 58 69 C93 17 157 -12 225 -12 C339 -12 445 48 467 149 C487 246 411 274 329 299 C287 311 236 318 243 350 C248 374 267 393 317 393 C360 393 386 364 405 352 C410 349 417 341 429 351 L492 399 Z M214 642 C211 640 208 637 207 634 C205 628 206 623 209 619 L231 592 C237 586 243 577 250 577 C257 577 264 581 270 586 L364 663 L423 586 C432 575 436 576 438 576 C447 576 458 586 465 592 L499 620 C503 623 506 626 507 630 C508 635 506 640 504 642 C469 687 433 732 398 777 C395 780 392 782 389 782 C384 782 380 780 377 777 L214 642 Z " />
<glyph glyph-name="Scedilla" unicode="&#x15e;" horiz-adv-x="641" d="M619 544 C630 544 662 570 686 592 L686 591 L704 607 C712 615 718 622 720 631 C723 649 690 682 663 702 C617 735 556 755 495 755 C336 755 214 671 187 547 C164 436 231 373 384 324 C450 304 522 282 509 223 C497 164 432 125 358 125 C305 125 238 163 203 209 C198 216 192 224 182 224 C170 224 135 197 112 179 L101 170 L92 163 C83 155 77 148 76 141 C74 134 76 127 82 118 C134 41 224 -10 327 -10 C487 -10 633 83 664 229 C692 363 573 413 456 452 C388 474 327 496 337 544 C346 588 395 623 469 623 C528 623 574 580 596 557 C604 548 610 544 619 544 L619 544 Z M269 -265 C402 -232 437 -185 447 -137 C463 -63 354 -43 365 6 L281 6 L276 -15 C264 -75 365 -92 355 -137 C351 -157 326 -173 257 -190 L251 -191 C244 -194 238 -201 239 -208 L251 -260 C252 -267 260 -268 269 -265 L269 -265 Z " />
<glyph glyph-name="scedilla" unicode="&#x15f;" horiz-adv-x="470" d="M492 399 C504 409 506 423 496 437 C463 484 402 501 341 501 C229 501 139 442 120 356 C105 282 144 235 259 203 C308 189 346 178 340 149 C334 120 300 100 247 100 C223 100 185 116 159 146 C154 151 146 159 138 159 C133 159 127 157 120 152 L67 110 C60 104 55 97 54 90 C52 83 54 76 58 69 C93 17 157 -12 225 -12 C339 -12 445 48 467 149 C487 246 411 274 329 299 C287 311 236 318 243 350 C248 374 267 393 317 393 C360 393 386 364 405 352 C410 349 417 341 429 351 L492 399 Z M155 -265 C288 -232 323 -185 333 -137 C349 -63 240 -43 251 6 L167 6 L162 -15 C150 -75 251 -92 241 -137 C237 -157 212 -173 143 -190 L137 -191 C130 -194 124 -201 125 -208 L137 -260 C138 -267 146 -268 155 -265 L155 -265 Z " />
<glyph glyph-name="Scaron" unicode="&#x160;" horiz-adv-x="641" d="M619 544 C630 544 662 570 686 592 L686 591 L704 607 C712 615 718 622 720 631 C723 649 690 682 663 702 C617 735 556 755 495 755 C336 755 214 671 187 547 C164 436 231 373 384 324 C450 304 522 282 509 223 C497 164 432 125 358 125 C305 125 238 163 203 209 C198 216 192 224 182 224 C170 224 135 197 112 179 L101 170 L92 163 C83 155 77 148 76 141 C74 134 76 127 82 118 C134 41 224 -10 327 -10 C487 -10 633 83 664 229 C692 363 573 413 456 452 C388 474 327 496 337 544 C346 588 395 623 469 623 C528 623 574 580 596 557 C604 548 610 544 619 544 L619 544 Z M486 824 C489 822 491 819 496 819 C499 819 503 822 507 824 L671 959 C674 961 677 966 678 971 C679 975 677 978 675 982 L653 1009 C647 1016 640 1025 633 1025 C629 1025 620 1021 614 1015 L521 938 L457 1019 C451 1027 443 1028 436 1022 L399 993 L382 980 C380 978 378 975 378 972 C377 968 379 961 380 959 L486 824 Z " />
<glyph glyph-name="scaron" unicode="&#x161;" horiz-adv-x="470" d="M492 399 C504 409 506 423 496 437 C463 484 402 501 341 501 C229 501 139 442 120 356 C105 282 144 235 259 203 C308 189 346 178 340 149 C334 120 300 100 247 100 C223 100 185 116 159 146 C154 151 146 159 138 159 C133 159 127 157 120 152 L67 110 C60 104 55 97 54 90 C52 83 54 76 58 69 C93 17 157 -12 225 -12 C339 -12 445 48 467 149 C487 246 411 274 329 299 C287 311 236 318 243 350 C248 374 267 393 317 393 C360 393 386 364 405 352 C410 349 417 341 429 351 L492 399 Z M345 572 C348 570 350 567 355 567 C358 567 362 570 366 572 L530 707 C533 709 536 714 537 719 C538 723 536 726 534 730 L512 757 C506 764 499 773 492 773 C488 773 479 769 473 763 L380 686 L316 767 C310 775 302 776 295 770 L258 741 L241 728 C239 726 237 723 237 720 C236 716 238 709 239 707 L345 572 Z " />
<glyph glyph-name="Tcommaaccent" unicode="&#x162;" horiz-adv-x="611" d="M155 632 C151 616 161 606 174 606 L356 606 L232 25 C230 13 243 0 252 0 L352 0 C364 0 378 15 380 25 L503 606 L685 606 C701 606 713 618 716 632 L735 720 C736 735 726 742 714 742 L203 742 C190 742 176 732 174 720 L155 632 Z M217 -149 C209 -187 233 -222 268 -228 L267 -232 C264 -247 237 -270 234 -283 C231 -298 254 -319 267 -319 C288 -319 349 -266 373 -156 C384 -105 358 -71 312 -71 C269 -71 226 -105 217 -149 L217 -149 Z " />
<glyph glyph-name="tcommaaccent" unicode="&#x163;" horiz-adv-x="328" d="M186 491 L159 491 C139 491 128 481 124 462 L112 407 C108 386 115 376 135 376 L162 376 L88 29 C84 10 92 0 112 0 L189 0 C209 0 223 10 227 29 L300 376 L360 376 C377 376 390 386 395 407 L406 462 C410 481 401 491 385 491 L325 491 L356 637 C360 654 357 667 338 667 C336 667 334 667 331 666 L252 655 C231 653 218 642 215 626 L186 491 Z M40 -149 C32 -187 56 -222 91 -228 L90 -232 C87 -247 60 -270 57 -283 C54 -298 77 -319 90 -319 C111 -319 172 -266 196 -156 C207 -105 181 -71 135 -71 C92 -71 49 -105 40 -149 L40 -149 Z " />
<glyph glyph-name="Tcaron" unicode="&#x164;" horiz-adv-x="611" d="M174 720 C176 732 190 742 203 742 L714 742 C726 742 736 735 735 720 L716 632 C713 618 701 606 685 606 L503 606 L380 25 C378 15 364 0 352 0 L252 0 C243 0 230 13 232 25 L356 606 L174 606 C161 606 151 616 155 632 L174 720 Z M481 824 C484 822 486 819 491 819 C494 819 498 822 502 824 L666 959 C669 961 672 966 673 971 C674 975 672 978 670 982 L648 1009 C642 1016 635 1025 628 1025 C624 1025 615 1021 609 1015 L516 938 L452 1019 C446 1027 438 1028 431 1022 L394 993 L377 980 C375 978 373 975 373 972 C372 968 374 961 375 959 L481 824 Z " />
<glyph glyph-name="tcaron" unicode="&#x165;" horiz-adv-x="328" d="M215 626 C218 642 231 653 252 655 L331 666 C334 667 336 667 338 667 C357 667 360 654 356 637 L325 491 L385 491 C401 491 410 481 406 462 L395 407 C390 386 377 376 360 376 L300 376 L227 29 C223 10 209 0 189 0 L112 0 C92 0 84 10 88 29 L162 376 L135 376 C115 376 108 386 112 407 L124 462 C128 481 139 491 159 491 L186 491 L215 626 Z M394 660 C386 622 408 586 442 579 C439 565 430 553 425 548 L416 538 C411 534 409 529 408 525 C407 519 408 514 411 511 L432 493 C435 490 439 487 447 487 C468 487 534 542 558 654 C569 707 541 743 494 743 C449 743 404 707 394 660 L394 660 Z " />
<glyph glyph-name="Tbar" unicode="&#x166;" horiz-adv-x="611" d="M154 632 C151 616 161 606 174 606 L355 606 L328 478 L279 478 C267 478 260 472 258 461 L240 375 C237 363 242 358 254 358 L303 358 L232 25 C229 13 242 0 251 0 L351 0 C363 0 377 15 379 25 L450 358 L509 358 C518 358 526 367 528 375 L546 461 C548 472 543 478 534 478 L476 478 L503 606 L684 606 C701 606 712 618 715 632 L734 720 C736 735 725 742 713 742 L203 742 C190 742 176 732 173 720 L154 632 Z " />
<glyph glyph-name="tbar" unicode="&#x167;" horiz-adv-x="328" d="M167 316 C155 316 148 311 146 300 L134 246 C132 234 136 229 148 229 L359 229 C368 229 376 237 378 246 L390 300 C392 311 387 316 378 316 L167 316 Z M230 491 L203 491 C183 491 172 481 168 462 L156 407 C152 386 159 376 179 376 L206 376 L132 29 C128 10 136 0 156 0 L233 0 C253 0 267 10 271 29 L344 376 L404 376 C421 376 434 386 439 407 L450 462 C454 481 445 491 429 491 L369 491 L400 637 C404 654 401 667 382 667 C380 667 378 667 375 666 L296 655 C275 653 262 642 259 626 L230 491 Z " />
<glyph glyph-name="Utilde" unicode="&#x168;" horiz-adv-x="752" d="M370 720 C373 732 361 742 352 742 L248 742 C236 742 225 730 223 720 L132 293 C96 125 204 -12 373 -12 C541 -12 708 125 743 293 L834 720 C837 733 826 742 814 742 L715 742 C701 742 689 732 687 720 L596 293 C576 200 495 123 402 123 C308 123 260 200 279 293 L370 720 Z M511 871 C530 871 546 855 561 844 C578 829 601 820 625 820 C663 820 698 836 731 866 L748 884 C750 885 754 891 755 894 C756 899 755 902 753 906 L723 941 C720 944 717 945 714 945 C703 945 689 927 681 919 C669 909 657 905 643 905 C634 905 626 908 619 914 L595 932 C577 946 553 955 531 956 C493 956 455 939 422 905 L409 892 C401 883 396 877 404 868 L431 836 C450 816 481 871 511 871 L511 871 Z " />
<glyph glyph-name="utilde" unicode="&#x169;" horiz-adv-x="608" d="M453 0 L507 0 C528 0 540 11 544 30 L636 463 C639 479 632 491 613 491 L532 491 C512 491 501 481 497 463 L443 211 C433 160 354 125 311 125 C259 125 233 160 244 214 L297 462 C301 481 296 491 275 491 L193 491 C177 491 162 480 158 461 L100 191 C76 76 124 -6 248 -6 C313 -6 380 25 418 60 C420 25 413 0 453 0 L453 0 Z M367 619 C386 619 402 603 417 592 C434 577 457 568 481 568 C519 568 554 584 587 614 L604 632 C606 633 610 639 611 642 C612 647 611 650 609 654 L579 689 C576 692 573 693 570 693 C559 693 545 675 537 667 C525 657 513 653 499 653 C490 653 482 656 475 662 L451 680 C433 694 409 703 387 704 C349 704 311 687 278 653 L265 640 C257 631 252 625 260 616 L287 584 C306 564 337 619 367 619 L367 619 Z " />
<glyph glyph-name="Umacron" unicode="&#x16a;" horiz-adv-x="752" d="M370 720 C373 732 361 742 352 742 L248 742 C236 742 225 730 223 720 L132 293 C96 125 204 -12 373 -12 C541 -12 708 125 743 293 L834 720 C837 733 826 742 814 742 L715 742 C701 742 689 732 687 720 L596 293 C576 200 495 123 402 123 C308 123 260 200 279 293 L370 720 Z M365 860 C362 847 366 840 378 840 L741 840 C753 840 761 852 763 860 L774 910 C776 922 771 928 759 928 L397 928 C385 928 378 922 376 910 L365 860 Z " />
<glyph glyph-name="umacron" unicode="&#x16b;" horiz-adv-x="608" d="M453 0 L507 0 C528 0 540 11 544 30 L636 463 C639 479 632 491 613 491 L532 491 C512 491 501 481 497 463 L443 211 C433 160 354 125 311 125 C259 125 233 160 244 214 L297 462 C301 481 296 491 275 491 L193 491 C177 491 162 480 158 461 L100 191 C76 76 124 -6 248 -6 C313 -6 380 25 418 60 C420 25 413 0 453 0 L453 0 Z M223 618 C220 605 224 598 236 598 L599 598 C611 598 619 610 621 618 L632 668 C634 680 629 686 617 686 L255 686 C243 686 236 680 234 668 L223 618 Z " />
<glyph glyph-name="Ubreve" unicode="&#x16c;" horiz-adv-x="752" d="M370 720 C373 732 361 742 352 742 L248 742 C236 742 225 730 223 720 L132 293 C96 125 204 -12 373 -12 C541 -12 708 125 743 293 L834 720 C837 733 826 742 814 742 L715 742 C701 742 689 732 687 720 L596 293 C576 200 495 123 402 123 C308 123 260 200 279 293 L370 720 Z M571 856 C646 857 716 914 730 977 C732 989 723 996 711 996 L660 996 C649 996 643 987 641 978 C638 960 617 943 591 943 C561 943 550 961 554 980 C556 989 551 996 542 996 L489 996 C479 996 468 988 466 977 C452 915 497 858 571 856 L571 856 Z " />
<glyph glyph-name="ubreve" unicode="&#x16d;" horiz-adv-x="608" d="M453 0 L507 0 C528 0 540 11 544 30 L636 463 C639 479 632 491 613 491 L532 491 C512 491 501 481 497 463 L443 211 C433 160 354 125 311 125 C259 125 233 160 244 214 L297 462 C301 481 296 491 275 491 L193 491 C177 491 162 480 158 461 L100 191 C76 76 124 -6 248 -6 C313 -6 380 25 418 60 C420 25 413 0 453 0 L453 0 Z M427 604 C502 605 572 662 586 725 C588 737 579 744 567 744 L516 744 C505 744 499 735 497 726 C494 708 473 691 447 691 C417 691 406 709 410 728 C412 737 407 744 398 744 L345 744 C335 744 324 736 322 725 C308 663 353 606 427 604 L427 604 Z " />
<glyph glyph-name="Uring" unicode="&#x16e;" horiz-adv-x="752" d="M370 720 C373 732 361 742 352 742 L248 742 C236 742 225 730 223 720 L132 293 C96 125 204 -12 373 -12 C541 -12 708 125 743 293 L834 720 C837 733 826 742 814 742 L715 742 C701 742 689 732 687 720 L596 293 C576 200 495 123 402 123 C308 123 260 200 279 293 L370 720 Z M593 1028 C534 1028 478 980 466 922 C454 864 490 818 548 818 C606 818 664 864 676 922 C688 980 651 1028 593 1028 L593 1028 Z M580 964 C603 964 617 946 612 922 C607 899 585 882 562 882 C539 882 526 899 531 922 C536 946 556 964 580 964 L580 964 Z " />
<glyph glyph-name="uring" unicode="&#x16f;" horiz-adv-x="608" d="M453 0 L507 0 C528 0 540 11 544 30 L636 463 C639 479 632 491 613 491 L532 491 C512 491 501 481 497 463 L443 211 C433 160 354 125 311 125 C259 125 233 160 244 214 L297 462 C301 481 296 491 275 491 L193 491 C177 491 162 480 158 461 L100 191 C76 76 124 -6 248 -6 C313 -6 380 25 418 60 C420 25 413 0 453 0 L453 0 Z M449 776 C390 776 334 728 322 670 C310 612 346 566 404 566 C462 566 520 612 532 670 C544 728 507 776 449 776 L449 776 Z M436 712 C459 712 473 694 468 670 C463 647 441 630 418 630 C395 630 382 647 387 670 C392 694 412 712 436 712 L436 712 Z " />
<glyph glyph-name="Uhungarumlaut" unicode="&#x170;" horiz-adv-x="752" d="M370 720 C373 732 361 742 352 742 L248 742 C236 742 225 730 223 720 L132 293 C96 125 204 -12 373 -12 C541 -12 708 125 743 293 L834 720 C837 733 826 742 814 742 L715 742 C701 742 689 732 687 720 L596 293 C576 200 495 123 402 123 C308 123 260 200 279 293 L370 720 Z M786 965 C793 974 801 994 784 994 L704 994 C692 994 684 988 673 973 L607 871 C598 859 590 839 611 839 L687 839 C699 839 709 845 718 860 L786 965 Z M585 965 C592 974 600 994 582 994 L503 994 C490 994 482 988 471 973 L406 871 C397 859 388 839 410 839 L486 839 C498 839 507 845 517 860 L585 965 Z " />
<glyph glyph-name="uhungarumlaut" unicode="&#x171;" horiz-adv-x="608" d="M453 0 L507 0 C528 0 540 11 544 30 L636 463 C639 479 632 491 613 491 L532 491 C512 491 501 481 497 463 L443 211 C433 160 354 125 311 125 C259 125 233 160 244 214 L297 462 C301 481 296 491 275 491 L193 491 C177 491 162 480 158 461 L100 191 C76 76 124 -6 248 -6 C313 -6 380 25 418 60 C420 25 413 0 453 0 L453 0 Z M655 713 C662 722 670 742 653 742 L573 742 C561 742 553 736 542 721 L476 619 C467 607 459 587 480 587 L556 587 C568 587 578 593 587 608 L655 713 Z M454 713 C461 722 469 742 451 742 L372 742 C359 742 351 736 340 721 L275 619 C266 607 257 587 279 587 L355 587 C367 587 376 593 386 608 L454 713 Z " />
<glyph glyph-name="Uogonek" unicode="&#x172;" horiz-adv-x="752" d="M370 720 C373 732 361 742 352 742 L248 742 C236 742 225 730 223 720 L132 293 C96 125 204 -12 373 -12 C541 -12 708 125 743 293 L834 720 C837 733 826 742 814 742 L715 742 C701 742 689 732 687 720 L596 293 C576 200 495 123 402 123 C308 123 260 200 279 293 L370 720 Z M312 -265 C327 -269 333 -265 337 -258 L365 -207 C367 -203 368 -192 357 -190 C294 -174 276 -157 280 -137 C290 -92 399 -75 411 -15 L416 6 L332 6 C321 -46 205 -63 189 -137 C179 -185 195 -233 312 -265 L312 -265 Z " />
<glyph glyph-name="uogonek" unicode="&#x173;" horiz-adv-x="608" d="M453 0 L507 0 C528 0 540 11 544 30 L636 463 C639 479 632 491 613 491 L532 491 C512 491 501 481 497 463 L443 211 C433 160 354 125 311 125 C259 125 233 160 244 214 L297 462 C301 481 296 491 275 491 L193 491 C177 491 162 480 158 461 L100 191 C76 76 124 -6 248 -6 C313 -6 380 25 418 60 C420 25 413 0 453 0 L453 0 Z M416 -258 C431 -262 437 -258 441 -251 L469 -200 C471 -196 472 -185 461 -183 C398 -167 380 -150 384 -130 C394 -85 503 -68 515 -8 L520 13 L436 13 C425 -39 309 -56 293 -130 C283 -178 299 -226 416 -258 L416 -258 Z " />
<glyph glyph-name="Wcircumflex" unicode="&#x174;" horiz-adv-x="1065" d="M407 216 L334 718 C331 734 322 742 309 742 L205 742 C182 742 180 731 176 712 C217 491 262 258 304 35 C304 25 308 0 332 0 L405 0 C424 0 440 18 450 37 L592 268 C608 188 625 100 640 20 C640 10 647 0 665 0 L741 0 C760 0 771 17 774 23 C1062 483 1133 597 1204 712 C1205 715 1207 721 1207 727 C1207 736 1201 742 1185 742 L1077 742 C1060 742 1048 733 1041 720 C782 288 760 253 739 216 L708 453 L862 711 C866 719 866 724 866 728 C866 737 860 742 846 742 L729 742 C714 742 704 735 697 723 L407 216 Z M573 894 C570 892 567 889 566 886 C564 880 565 875 568 871 L590 844 C596 838 602 829 609 829 C616 829 623 833 629 838 L723 915 L782 838 C791 827 795 828 797 828 C806 828 817 838 824 844 L858 872 C862 875 865 878 866 882 C867 887 865 892 863 894 C828 939 792 984 757 1029 C754 1032 751 1034 748 1034 C743 1034 739 1032 736 1029 L573 894 Z " />
<glyph glyph-name="wcircumflex" unicode="&#x175;" horiz-adv-x="813" d="M275 468 C272 482 263 491 247 491 L156 491 C137 491 122 477 125 457 L202 38 C205 21 208 0 233 0 L307 0 C326 0 338 16 344 26 L445 190 L473 41 C475 32 479 0 504 0 L583 0 C598 0 611 21 617 29 L879 457 C881 461 884 466 885 470 C888 484 879 491 862 491 L771 491 C757 491 741 483 731 465 L581 199 L554 369 L604 457 C614 475 606 491 584 491 L504 491 C484 491 473 481 463 465 L313 200 L275 468 Z M402 642 C399 640 396 637 395 634 C393 628 394 623 397 619 L419 592 C425 586 431 577 438 577 C445 577 452 581 458 586 L552 663 L611 586 C620 575 624 576 626 576 C635 576 646 586 653 592 L687 620 C691 623 694 626 695 630 C696 635 694 640 692 642 C657 687 621 732 586 777 C583 780 580 782 577 782 C572 782 568 780 565 777 L402 642 Z " />
<glyph glyph-name="Ycircumflex" unicode="&#x176;" horiz-adv-x="684" d="M347 314 L286 28 C285 25 285 22 285 19 C285 6 292 0 305 0 L401 0 C419 0 431 9 435 28 L495 315 L816 713 C822 720 826 727 826 733 C826 739 822 742 814 742 L684 742 C674 741 671 740 657 723 L440 450 L360 721 C352 741 351 740 339 742 L211 742 C202 742 192 736 192 727 C192 724 195 713 196 711 L347 314 Z M374 894 C371 892 368 889 367 886 C365 880 366 875 369 871 L391 844 C397 838 403 829 410 829 C417 829 424 833 430 838 L524 915 L583 838 C592 827 596 828 598 828 C607 828 618 838 625 844 L659 872 C663 875 666 878 667 882 C668 887 666 892 664 894 C629 939 593 984 558 1029 C555 1032 552 1034 549 1034 C544 1034 540 1032 537 1029 L374 894 Z " />
<glyph glyph-name="ycircumflex" unicode="&#x177;" horiz-adv-x="559" d="M629 448 C634 457 636 463 637 466 C640 481 635 491 614 491 L528 491 C511 491 499 484 490 469 L320 175 L273 468 L273 467 C272 481 263 491 246 491 L159 491 C136 491 123 475 127 453 L215 5 L120 -164 C109 -182 115 -198 138 -198 L223 -198 C238 -198 249 -187 256 -176 L629 448 Z M261 642 C258 640 255 637 254 634 C252 628 253 623 256 619 L278 592 C284 586 290 577 297 577 C304 577 311 581 317 586 L411 663 L470 586 C479 575 483 576 485 576 C494 576 505 586 512 592 L546 620 C550 623 553 626 554 630 C555 635 553 640 551 642 C516 687 480 732 445 777 C442 780 439 782 436 782 C431 782 427 780 424 777 L261 642 Z " />
<glyph glyph-name="Ydieresis" unicode="&#x178;" horiz-adv-x="684" d="M347 314 L286 28 C285 25 285 22 285 19 C285 6 292 0 305 0 L401 0 C419 0 431 9 435 28 L495 315 L816 713 C822 720 826 727 826 733 C826 739 822 742 814 742 L684 742 C674 741 671 740 657 723 L440 450 L360 721 C352 741 351 740 339 742 L211 742 C202 742 192 736 192 727 C192 724 195 713 196 711 L347 314 Z M355 875 C347 837 372 805 411 805 C451 805 488 837 497 875 C505 915 481 946 441 946 C402 946 364 915 355 875 L355 875 Z M558 876 C550 838 575 806 614 806 C654 806 692 838 700 876 C708 916 685 948 644 948 C605 948 567 916 558 876 L558 876 Z " />
<glyph glyph-name="Zacute" unicode="&#x179;" horiz-adv-x="677" d="M602 0 C618 0 633 15 636 29 C653 112 654 115 654 117 C654 130 644 137 631 137 L269 137 L756 624 C762 631 763 635 765 642 C781 717 781 719 781 721 C781 734 771 742 758 742 L222 742 C205 742 192 732 189 715 C170 630 170 627 170 625 C170 612 178 605 193 605 L550 605 L64 121 C57 115 55 109 54 104 L37 22 C34 9 47 0 60 0 L602 0 Z M623 965 C630 974 632 979 633 984 C634 992 629 994 621 994 L546 994 C533 994 525 988 514 973 L449 871 C443 862 441 857 439 852 C437 843 440 839 453 839 L524 839 C536 839 546 845 555 860 L623 965 Z " />
<glyph glyph-name="zacute" unicode="&#x17a;" horiz-adv-x="517" d="M158 461 C162 479 177 491 196 491 L551 491 C567 491 580 481 575 461 L561 394 C560 390 559 383 553 377 L268 124 L477 124 C496 124 506 114 501 93 L489 33 C486 17 470 0 451 0 L81 0 C64 0 53 16 57 33 L68 86 C69 93 71 100 79 107 C164 183 290 290 376 367 L169 367 C150 367 140 377 145 399 L158 461 Z M513 713 C520 722 522 727 523 732 C524 740 519 742 511 742 L436 742 C423 742 415 736 404 721 L339 619 C333 610 331 605 329 600 C327 591 330 587 343 587 L414 587 C426 587 436 593 445 608 L513 713 Z " />
<glyph glyph-name="Zdotaccent" unicode="&#x17b;" horiz-adv-x="677" d="M602 0 C618 0 633 15 636 29 C653 112 654 115 654 117 C654 130 644 137 631 137 L269 137 L756 624 C762 631 763 635 765 642 C781 717 781 719 781 721 C781 734 771 742 758 742 L222 742 C205 742 192 732 189 715 C170 630 170 627 170 625 C170 612 178 605 193 605 L550 605 L64 121 C57 115 55 109 54 104 L37 22 C34 9 47 0 60 0 L602 0 Z M458 907 C449 863 477 826 521 826 C567 826 610 863 619 907 C629 952 602 988 556 988 C512 988 468 952 458 907 L458 907 Z " />
<glyph glyph-name="zdotaccent" unicode="&#x17c;" horiz-adv-x="517" d="M158 461 C162 479 177 491 196 491 L551 491 C567 491 580 481 575 461 L561 394 C560 390 559 383 553 377 L268 124 L477 124 C496 124 506 114 501 93 L489 33 C486 17 470 0 451 0 L81 0 C64 0 53 16 57 33 L68 86 C69 93 71 100 79 107 C164 183 290 290 376 367 L169 367 C150 367 140 377 145 399 L158 461 Z M347 655 C338 611 366 574 410 574 C456 574 499 611 508 655 C518 700 491 736 445 736 C401 736 357 700 347 655 L347 655 Z " />
<glyph glyph-name="Zcaron" unicode="&#x17d;" horiz-adv-x="677" d="M602 0 C618 0 633 15 636 29 C653 112 654 115 654 117 C654 130 644 137 631 137 L269 137 L756 624 C762 631 763 635 765 642 C781 717 781 719 781 721 C781 734 771 742 758 742 L222 742 C205 742 192 732 189 715 C170 630 170 627 170 625 C170 612 178 605 193 605 L550 605 L64 121 C57 115 55 109 54 104 L37 22 C34 9 47 0 60 0 L602 0 Z M506 824 C509 822 511 819 516 819 C519 819 523 822 527 824 L691 959 C694 961 697 966 698 971 C699 975 697 978 695 982 L673 1009 C667 1016 660 1025 653 1025 C649 1025 640 1021 634 1015 L541 938 L477 1019 C471 1027 463 1028 456 1022 L419 993 L402 980 C400 978 398 975 398 972 C397 968 399 961 400 959 L506 824 Z " />
<glyph glyph-name="zcaron" unicode="&#x17e;" horiz-adv-x="517" d="M158 461 C162 479 177 491 196 491 L551 491 C567 491 580 481 575 461 L561 394 C560 390 559 383 553 377 L268 124 L477 124 C496 124 506 114 501 93 L489 33 C486 17 470 0 451 0 L81 0 C64 0 53 16 57 33 L68 86 C69 93 71 100 79 107 C164 183 290 290 376 367 L169 367 C150 367 140 377 145 399 L158 461 Z M387 573 C390 571 392 568 397 568 C400 568 404 571 408 573 L572 708 C575 710 578 715 579 720 C580 724 578 727 576 731 L554 758 C548 765 541 774 534 774 C530 774 521 770 515 764 L422 687 L358 768 C352 776 344 777 337 771 L300 742 L283 729 C281 727 279 724 279 721 C278 717 280 710 281 708 L387 573 Z " />
<glyph glyph-name="florin" unicode="&#x192;" horiz-adv-x="309" d="M-18 -196 C91 -186 182 -110 217 -7 C224 13 230 33 234 55 L304 384 L371 384 C386 384 398 396 402 412 L416 478 C419 495 411 504 396 504 L330 504 L340 553 C348 591 385 621 426 621 C440 621 452 631 455 646 L472 726 C476 742 468 751 451 752 C328 745 223 660 196 531 L190 504 L145 504 C128 504 117 495 113 478 L99 412 C95 394 103 384 119 384 L165 384 L83 1 C75 -38 34 -68 -4 -68 C-16 -68 -28 -77 -31 -91 L-43 -145 C-48 -172 -47 -196 -18 -196 L-18 -196 Z " />
<glyph glyph-name="AEacute" unicode="&#x1fc;" horiz-adv-x="1159" d="M305 139 L601 139 C592 99 584 64 576 24 C572 8 580 0 597 0 L1086 0 C1103 0 1116 10 1120 27 L1137 110 C1141 127 1134 137 1116 137 L748 137 L787 318 L1071 318 C1089 318 1101 332 1104 343 L1119 417 C1123 435 1113 443 1098 443 L815 443 L849 605 L1203 605 C1221 605 1234 620 1237 632 L1254 713 C1258 732 1250 742 1233 742 L762 742 C745 742 729 730 720 721 C582 580 480 475 59 60 L31 31 C31 31 31 31 31 31 C31 31 31 31 32 32 C28 28 22 20 20 14 C18 3 24 0 37 0 L148 0 C161 0 175 7 188 21 L305 139 Z M687 523 L633 270 L434 270 L687 523 Z M984 965 C991 974 993 979 994 984 C995 992 990 994 982 994 L907 994 C894 994 886 988 875 973 L810 871 C804 862 802 857 800 852 C798 843 801 839 814 839 L885 839 C897 839 907 845 916 860 L984 965 Z " />
<glyph glyph-name="aeacute" unicode="&#x1fd;" horiz-adv-x="915" d="M738 713 C745 722 747 727 748 732 C749 740 744 742 736 742 L661 742 C648 742 640 736 629 721 L564 619 C558 610 556 605 554 600 C552 591 555 587 568 587 L639 587 C651 587 661 593 670 608 L738 713 Z M410 27 C410 11 413 0 433 0 L497 0 C512 0 527 9 531 25 L624 464 C628 480 616 491 601 491 L547 491 C528 491 524 485 514 463 L495 415 C480 457 448 498 373 498 C230 498 108 389 77 244 C47 101 123 -10 265 -10 L268 -10 C341 -10 381 29 413 65 C412 52 412 40 410 27 L410 27 Z M208 243 C223 315 282 376 356 376 C431 376 464 315 449 242 C433 168 374 111 300 111 C227 111 192 169 208 243 L208 243 Z M688 107 C638 107 589 146 595 204 L866 204 C908 204 943 213 952 260 C977 386 903 501 756 501 C633 501 494 382 464 244 C434 102 526 -12 665 -12 C722 -12 780 4 829 37 C838 43 848 51 850 61 C850 64 850 69 848 74 L821 136 C817 143 813 145 807 145 C800 145 789 136 777 131 C748 116 716 106 688 107 L688 107 Z M614 290 C631 341 691 382 740 382 C800 382 839 346 829 290 L614 290 Z " />
<glyph glyph-name="Oslashacute" unicode="&#x1fe;" horiz-adv-x="853" d="M766 965 C773 974 775 979 776 984 C777 992 772 994 764 994 L689 994 C676 994 668 988 657 973 L592 871 C586 862 584 857 582 852 C580 843 583 839 596 839 L667 839 C679 839 689 845 698 860 L766 965 Z M586 753 C374 753 167 581 122 370 C94 238 137 121 225 54 C198 12 169 -29 142 -70 C139 -76 138 -79 137 -80 C136 -89 141 -93 155 -93 L263 -93 C277 -93 284 -87 294 -72 C310 -49 326 -25 343 -2 C368 -8 394 -11 423 -11 C634 -11 841 159 886 370 C914 501 872 616 787 684 C807 714 842 768 860 796 L871 812 C874 816 875 819 876 823 C878 833 869 837 854 837 L756 837 C739 837 727 829 718 814 L670 742 C644 749 616 753 586 753 L586 753 Z M262 371 C291 507 420 617 557 617 C693 617 775 507 746 371 C717 233 588 124 452 124 C315 124 233 233 262 371 L262 371 Z " />
<glyph glyph-name="oslashacute" unicode="&#x1ff;" horiz-adv-x="585" d="M549 713 C556 722 558 727 559 732 C560 740 555 742 547 742 L472 742 C459 742 451 736 440 721 L375 619 C369 610 367 605 365 600 C363 591 366 587 379 587 L450 587 C462 587 472 593 481 608 L549 713 Z M127 46 C80 92 59 163 76 244 C106 386 241 496 382 496 C393 496 404 495 415 494 L448 545 C457 558 468 566 484 566 L562 566 C577 566 585 562 582 550 C582 547 579 540 578 539 L520 449 C574 403 599 329 581 244 C551 102 415 -9 275 -9 C259 -9 243 -8 228 -5 C216 -23 204 -40 194 -57 C185 -70 177 -76 164 -76 L77 -76 C58 -76 57 -63 64 -52 L127 46 Z M199 243 C184 171 226 113 298 113 C369 113 436 171 452 243 C467 314 424 374 353 374 C282 374 214 314 199 243 L199 243 Z " />
<glyph glyph-name="Scommaaccent" unicode="&#x218;" horiz-adv-x="641" d="M619 544 C630 544 662 570 686 592 L686 591 L704 607 C712 615 718 622 720 631 C723 649 690 682 663 702 C617 735 556 755 495 755 C336 755 214 671 187 547 C164 436 231 373 384 324 C450 304 522 282 509 223 C497 164 432 125 358 125 C305 125 238 163 203 209 C198 216 192 224 182 224 C170 224 135 197 112 179 L101 170 L92 163 C83 155 77 148 76 141 C74 134 76 127 82 118 C134 41 224 -10 327 -10 C487 -10 633 83 664 229 C692 363 573 413 456 452 C388 474 327 496 337 544 C346 588 395 623 469 623 C528 623 574 580 596 557 C604 548 610 544 619 544 L619 544 Z M229 -149 C221 -187 245 -222 280 -228 L279 -232 C276 -247 249 -270 246 -283 C243 -298 266 -319 279 -319 C300 -319 361 -266 385 -156 C396 -105 370 -71 324 -71 C281 -71 238 -105 229 -149 L229 -149 Z " />
<glyph glyph-name="scommaaccent" unicode="&#x219;" horiz-adv-x="470" d="M492 399 C504 409 506 423 496 437 C463 484 402 501 341 501 C229 501 139 442 120 356 C105 282 144 235 259 203 C308 189 346 178 340 149 C334 120 300 100 247 100 C223 100 185 116 159 146 C154 151 146 159 138 159 C133 159 127 157 120 152 L67 110 C60 104 55 97 54 90 C52 83 54 76 58 69 C93 17 157 -12 225 -12 C339 -12 445 48 467 149 C487 246 411 274 329 299 C287 311 236 318 243 350 C248 374 267 393 317 393 C360 393 386 364 405 352 C410 349 417 341 429 351 L492 399 Z M108 -149 C100 -187 124 -222 159 -228 L158 -232 C155 -247 128 -270 125 -283 C122 -298 145 -319 158 -319 C179 -319 240 -266 264 -156 C275 -105 249 -71 203 -71 C160 -71 117 -105 108 -149 L108 -149 Z " />
<glyph glyph-name="uni021A" unicode="&#x21a;" horiz-adv-x="633" d="M155 632 C151 616 161 606 174 606 L356 606 L232 25 C230 13 243 0 252 0 L352 0 C364 0 378 15 380 25 L503 606 L685 606 C701 606 713 618 716 632 L735 720 C736 735 726 742 714 742 L203 742 C190 742 176 732 174 720 L155 632 Z M196 -149 C188 -187 212 -222 247 -228 L246 -232 C243 -247 216 -270 213 -283 C210 -298 233 -319 246 -319 C267 -319 328 -266 352 -156 C363 -105 337 -71 291 -71 C248 -71 205 -105 196 -149 L196 -149 Z " />
<glyph glyph-name="uni021B" unicode="&#x21b;" horiz-adv-x="328" d="M186 491 L159 491 C139 491 128 481 124 462 L112 407 C108 386 115 376 135 376 L162 376 L88 29 C84 10 92 0 112 0 L189 0 C209 0 223 10 227 29 L300 376 L360 376 C377 376 390 386 395 407 L406 462 C410 481 401 491 385 491 L325 491 L356 637 C360 654 357 667 338 667 C336 667 334 667 331 666 L252 655 C231 653 218 642 215 626 L186 491 Z M37 -149 C29 -187 53 -222 88 -228 L87 -232 C84 -247 57 -270 54 -283 C51 -298 74 -319 87 -319 C108 -319 169 -266 193 -156 C204 -105 178 -71 132 -71 C89 -71 46 -105 37 -149 L37 -149 Z " />
<glyph glyph-name="dotlessj" unicode="&#x237;" horiz-adv-x="282" d="M-24 -204 C78 -203 171 -135 202 -35 C207 -21 210 -5 214 10 L310 465 C314 480 305 491 289 491 L210 491 C195 491 182 482 178 465 L75 -21 C67 -57 34 -87 0 -89 L-2 -89 C-16 -89 -28 -98 -32 -114 L-45 -178 C-49 -194 -41 -204 -24 -204 L-24 -204 Z " />
<glyph glyph-name="circumflex" unicode="&#x2c6;" horiz-adv-x="374" d="M178 642 C175 640 172 637 171 634 C169 628 170 623 173 619 L195 592 C201 586 207 577 214 577 C221 577 228 581 234 586 L328 663 L387 586 C396 575 400 576 402 576 C411 576 422 586 429 592 L463 620 C467 623 470 626 471 630 C472 635 470 640 468 642 C433 687 397 732 362 777 C359 780 356 782 353 782 C348 782 344 780 341 777 L178 642 Z " />
<glyph glyph-name="caron" unicode="&#x2c7;" horiz-adv-x="368" d="M296 572 C299 570 301 567 306 567 C309 567 313 570 317 572 L481 707 C484 709 487 714 488 719 C489 723 487 726 485 730 L463 757 C457 764 450 773 443 773 C439 773 430 769 424 763 L331 686 L267 767 C261 775 253 776 246 770 L209 741 L192 728 C190 726 188 723 188 720 C187 716 189 709 190 707 L296 572 Z " />
<glyph glyph-name="uni02C9" unicode="&#x2c9;" horiz-adv-x="490" d="M186 639 C184 626 188 619 200 619 L551 619 C563 619 571 631 573 639 L581 677 C584 689 579 695 567 695 L216 695 C204 695 197 689 195 677 L186 639 Z " />
<glyph glyph-name="breve" unicode="&#x2d8;" horiz-adv-x="326" d="M305 604 C380 605 450 662 464 725 C466 737 457 744 445 744 L394 744 C383 744 377 735 375 726 C372 708 351 691 325 691 C295 691 284 709 288 728 C290 737 285 744 276 744 L223 744 C213 744 202 736 200 725 C186 663 231 606 305 604 L305 604 Z " />
<glyph glyph-name="dotaccent" unicode="&#x2d9;" horiz-adv-x="258" d="M201 650 C192 611 218 579 256 579 C297 579 334 611 342 650 C350 689 327 721 286 721 C248 721 209 689 201 650 L201 650 Z " />
<glyph glyph-name="ring" unicode="&#x2da;" horiz-adv-x="259" d="M293 776 C234 776 178 728 166 670 C154 612 190 566 248 566 C306 566 364 612 376 670 C388 728 351 776 293 776 L293 776 Z M280 712 C303 712 317 694 312 670 C307 647 285 630 262 630 C239 630 226 647 231 670 C236 694 256 712 280 712 L280 712 Z " />
<glyph glyph-name="ogonek" unicode="&#x2db;" horiz-adv-x="277" d="M136 -265 C151 -269 157 -265 161 -258 L189 -207 C191 -203 192 -192 181 -190 C118 -174 100 -157 104 -137 C114 -92 223 -75 235 -15 L240 6 L156 6 C145 -46 29 -63 13 -137 C3 -185 19 -233 136 -265 L136 -265 Z " />
<glyph glyph-name="tilde" unicode="&#x2dc;" horiz-adv-x="353" d="M255 619 C274 619 290 603 305 592 C322 577 345 568 369 568 C407 568 442 584 475 614 L492 632 C494 633 498 639 499 642 C500 647 499 650 497 654 L467 689 C464 692 461 693 458 693 C447 693 433 675 425 667 C413 657 401 653 387 653 C378 653 370 656 363 662 L339 680 C321 694 297 703 275 704 C237 704 199 687 166 653 L153 640 C145 631 140 625 148 616 L175 584 C194 564 225 619 255 619 L255 619 Z " />
<glyph glyph-name="hungarumlaut" unicode="&#x2dd;" horiz-adv-x="474" d="M613 713 C620 722 628 742 611 742 L531 742 C519 742 511 736 500 721 L434 619 C425 607 417 587 438 587 L514 587 C526 587 536 593 545 608 L613 713 Z M412 713 C419 722 427 742 409 742 L330 742 C317 742 309 736 298 721 L233 619 C224 607 215 587 237 587 L313 587 C325 587 334 593 344 608 L412 713 Z " />
<glyph glyph-name="uni037E" unicode="&#x37e;" horiz-adv-x="264" d="M156 458 C147 413 176 377 220 377 C266 377 308 413 318 458 C327 502 300 539 254 539 C210 539 166 502 156 458 L156 458 Z M72 66 C64 28 86 -8 120 -15 L120 -16 C117 -29 111 -37 105 -41 L97 -51 L97 -51 C93 -56 89 -60 88 -66 C87 -73 88 -80 92 -86 L110 -101 C113 -104 117 -107 125 -107 C146 -107 212 -52 236 60 C247 113 219 149 172 149 C127 149 82 113 72 66 L72 66 Z " />
<glyph glyph-name="tonos" unicode="&#x384;" horiz-adv-x="258" d="M260 564 C268 564 277 572 281 582 L327 729 C331 737 326 743 317 743 L233 743 C225 743 219 737 217 731 L203 582 C200 570 207 565 217 564 L260 564 Z " />
<glyph glyph-name="dieresistonos" unicode="&#x385;" horiz-adv-x="430" d="M173 634 C167 604 176 592 206 592 L228 592 C258 592 273 604 279 634 L284 656 C291 689 274 698 250 698 L228 698 C199 698 185 689 178 656 L173 634 Z M419 634 C412 604 421 592 451 592 L473 592 C503 592 517 604 524 634 L528 656 C536 689 519 698 496 698 L474 698 C443 698 431 689 423 656 L419 634 Z M324 589 L353 589 C367 589 381 602 385 615 L431 757 C434 770 426 783 413 783 L344 783 C331 783 319 772 316 760 L302 615 C300 600 309 590 324 589 L324 589 Z " />
<glyph glyph-name="Alphatonos" unicode="&#x386;" horiz-adv-x="766" d="M450 726 C157 255 5 20 5 18 C2 6 7 0 23 0 L154 0 C163 0 171 5 176 15 L251 137 L548 137 L572 15 C573 3 578 0 591 0 L697 0 C720 0 726 10 728 20 L729 23 L581 726 C578 735 572 742 558 742 L483 742 C465 742 457 735 450 726 L450 726 Z M484 532 L529 268 L327 268 L484 532 Z M249 565 C258 565 267 573 270 583 L317 730 C321 738 316 744 307 744 L223 744 C215 744 209 738 207 732 L192 583 C190 571 197 566 207 565 L249 565 Z " />
<glyph glyph-name="anoteleia" unicode="&#x387;" horiz-adv-x="227" d="M114 280 C105 236 134 200 178 200 C225 200 266 236 276 280 C285 326 259 361 212 361 C168 361 124 326 114 280 L114 280 Z " />
<glyph glyph-name="Epsilontonos" unicode="&#x388;" horiz-adv-x="667" d="M109 21 C109 19 109 17 109 15 C109 5 117 0 127 0 L622 0 C637 0 645 6 648 21 L668 112 C669 116 669 119 669 122 C669 132 664 136 650 136 L282 136 L320 318 L595 318 C610 318 619 329 621 341 L640 432 C641 434 641 437 641 439 C641 449 635 454 626 454 C625 454 624 454 623 454 L349 454 L381 606 L737 606 C753 606 764 617 767 629 L785 717 C786 720 786 722 786 725 C786 735 781 742 767 742 L285 742 C271 742 261 735 258 718 L109 21 Z M160 564 C169 564 178 572 181 582 L228 729 C232 737 227 743 218 743 L134 743 C126 743 120 737 118 731 L103 582 C101 570 108 565 118 564 L160 564 Z " />
<glyph glyph-name="Etatonos" unicode="&#x389;" horiz-adv-x="826" d="M296 720 C298 730 309 742 321 742 L425 742 C434 742 444 734 444 724 C444 723 443 721 443 720 L388 462 L719 462 L774 720 C777 732 789 742 802 742 L901 742 C912 742 922 735 922 724 C922 723 922 721 922 720 L773 22 C770 7 760 0 743 0 L644 0 C634 0 625 5 625 17 C625 18 625 20 626 22 L690 325 L359 325 L295 22 C292 9 279 0 265 0 L164 0 C152 0 146 5 146 14 C146 17 147 19 147 22 L296 720 Z M172 565 C181 565 190 573 193 583 L240 730 C244 738 239 744 230 744 L146 744 C138 744 132 738 130 732 L115 583 C113 571 120 566 130 565 L172 565 Z " />
<glyph glyph-name="Iotatonos" unicode="&#x38a;" horiz-adv-x="309" d="M85 22 C85 19 84 17 84 15 C84 5 91 0 103 0 L204 0 C220 0 230 7 233 22 L381 720 C381 721 382 722 382 724 C382 735 370 742 361 742 L260 742 C246 742 236 732 234 720 L85 22 Z M148 563 C156 563 165 572 169 581 L215 728 C219 737 214 743 205 743 L121 743 C113 743 107 737 105 731 L91 581 C88 570 95 564 105 563 L148 563 Z " />
<glyph glyph-name="Omicrontonos" unicode="&#x38c;" horiz-adv-x="868" d="M282 370 C311 506 431 615 566 615 C682 615 753 535 753 427 C753 267 615 127 463 127 C347 127 276 206 276 314 C276 332 278 351 282 370 L282 370 Z M133 370 C127 343 125 316 125 290 C125 118 250 -11 434 -11 C670 -11 906 204 906 450 C906 623 780 753 597 753 C385 753 178 582 133 370 L133 370 Z M174 564 C182 564 191 573 195 582 L241 729 C245 738 240 744 231 744 L147 744 C139 744 133 738 131 732 L117 582 C114 571 121 565 131 564 L174 564 Z " />
<glyph glyph-name="Upsilontonos" unicode="&#x38e;" horiz-adv-x="736" d="M401 314 L341 28 C340 25 340 22 340 19 C340 6 347 0 360 0 L455 0 C474 0 485 9 489 28 L550 315 L871 713 C877 720 880 727 880 733 C880 739 876 742 869 742 L738 742 C728 741 725 740 712 723 L495 450 L415 721 C406 741 405 740 394 742 L266 742 C256 742 247 736 247 727 C247 724 250 713 251 711 L401 314 Z M152 564 C161 564 170 572 173 582 L220 729 C224 737 219 743 210 743 L126 743 C118 743 112 737 110 731 L95 582 C93 570 100 565 110 564 L152 564 Z " />
<glyph glyph-name="Omegatonos" unicode="&#x38f;" horiz-adv-x="780" d="M126 122 C115 122 105 115 102 102 L85 21 C82 7 89 0 104 0 L316 0 C329 0 337 6 340 19 L384 226 C386 236 379 243 370 243 C309 274 276 342 293 421 C316 531 422 619 532 619 C641 619 710 531 687 421 C670 342 609 274 534 243 C523 243 516 235 514 226 L470 19 C467 6 473 0 485 0 L702 0 C715 0 725 9 728 21 L745 102 C748 115 741 122 730 122 L626 122 L633 156 C726 215 799 311 822 420 C861 605 745 752 560 752 C376 752 197 605 158 420 C134 310 167 214 237 154 L231 122 L126 122 Z M173 565 C182 565 191 573 194 583 L241 730 C245 738 240 744 231 744 L147 744 C139 744 133 738 131 732 L116 583 C114 571 121 566 131 565 L173 565 Z " />
<glyph glyph-name="iotadieresistonos" unicode="&#x390;" horiz-adv-x="247" d="M283 467 C286 481 275 491 263 491 L180 491 C164 491 154 481 151 467 L57 23 C54 8 60 0 76 0 L159 0 C175 0 186 8 189 23 L283 467 Z M281 666 C290 666 299 675 302 684 L349 831 C353 840 348 846 339 846 L255 846 C247 846 241 840 239 834 L224 684 C222 673 229 667 239 666 L281 666 Z M79 624 C71 586 96 554 135 554 C175 554 212 586 221 624 C229 664 205 695 165 695 C126 695 88 664 79 624 L79 624 Z M282 625 C274 587 299 555 338 555 C378 555 416 587 424 625 C432 665 409 697 368 697 C329 697 291 665 282 625 L282 625 Z " />
<glyph glyph-name="Alpha" unicode="&#x391;" horiz-adv-x="728" d="M450 726 C157 255 5 20 5 18 C2 6 7 0 23 0 L154 0 C163 0 171 5 176 15 L251 137 L548 137 L572 15 C573 3 578 0 591 0 L697 0 C720 0 726 10 728 20 L729 23 L581 726 C578 735 572 742 558 742 L483 742 C465 742 457 735 450 726 L450 726 Z M484 532 L529 268 L327 268 L484 532 Z " />
<glyph glyph-name="Beta" unicode="&#x392;" horiz-adv-x="678" d="M728 535 C731 551 733 565 733 580 C733 674 664 742 563 742 L266 742 C248 742 236 731 232 714 L86 26 C86 24 85 22 85 20 C85 7 94 0 108 0 L437 0 C568 0 703 128 703 263 C703 317 681 366 647 398 C687 433 717 481 728 535 L728 535 Z M476 324 C521 324 550 286 550 244 C550 185 492 129 435 129 L256 129 L297 324 L476 324 Z M580 533 C569 482 524 442 471 442 L323 442 L359 613 L508 613 C554 613 582 590 582 552 C582 546 581 539 580 533 L580 533 Z " />
<glyph glyph-name="Gamma" unicode="&#x393;" horiz-adv-x="605" d="M85 19 C82 7 88 0 101 0 L201 0 C213 0 223 6 226 19 L351 610 L693 610 C704 610 714 618 717 630 L736 721 C739 734 734 742 721 742 L258 742 C246 742 237 736 234 722 L85 19 Z " />
<glyph glyph-name="Epsilon" unicode="&#x395;" horiz-adv-x="642" d="M85 21 C84 19 84 17 84 15 C84 5 92 0 103 0 L598 0 C612 0 621 6 624 21 L643 112 C644 116 645 119 645 122 C645 132 640 136 626 136 L257 136 L296 318 L571 318 C585 318 594 329 597 341 L616 432 C616 434 617 437 617 439 C617 449 611 454 601 454 C600 454 600 454 599 454 L325 454 L357 606 L712 606 C729 606 740 617 742 629 L761 717 C761 720 762 722 762 725 C762 735 756 742 742 742 L260 742 C246 742 237 735 233 718 L85 21 Z " />
<glyph glyph-name="Zeta" unicode="&#x396;" horiz-adv-x="682" d="M602 0 C618 0 633 15 636 29 C653 112 654 115 654 117 C654 130 644 137 631 137 L269 137 L756 624 C762 631 763 635 765 642 C781 717 781 719 781 721 C781 734 771 742 758 742 L222 742 C205 742 192 732 189 715 C170 630 170 627 170 625 C170 612 178 605 193 605 L550 605 L64 121 C57 115 55 109 54 104 L37 22 C34 9 47 0 60 0 L602 0 Z " />
<glyph glyph-name="Eta" unicode="&#x397;" horiz-adv-x="773" d="M85 22 C85 19 84 17 84 14 C84 5 90 0 102 0 L203 0 C217 0 230 9 233 22 L297 325 L628 325 L564 22 C563 20 563 18 563 17 C563 5 572 0 582 0 L681 0 C698 0 708 7 711 22 L860 720 C860 721 860 723 860 724 C860 735 850 742 839 742 L740 742 C727 742 715 732 712 720 L657 462 L326 462 L381 720 C381 721 382 723 382 724 C382 734 372 742 363 742 L259 742 C247 742 236 730 234 720 L85 22 Z " />
<glyph glyph-name="Theta" unicode="&#x398;" horiz-adv-x="853" d="M361 441 C348 441 341 435 339 424 L318 327 C315 314 320 308 332 308 L661 308 C671 308 680 317 683 327 L703 424 C705 435 699 441 689 441 L361 441 Z M271 370 C300 506 420 615 555 615 C671 615 742 535 742 427 C742 267 604 127 452 127 C336 127 265 206 265 314 C265 332 267 351 271 370 L271 370 Z M122 370 C116 343 114 316 114 290 C114 118 239 -11 423 -11 C659 -11 895 204 895 450 C895 623 769 753 586 753 C374 753 167 582 122 370 L122 370 Z " />
<glyph glyph-name="Iota" unicode="&#x399;" horiz-adv-x="309" d="M85 22 C85 19 84 17 84 15 C84 5 91 0 103 0 L204 0 C220 0 230 7 233 22 L381 720 C381 721 382 722 382 724 C382 735 370 742 361 742 L260 742 C246 742 236 732 234 720 L85 22 Z " />
<glyph glyph-name="Kappa" unicode="&#x39a;" horiz-adv-x="734" d="M85 22 C82 7 89 0 103 0 L204 0 C221 0 230 7 233 22 L276 227 L380 315 L551 15 C556 5 563 0 570 0 L722 0 C729 0 733 2 734 5 C734 9 733 13 729 20 L506 418 L835 726 C840 730 843 733 844 736 C844 740 840 742 831 742 L688 742 C681 742 672 737 663 727 L318 423 L381 720 C384 733 371 742 362 742 L260 742 C246 742 236 732 234 720 L85 22 Z " />
<glyph glyph-name="Lambda" unicode="&#x39b;" horiz-adv-x="718" d="M546 23 C548 8 557 0 572 0 L674 0 C690 0 700 7 703 20 C705 30 702 34 579 693 C575 718 571 742 548 742 L482 742 C460 742 447 721 439 708 L22 32 C21 30 19 24 18 21 C15 8 23 0 40 0 L139 0 C153 0 168 13 177 25 C270 183 381 375 468 522 L546 23 Z " />
<glyph glyph-name="Mu" unicode="&#x39c;" horiz-adv-x="926" d="M516 16 C526 16 540 30 548 40 L800 474 L752 26 C751 24 751 22 751 20 C751 7 759 0 774 0 L865 0 C881 0 893 9 897 26 L972 716 C972 730 966 742 950 742 L834 742 C821 742 808 735 800 719 L800 719 L509 235 C475 563 458 644 447 720 C445 733 438 742 425 742 L308 742 C292 742 279 730 275 716 L57 28 C57 24 56 21 56 19 C56 6 63 0 78 0 L169 0 C187 0 198 10 203 26 L344 474 C366 329 390 183 412 37 C415 29 423 16 432 16 L516 16 Z " />
<glyph glyph-name="Nu" unicode="&#x39d;" horiz-adv-x="791" d="M85 22 C82 7 88 0 103 0 L204 0 C220 0 228 7 230 22 L335 536 L577 16 C583 7 587 0 594 0 L701 0 C717 0 727 7 730 22 L878 720 C881 733 868 742 858 742 L757 742 C750 742 739 739 732 727 L634 243 L404 727 C400 737 388 742 378 742 L260 742 C246 742 236 732 234 720 L85 22 Z " />
<glyph glyph-name="Xi" unicode="&#x39e;" horiz-adv-x="688" d="M607 0 C619 0 628 10 630 20 L649 108 C652 121 645 129 633 129 L107 129 C94 129 85 121 83 108 L64 20 C61 7 67 0 80 0 L607 0 Z M730 612 C743 612 753 623 755 633 L774 721 C777 735 770 742 758 742 L243 742 C230 742 221 735 218 721 L200 633 C197 620 203 612 216 612 L730 612 Z M588 315 C601 315 610 326 612 336 L629 412 C632 426 624 432 613 432 L259 432 C247 432 238 426 235 412 L219 336 C216 323 221 315 234 315 L588 315 Z " />
<glyph glyph-name="Omicron" unicode="&#x39f;" horiz-adv-x="853" d="M271 370 C300 506 420 615 555 615 C671 615 742 535 742 427 C742 267 604 127 452 127 C336 127 265 206 265 314 C265 332 267 351 271 370 L271 370 Z M122 370 C116 343 114 316 114 290 C114 118 239 -11 423 -11 C659 -11 895 204 895 450 C895 623 769 753 586 753 C374 753 167 582 122 370 L122 370 Z " />
<glyph glyph-name="Pi" unicode="&#x3a0;" horiz-adv-x="741" d="M521 19 C518 6 524 0 537 0 L639 0 C653 0 661 6 664 19 L814 723 C816 734 806 742 796 742 L257 742 C245 742 236 735 233 722 L84 18 C81 5 87 0 100 0 L202 0 C216 0 224 5 226 18 L352 610 L647 610 L521 19 Z " />
<glyph glyph-name="Rho" unicode="&#x3a1;" horiz-adv-x="629" d="M86 26 C82 9 91 0 108 0 L202 0 C219 0 230 9 234 26 L285 266 L448 266 C582 266 702 380 728 503 C755 629 681 742 546 742 L266 742 C248 742 236 731 232 714 L86 26 Z M579 504 C567 448 512 396 451 396 L313 396 L359 612 L497 612 C558 612 590 558 579 504 L579 504 Z " />
<glyph glyph-name="Sigma" unicode="&#x3a3;" horiz-adv-x="652" d="M534 376 C531 385 526 394 520 402 C473 472 424 541 377 612 L714 612 C726 612 736 619 739 634 L757 721 C760 733 753 742 741 742 L234 742 C223 742 212 734 209 721 L192 644 C191 639 191 635 192 630 C192 630 192 630 192 630 L364 376 L83 114 C78 107 74 86 72 76 L61 22 C58 9 66 0 78 0 L590 0 C602 0 612 11 615 22 L633 109 C636 123 629 129 618 129 L275 129 L509 350 C518 358 527 367 534 376 L534 376 Z " />
<glyph glyph-name="Tau" unicode="&#x3a4;" horiz-adv-x="611" d="M155 632 C151 616 161 606 174 606 L356 606 L232 25 C230 13 243 0 252 0 L352 0 C364 0 378 15 380 25 L503 606 L685 606 C701 606 713 618 716 632 L735 720 C736 735 726 742 714 742 L203 742 C190 742 176 732 174 720 L155 632 Z " />
<glyph glyph-name="Upsilon" unicode="&#x3a5;" horiz-adv-x="684" d="M347 314 L286 28 C282 10 289 0 305 0 L401 0 C419 0 431 9 435 28 L495 315 C537 367 582 422 623 475 L816 713 C821 718 824 724 825 729 C827 737 824 742 814 742 L684 742 C674 741 671 740 657 723 C623 679 583 627 551 583 L450 450 C431 510 410 572 390 633 L369 700 L360 721 C352 741 351 740 339 742 L211 742 C201 742 194 736 192 728 C192 725 194 720 195 714 C195 714 196 712 196 711 L196 711 L254 557 L347 314 Z " />
<glyph glyph-name="Phi" unicode="&#x3a6;" horiz-adv-x="800" d="M337 19 C334 6 339 0 352 0 L437 0 C451 0 459 6 462 19 L470 56 C641 83 794 213 827 369 C860 526 762 656 603 684 L612 723 C614 734 604 742 594 742 L510 742 C497 742 488 733 486 723 L478 684 C309 654 158 525 125 370 C92 214 188 85 345 57 L337 19 Z M689 370 C670 281 593 214 499 192 L575 549 C660 527 708 460 689 370 L689 370 Z M262 370 C281 459 356 526 449 547 L373 192 C289 214 243 281 262 370 L262 370 Z " />
<glyph glyph-name="Chi" unicode="&#x3a7;" horiz-adv-x="667" d="M481 355 L800 712 C808 720 810 728 811 732 C811 740 802 742 789 742 L682 742 C668 741 654 734 641 720 L424 479 L326 713 C317 731 311 742 293 742 L201 742 C186 742 175 738 175 725 C175 721 177 716 179 711 C249 563 292 469 335 375 L38 40 C28 30 18 17 18 11 C18 4 23 0 33 0 L151 0 C163 0 177 9 187 20 C255 98 323 174 391 251 C426 175 464 96 499 20 C503 8 513 0 526 0 L625 0 C637 0 643 6 643 16 C643 21 642 27 639 34 L481 355 Z " />
<glyph glyph-name="Psi" unicode="&#x3a8;" horiz-adv-x="763" d="M336 723 C338 734 328 743 318 743 L221 743 C211 743 201 733 199 723 L171 592 C129 393 211 286 364 266 L312 19 C309 6 315 0 327 0 L422 0 C436 0 444 6 447 19 L500 267 C662 283 793 385 838 593 L865 723 C868 734 859 743 847 743 L754 743 C742 743 732 734 730 723 L703 599 C680 491 625 417 527 397 L597 723 C599 734 589 742 579 742 L485 742 C472 742 463 733 461 723 L392 398 C311 419 286 487 309 598 L336 723 Z " />
</font>
</svg>
